<svg width="21" height="22" viewBox="0 0 21 22" fill="none" xmlns="http://www.w3.org/2000/svg">
<path d="M10.1394 21.7495C15.7393 21.7495 20.2788 17.0412 20.2788 11.2332C20.2788 5.42513 15.7393 0.716797 10.1394 0.716797C4.53957 0.716797 0 5.42513 0 11.2332C0 17.0412 4.53957 21.7495 10.1394 21.7495Z" fill="#272EAE"/>
<path d="M9.15073 17.202V12.1171H7.39917V10.0964H9.15073V8.50429C9.15073 6.77451 10.2378 5.83301 11.8249 5.83301C12.5853 5.83301 13.2385 5.88852 13.428 5.91295V7.72045H12.3273C11.4641 7.72045 11.2974 8.12014 11.2974 8.70413V10.0964H13.2453L12.9781 12.1171H11.2974V17.202" fill="white"/>
<mask id="mask0" mask-type="alpha" maskUnits="userSpaceOnUse" x="7" y="5" width="7" height="13">
<path d="M9.15073 17.202V12.1171H7.39917V10.0964H9.15073V8.50429C9.15073 6.77451 10.2378 5.83301 11.8249 5.83301C12.5853 5.83301 13.2385 5.88852 13.428 5.91295V7.72045H12.3273C11.4641 7.72045 11.2974 8.12014 11.2974 8.70413V10.0964H13.2453L12.9781 12.1171H11.2974V17.202" fill="white"/>
</mask>
<g mask="url(#mask0)">
</g>
</svg>
