<svg width="21" height="22" viewBox="0 0 21 22" fill="none" xmlns="http://www.w3.org/2000/svg">
<path d="M10.3797 21.7495C15.9795 21.7495 20.5191 17.0412 20.5191 11.2332C20.5191 5.42513 15.9795 0.716797 10.3797 0.716797C4.77981 0.716797 0.240234 5.42513 0.240234 11.2332C0.240234 17.0412 4.77981 21.7495 10.3797 21.7495Z" fill="#1590D8"/>
<path d="M15.0079 9.2016C15.0148 9.30259 15.0148 9.4036 15.0148 9.50459C15.0148 12.5849 12.7544 16.1341 8.62292 16.1341C7.3501 16.1341 6.16771 15.7518 5.1731 15.0881C5.35394 15.1097 5.5278 15.117 5.71561 15.117C6.76584 15.117 7.73264 14.7491 8.50468 14.1215C7.51702 14.0998 6.68934 13.4289 6.40417 12.5055C6.54329 12.5272 6.68238 12.5416 6.82846 12.5416C7.03016 12.5416 7.23187 12.5127 7.41966 12.4623C6.39028 12.2458 5.61822 11.308 5.61822 10.1755V10.1466C5.91728 10.3198 6.26508 10.428 6.63368 10.4424C6.02857 10.024 5.63213 9.30981 5.63213 8.50185C5.63213 8.06903 5.7434 7.67226 5.93816 7.326C7.04405 8.73991 8.70637 9.66327 10.5704 9.76428C10.5356 9.59114 10.5147 9.41082 10.5147 9.23047C10.5147 7.94639 11.5163 6.90039 12.7613 6.90039C13.4081 6.90039 13.9924 7.18173 14.4027 7.6362C14.9105 7.53521 15.3973 7.34043 15.8286 7.07352C15.6616 7.61458 15.3069 8.06905 14.8409 8.35758C15.293 8.30711 15.7312 8.17723 16.1346 7.9969C15.8286 8.45857 15.4461 8.86974 15.0079 9.2016Z" fill="white"/>
<mask id="mask0" mask-type="alpha" maskUnits="userSpaceOnUse" x="5" y="6" width="12" height="11">
<path d="M15.0079 9.2016C15.0148 9.30259 15.0148 9.4036 15.0148 9.50459C15.0148 12.5849 12.7544 16.1341 8.62292 16.1341C7.3501 16.1341 6.16771 15.7518 5.1731 15.0881C5.35394 15.1097 5.5278 15.117 5.71561 15.117C6.76584 15.117 7.73264 14.7491 8.50468 14.1215C7.51702 14.0998 6.68934 13.4289 6.40417 12.5055C6.54329 12.5272 6.68238 12.5416 6.82846 12.5416C7.03016 12.5416 7.23187 12.5127 7.41966 12.4623C6.39028 12.2458 5.61822 11.308 5.61822 10.1755V10.1466C5.91728 10.3198 6.26508 10.428 6.63368 10.4424C6.02857 10.024 5.63213 9.30981 5.63213 8.50185C5.63213 8.06903 5.7434 7.67226 5.93816 7.326C7.04405 8.73991 8.70637 9.66327 10.5704 9.76428C10.5356 9.59114 10.5147 9.41082 10.5147 9.23047C10.5147 7.94639 11.5163 6.90039 12.7613 6.90039C13.4081 6.90039 13.9924 7.18173 14.4027 7.6362C14.9105 7.53521 15.3973 7.34043 15.8286 7.07352C15.6616 7.61458 15.3069 8.06905 14.8409 8.35758C15.293 8.30711 15.7312 8.17723 16.1346 7.9969C15.8286 8.45857 15.4461 8.86974 15.0079 9.2016Z" fill="white"/>
</mask>
<g mask="url(#mask0)">
</g>
</svg>
