<svg width="21" height="22" viewBox="0 0 21 22" fill="none" xmlns="http://www.w3.org/2000/svg">
<path d="M10.6199 21.7495C16.2197 21.7495 20.7593 17.0412 20.7593 11.2332C20.7593 5.42513 16.2197 0.716797 10.6199 0.716797C5.02005 0.716797 0.480469 5.42513 0.480469 11.2332C0.480469 17.0412 5.02005 21.7495 10.6199 21.7495Z" fill="#D0021B"/>
<path fill-rule="evenodd" clip-rule="evenodd" d="M14.4068 7.90972C14.854 8.03604 15.2061 8.40828 15.3257 8.88091C15.5428 9.73759 15.5428 11.525 15.5428 11.525C15.5428 11.525 15.5428 13.3124 15.3257 14.169C15.2061 14.6417 14.854 14.9984 14.4068 15.1247C13.5963 15.3543 10.3463 15.3543 10.3463 15.3543C10.3463 15.3543 7.09623 15.3543 6.2857 15.1247C5.83854 14.9984 5.48636 14.6417 5.36683 14.169C5.14966 13.3124 5.14966 11.525 5.14966 11.525C5.14966 11.525 5.14966 9.73759 5.36683 8.88091C5.48636 8.40828 5.83854 8.03606 6.2857 7.90972C7.09623 7.68018 10.3463 7.68018 10.3463 7.68018C10.3463 7.68018 13.5963 7.68018 14.4068 7.90972ZM9.28303 9.90201V13.1476L11.9994 11.5249L9.28303 9.90201Z" fill="white"/>
<mask id="mask0" mask-type="alpha" maskUnits="userSpaceOnUse" x="5" y="7" width="11" height="9">
<path fill-rule="evenodd" clip-rule="evenodd" d="M14.4068 7.90972C14.854 8.03604 15.2061 8.40828 15.3257 8.88091C15.5428 9.73759 15.5428 11.525 15.5428 11.525C15.5428 11.525 15.5428 13.3124 15.3257 14.169C15.2061 14.6417 14.854 14.9984 14.4068 15.1247C13.5963 15.3543 10.3463 15.3543 10.3463 15.3543C10.3463 15.3543 7.09623 15.3543 6.2857 15.1247C5.83854 14.9984 5.48636 14.6417 5.36683 14.169C5.14966 13.3124 5.14966 11.525 5.14966 11.525C5.14966 11.525 5.14966 9.73759 5.36683 8.88091C5.48636 8.40828 5.83854 8.03606 6.2857 7.90972C7.09623 7.68018 10.3463 7.68018 10.3463 7.68018C10.3463 7.68018 13.5963 7.68018 14.4068 7.90972ZM9.28303 9.90201V13.1476L11.9994 11.5249L9.28303 9.90201Z" fill="white"/>
</mask>
<g mask="url(#mask0)">
</g>
</svg>
