<svg width="60" height="60" viewBox="0 0 60 60" fill="none" xmlns="http://www.w3.org/2000/svg">
<g clip-path="url(#clip0)">
<path d="M24.2501 9.49812C23.3635 7.54209 21.0591 6.67463 19.1026 7.56132L17.2546 8.39903C15.2981 9.28572 14.4311 11.5906 15.3178 13.5466V13.547C15.9399 14.9199 15.9985 16.4873 15.4565 17.894C14.5895 20.1444 14.5867 22.7261 15.6524 25.0983C17.7664 29.805 22.6759 30.4468 27.3799 28.3255C32.1035 26.1955 34.868 22.1114 32.7298 17.3936C31.6586 15.0297 29.7273 13.3264 27.4737 12.485C26.0455 11.9522 24.8796 10.8865 24.2501 9.49812Z" fill="url(#paint0_radial)"/>
<path d="M26.182 11.8089L19.4574 9.28069L19.1411 9.16167L19.1095 9.15755L19.077 9.15389C19.0761 9.14794 19.0752 9.14153 19.0738 9.13558C18.98 9.07469 18.7122 8.89296 18.4014 8.60365C18.4389 8.59175 18.476 8.57848 18.5103 8.56291C18.8967 8.38805 19.2359 7.88863 19.6236 7.36861C21.0244 6.95982 22.5199 7.37913 23.5059 8.40087C23.8076 8.7126 24.0612 9.08019 24.2502 9.49767C24.6764 10.4379 25.3489 11.2303 26.182 11.8089Z" fill="url(#paint1_linear)"/>
<path d="M18.7827 8.72215C18.7827 8.72215 13.5097 5.52878 19.9229 1.04635C20.1903 0.859123 20.5579 0.91909 20.7556 1.17864C21.7069 2.42788 23.8162 6.05429 18.7827 8.72215Z" fill="url(#paint2_linear)"/>
<path d="M20.7556 1.17862C20.6462 1.03488 20.4842 0.952484 20.3162 0.939209C19.142 4.52213 18.7822 8.72212 18.7822 8.72212C23.8163 6.05427 21.7069 2.42786 20.7556 1.17862Z" fill="url(#paint3_linear)"/>
<path d="M20.3774 3.41986C20.3316 3.46335 20.2831 3.50409 20.2355 3.54483C20.1878 3.58557 20.1407 3.62632 20.0917 3.66431C20.0432 3.70322 19.9887 3.73572 19.9361 3.76822C19.883 3.80072 19.8367 3.84009 19.7969 3.88678C19.7575 3.93439 19.72 3.98337 19.6852 4.03876C19.6967 3.95407 19.7081 3.86985 19.7191 3.7847L19.7791 3.3718C19.7983 3.23355 19.8258 3.09806 19.8473 2.96027C19.8949 2.68561 19.9526 2.41507 20.029 2.14774L19.969 2.12256L19.8798 2.31528L19.8349 2.41232C19.8207 2.44482 19.8093 2.47824 19.7965 2.51074C19.7475 2.64304 19.6925 2.77533 19.6509 2.90946C19.5593 3.17725 19.482 3.44824 19.4023 3.71924C19.3886 3.77188 19.3749 3.82407 19.3607 3.87671C19.3419 3.83551 19.3208 3.79569 19.2925 3.75952C19.2549 3.71009 19.2156 3.66019 19.1844 3.60663C19.1519 3.55353 19.1226 3.4986 19.0929 3.44321C19.0631 3.38828 19.032 3.33289 19.0054 3.27567C18.9459 3.16306 18.8979 3.04495 18.8443 2.92502L18.8091 2.93143C18.8068 3.06326 18.8145 3.19647 18.8333 3.32831C18.8425 3.39469 18.8557 3.46015 18.8686 3.52606C18.8846 3.59107 18.9006 3.65607 18.9203 3.72061C18.9395 3.78516 18.9551 3.85154 18.9739 3.91745C18.9935 3.98291 19.0242 4.0438 19.0672 4.0969C19.0759 4.10743 19.0846 4.11795 19.0933 4.12803C19.1908 4.23835 19.2261 4.39078 19.1913 4.53406L19.1904 4.53681C19.1304 4.78629 19.0755 5.03623 19.0196 5.28617C18.9922 5.22895 18.961 5.17722 18.9281 5.12687C18.8933 5.07606 18.8525 5.03165 18.8031 4.9932C18.7546 4.95475 18.7038 4.91675 18.6603 4.87235C18.6154 4.82932 18.5733 4.78354 18.5307 4.73731C18.4882 4.69153 18.4442 4.64576 18.4039 4.59723C18.3188 4.50293 18.2423 4.4004 18.1609 4.29786L18.1279 4.31296C18.159 4.44114 18.1998 4.56794 18.251 4.69108C18.2762 4.75333 18.3055 4.81284 18.3344 4.87372C18.3664 4.93232 18.3984 4.99183 18.4332 5.04905C18.468 5.10673 18.4996 5.16715 18.5344 5.2262C18.5701 5.2848 18.615 5.33607 18.6694 5.37681C18.6942 5.39466 18.7193 5.4116 18.7459 5.42762C18.8745 5.50452 18.934 5.65971 18.8992 5.80573C18.8695 5.93116 18.8397 6.05613 18.8104 6.18156C18.7738 6.3404 18.745 6.50062 18.7225 6.66175C18.6978 6.61277 18.6708 6.56745 18.642 6.52397C18.6072 6.4727 18.5664 6.42829 18.517 6.3903C18.4685 6.35185 18.4177 6.31385 18.3742 6.26945C18.3293 6.22596 18.2872 6.18018 18.2446 6.13441C18.2021 6.08863 18.1581 6.0424 18.1178 5.99387C18.0327 5.89957 17.9562 5.79749 17.8748 5.69495L17.8418 5.71006C17.8725 5.83823 17.9132 5.96503 17.9649 6.08817C17.9901 6.14997 18.0194 6.20994 18.0482 6.27082C18.0803 6.32942 18.1123 6.38847 18.1471 6.44569C18.1819 6.50337 18.2135 6.56425 18.2483 6.6233C18.284 6.68144 18.3289 6.73271 18.3833 6.7739C18.4383 6.81373 18.4978 6.85035 18.5642 6.8769C18.6397 6.90757 18.6891 6.98081 18.685 7.0623C18.674 7.27378 18.6575 7.65648 18.6626 7.86018C18.6717 8.14399 18.6919 8.42918 18.75 8.71849L18.8141 8.72627C18.94 8.46031 19.0334 8.19114 19.1158 7.92106C19.1972 7.65052 19.2664 7.37861 19.3245 7.10578C19.3254 7.10075 19.3263 7.09571 19.3272 7.09114C19.346 7.00279 19.4229 6.94282 19.5131 6.93962C19.5795 6.93687 19.6431 6.92497 19.7044 6.90849C19.7704 6.88972 19.8303 6.85813 19.8848 6.81648C19.9384 6.77345 19.9896 6.72859 20.0427 6.68693C20.0958 6.64619 20.1471 6.60224 20.1975 6.55876C20.2464 6.51252 20.295 6.46674 20.3407 6.41822C20.4327 6.32163 20.5165 6.21772 20.5911 6.10923L20.566 6.08314C20.4529 6.14997 20.3453 6.21772 20.2313 6.2754C20.1764 6.30653 20.1192 6.33354 20.0629 6.361C20.0066 6.38893 19.9507 6.41639 19.8935 6.44111C19.8372 6.46674 19.7763 6.48414 19.7168 6.50245C19.6573 6.52076 19.6033 6.54731 19.5525 6.58256C19.498 6.62193 19.4453 6.6645 19.3941 6.71531C19.4156 6.5702 19.4316 6.42509 19.4435 6.27906C19.4513 6.16187 19.4646 6.0044 19.476 5.86616C19.4884 5.71922 19.5923 5.59333 19.736 5.56083C19.8065 5.54526 19.8738 5.51917 19.9379 5.50178C20.0038 5.48301 20.0638 5.45142 20.1178 5.40977C20.1714 5.36674 20.2231 5.32188 20.2757 5.28022C20.3293 5.23948 20.3801 5.19553 20.4309 5.15205C20.4799 5.10581 20.5284 5.06049 20.5742 5.01151C20.6662 4.91492 20.75 4.81101 20.8241 4.70252L20.7994 4.67689C20.6863 4.74372 20.5788 4.81147 20.4648 4.86915C20.4099 4.89982 20.3526 4.92728 20.2963 4.95475C20.24 4.98221 20.1842 5.01014 20.127 5.0344C20.0707 5.06003 20.0098 5.07789 19.9503 5.0962C19.8908 5.11405 19.8367 5.14106 19.7859 5.17631C19.6903 5.24497 19.5996 5.32371 19.5131 5.44318C19.5456 5.16715 19.5763 4.8902 19.6133 4.61463L19.6143 4.6041C19.633 4.4361 19.7397 4.28641 19.8976 4.22599C19.942 4.20905 19.9841 4.18799 20.0249 4.1651C20.0839 4.13077 20.1343 4.08454 20.1764 4.03098C20.2171 3.97605 20.2556 3.91974 20.2968 3.86618C20.338 3.81308 20.3764 3.75815 20.4149 3.70322C20.4501 3.646 20.4863 3.59015 20.5183 3.5311C20.5834 3.41483 20.6383 3.29352 20.6831 3.16947L20.6525 3.1507C20.56 3.24271 20.473 3.33563 20.3774 3.41986Z" fill="url(#paint4_linear)"/>
<path d="M19.4093 9.53611C19.2788 9.6089 19.1419 9.67848 18.9996 9.74302C18.8993 9.78834 18.7995 9.83046 18.6997 9.86799C18.3752 9.18409 17.9165 8.37248 17.3054 7.62998C16.9419 7.18732 16.524 6.76893 16.0484 6.41599C15.2441 5.82044 14.6458 5.69364 14.6394 5.69226C14.4283 5.64923 14.2905 5.4437 14.3317 5.23267C14.3739 5.02164 14.5766 4.88294 14.7877 4.92322C14.8737 4.93924 16.4315 5.26059 18.019 7.2624C18.4928 7.85886 18.9684 8.6041 19.4093 9.53611Z" fill="url(#paint5_linear)"/>
<path d="M26.823 12.0501C26.7832 12.078 26.7434 12.1055 26.7031 12.1321C26.4559 12.2982 26.1941 12.4424 25.924 12.5656C25.4035 12.8004 24.8487 12.9597 24.2765 13.0114C23.9918 13.0361 23.702 13.0311 23.4182 12.984C23.2461 12.956 23.074 12.9107 22.9137 12.8425L16.7316 10.1394C16.581 10.0886 16.4368 10.0204 16.3096 9.92976C16.3792 9.94166 17.1734 10.1174 17.4302 10.057C17.9447 9.93845 18.445 9.75855 18.9262 9.54294C19.1061 9.461 19.2832 9.37403 19.4572 9.28064C19.7483 9.12409 20.0303 8.95105 20.299 8.75742C20.5128 8.60269 20.7192 8.43561 20.9074 8.24838C21.0026 8.155 21.09 8.05567 21.1761 7.95084C21.258 7.84509 21.3345 7.73248 21.4022 7.6098L23.5061 8.40082C23.8073 8.71256 24.0609 9.0806 24.2504 9.49808C24.6766 10.4379 25.3486 11.2303 26.1822 11.8089L26.823 12.0501Z" fill="url(#paint6_linear)"/>
<path d="M32.6539 17.2317C32.6447 17.2125 32.6365 17.1933 32.6273 17.1745C32.609 17.1369 32.5898 17.0994 32.571 17.0619C32.5536 17.0275 32.5371 16.9932 32.5193 16.9593C32.5028 16.9268 32.4854 16.8952 32.4685 16.8632C32.4479 16.8247 32.4277 16.7858 32.4071 16.7478C32.3907 16.7176 32.3733 16.6883 32.3568 16.6586C32.3344 16.6188 32.3124 16.5789 32.2895 16.54C32.2739 16.513 32.2579 16.4869 32.2419 16.4604C32.2172 16.4187 32.1929 16.3771 32.1677 16.3363C32.1531 16.3125 32.1375 16.2892 32.1229 16.2654C32.0954 16.2223 32.0688 16.1793 32.0409 16.1367C32.0272 16.1152 32.0125 16.0942 31.9984 16.0726C31.9691 16.0287 31.9398 15.9843 31.91 15.9408C31.8967 15.9216 31.883 15.9028 31.8693 15.8836C31.8381 15.8387 31.8066 15.7939 31.7745 15.7495C31.7621 15.7321 31.7489 15.7151 31.7361 15.6977C31.7026 15.6524 31.6692 15.6066 31.6349 15.5618C31.6239 15.5476 31.6125 15.5334 31.6015 15.5187C31.5649 15.4721 31.5282 15.4249 31.4912 15.3787C31.4811 15.3663 31.471 15.3544 31.4614 15.3425C31.422 15.2944 31.3831 15.2468 31.3433 15.1997C31.3341 15.1892 31.3254 15.1791 31.3163 15.1686C31.2751 15.1205 31.2334 15.072 31.1913 15.0248C31.184 15.0166 31.1767 15.0088 31.1693 15.0006C31.1249 14.9511 31.0805 14.9021 31.0352 14.8541C31.0297 14.8481 31.0238 14.8422 31.0178 14.8358C30.9707 14.7859 30.9235 14.7369 30.8759 14.6879C30.8713 14.6838 30.8672 14.6792 30.8626 14.6751C30.8132 14.6247 30.7633 14.5748 30.7125 14.5263C30.7097 14.5236 30.7065 14.5208 30.7038 14.5181C30.6516 14.4677 30.599 14.4178 30.5454 14.3688C30.544 14.3675 30.5427 14.3661 30.5413 14.3652C29.6441 13.5403 28.5995 12.9054 27.4743 12.4851C27.4715 12.4842 27.4692 12.4833 27.4665 12.4824C25.2298 11.6493 22.6764 11.6653 20.3309 12.7287C17.9953 13.787 16.3048 15.6849 15.4534 17.9032C15.43 17.9637 15.4076 18.0246 15.3856 18.085C15.382 18.0955 15.3783 18.1056 15.3746 18.1156C15.3531 18.1761 15.3325 18.2365 15.3124 18.2974C15.3087 18.3079 15.3051 18.3194 15.3014 18.3299C15.2813 18.3903 15.2625 18.4503 15.2437 18.5107C15.2401 18.5226 15.2364 18.5345 15.2327 18.5464C15.2149 18.6059 15.1975 18.6659 15.1805 18.7258C15.1769 18.7387 15.1732 18.7515 15.1696 18.7638C15.1535 18.8233 15.1375 18.8824 15.1224 18.9419C15.1187 18.9556 15.1151 18.9698 15.1119 18.9836C15.0968 19.0422 15.083 19.1012 15.0693 19.1598C15.0661 19.1749 15.0624 19.1896 15.0588 19.2042C15.046 19.2623 15.0336 19.3209 15.0212 19.3791C15.018 19.3951 15.0148 19.4107 15.0116 19.4262C15.0002 19.4839 14.9892 19.5411 14.9791 19.5988C14.9759 19.6157 14.9727 19.6327 14.9695 19.6501C14.9599 19.7064 14.9507 19.7631 14.9416 19.8199C14.9388 19.8382 14.9356 19.8561 14.9329 19.8744C14.9247 19.9302 14.9173 19.9861 14.9095 20.0419C14.9073 20.0616 14.9045 20.0808 14.9018 20.1001C14.8949 20.155 14.8889 20.2099 14.883 20.2649C14.8807 20.2854 14.8784 20.306 14.8761 20.3266C14.8706 20.3807 14.8661 20.4347 14.8615 20.4887C14.8597 20.5102 14.8574 20.5322 14.856 20.5537C14.8519 20.6068 14.8487 20.6599 14.8455 20.713C14.8441 20.7359 14.8423 20.7588 14.8413 20.7817C14.8386 20.8339 14.8363 20.886 14.8349 20.9378C14.834 20.962 14.8331 20.9863 14.8322 21.0105C14.8308 21.0614 14.8304 21.1126 14.8294 21.1634C14.8294 21.1891 14.829 21.2143 14.829 21.2394C14.8285 21.2893 14.8294 21.3392 14.8299 21.3896C14.8304 21.4161 14.8304 21.4427 14.8308 21.4692C14.8317 21.5182 14.8336 21.5672 14.8354 21.6157C14.8368 21.6436 14.8377 21.6711 14.8386 21.699C14.8409 21.7466 14.8441 21.7947 14.8468 21.8428C14.8487 21.8716 14.8505 21.9004 14.8523 21.9288C14.8555 21.976 14.8597 22.0227 14.8638 22.0698C14.8665 22.0996 14.8688 22.1293 14.8716 22.1591C14.8761 22.2049 14.8812 22.2506 14.8862 22.2969C14.8899 22.3275 14.8931 22.3582 14.8967 22.3889C14.9022 22.4337 14.9086 22.4786 14.9146 22.5235C14.9187 22.5555 14.9228 22.5871 14.9274 22.6191C14.9343 22.6631 14.9411 22.707 14.9485 22.7505C14.9535 22.7835 14.9585 22.8164 14.9645 22.8489C14.9718 22.892 14.98 22.935 14.9878 22.978C14.9942 23.0114 15.0002 23.0449 15.0071 23.0783C15.0153 23.1204 15.0244 23.1625 15.0331 23.2051C15.0405 23.2389 15.0478 23.2733 15.0556 23.3072C15.0647 23.3488 15.0748 23.39 15.0849 23.4317C15.0931 23.4665 15.1009 23.5012 15.11 23.5356C15.1201 23.5768 15.1311 23.6171 15.1421 23.6583C15.1512 23.6935 15.1604 23.7283 15.17 23.7635C15.1815 23.8038 15.1934 23.8437 15.2048 23.8839C15.2153 23.9196 15.2259 23.9553 15.2364 23.9911C15.2488 24.0304 15.2616 24.0698 15.2744 24.1092C15.2858 24.1453 15.2968 24.1815 15.3092 24.2172C15.322 24.2566 15.3357 24.295 15.3495 24.3339C15.3623 24.3705 15.3746 24.4067 15.3875 24.4429C15.4016 24.4813 15.4163 24.5198 15.4309 24.5582C15.4447 24.5948 15.458 24.631 15.4721 24.6672C15.4872 24.7056 15.5028 24.7436 15.5184 24.7816C15.533 24.8178 15.5477 24.8544 15.5628 24.8906C15.5788 24.9286 15.5957 24.9666 15.6122 25.0041C15.6282 25.0403 15.6438 25.0769 15.6598 25.113C15.6777 25.1519 15.6955 25.1899 15.7134 25.2284C15.7289 25.2618 15.7445 25.2952 15.7601 25.3282C15.7903 25.39 15.8205 25.4504 15.8512 25.5108C15.8544 25.5168 15.8571 25.5232 15.8603 25.5291C18.0754 29.8427 22.8243 30.3801 27.3809 28.3256C32.0785 26.2071 34.8374 22.1563 32.7651 17.472C32.7532 17.4459 32.7422 17.4198 32.7308 17.3938C32.7051 17.3393 32.6795 17.2853 32.6539 17.2317Z" fill="url(#paint7_linear)"/>
<path d="M17.2902 13.445C17.2271 13.3049 17.0618 13.2431 16.9222 13.3063C16.7821 13.3699 16.7199 13.5347 16.7835 13.6748C16.8467 13.8148 17.0119 13.8766 17.1515 13.813C17.2916 13.7498 17.3539 13.585 17.2902 13.445Z" fill="#FFB211"/>
<path d="M20.1746 12.6492C20.0743 12.4277 19.8129 12.3293 19.5914 12.4295C19.3698 12.5302 19.2718 12.7911 19.3721 13.0127C19.4723 13.2347 19.7337 13.3327 19.9553 13.2324C20.1768 13.1317 20.2753 12.8708 20.1746 12.6492Z" fill="#FFB211"/>
<path d="M18.8549 11.8967C18.7006 11.5557 18.2987 11.4046 17.9577 11.5593C17.6166 11.7136 17.4656 12.1155 17.6203 12.4566C17.7746 12.7976 18.1765 12.9487 18.5175 12.7939C18.8586 12.6397 19.0096 12.2377 18.8549 11.8967Z" fill="#FFB211"/>
<path d="M29.2036 22.4106C29.14 22.271 28.9752 22.2087 28.8351 22.2724C28.6955 22.3355 28.6332 22.5003 28.6968 22.6404C28.76 22.7805 28.9253 22.8423 29.0649 22.7791C29.205 22.7155 29.2672 22.5507 29.2036 22.4106Z" fill="#FFB211"/>
<path d="M30.7682 20.8625C30.6135 20.5219 30.212 20.3704 29.871 20.5251C29.5299 20.6798 29.3789 21.0813 29.5331 21.4223C29.6878 21.7634 30.0893 21.9144 30.4303 21.7602C30.7714 21.6054 30.9224 21.2035 30.7682 20.8625Z" fill="#FFB211"/>
<path d="M20.9606 7.21332C20.9729 7.55664 20.8937 7.8757 20.7798 8.1554C20.6649 8.43692 20.5083 8.68 20.3334 8.89743C19.9796 9.32865 19.5424 9.64817 19.0631 9.86652C18.582 10.083 18.0556 10.2021 17.4976 10.1842C17.2193 10.1746 16.9318 10.1279 16.6448 10.0299C16.3591 9.93244 16.0671 9.77955 15.8171 9.54471C15.8881 9.56943 15.9554 9.60056 16.0245 9.61704C16.0918 9.64084 16.16 9.65366 16.2268 9.66968C16.361 9.69303 16.4923 9.71409 16.6219 9.71821C16.881 9.73194 17.1337 9.71729 17.3795 9.6793C17.8711 9.60514 18.3408 9.45408 18.7857 9.25495C19.2307 9.05262 19.6518 8.79902 20.0322 8.47721C20.2217 8.31607 20.4021 8.13938 20.5619 7.93384C20.6424 7.83222 20.7152 7.72144 20.7853 7.60425C20.8516 7.48431 20.9111 7.35614 20.9606 7.21332Z" fill="url(#paint8_radial)"/>
<path d="M27.2587 19.4256C28.7903 22.8057 27.6116 26.6422 24.6256 27.9958C21.6401 29.349 17.9775 27.7065 16.4458 24.3264C14.9141 20.9467 16.0929 17.1102 19.0784 15.7566C22.0644 14.4034 25.7265 16.0459 27.2587 19.4256Z" fill="url(#paint9_linear)"/>
<path d="M43.2065 12.7222C42.004 14.6887 37.3499 13.7787 36.1492 13.5063C35.967 13.4647 35.8649 13.4377 35.8649 13.4377C35.8649 13.4377 35.8434 13.3846 35.8081 13.2875C35.7862 13.2275 35.7592 13.1502 35.728 13.0582C35.4044 12.0978 34.6898 9.543 35.6754 8.13996C36.9059 6.38809 37.3568 8.50159 37.3568 8.50159C37.3568 8.50159 37.533 5.42953 39.1008 4.04525C40.649 2.67928 40.5428 5.33249 40.5396 5.40161C40.5574 5.33386 41.3759 2.30117 43.2317 2.27187C45.1085 2.2412 43.7893 4.37988 43.7893 4.37988C43.7893 4.37988 45.8758 2.31582 47.1259 3.24371C47.2962 3.37005 47.3937 3.51241 47.4344 3.66348C47.4349 3.66531 47.4358 3.6676 47.4363 3.66943C47.439 3.68133 47.4422 3.69369 47.4445 3.70605C47.4477 3.72024 47.45 3.73443 47.4518 3.74908C47.4537 3.76327 47.455 3.77792 47.456 3.79211C47.4582 3.82049 47.4587 3.84979 47.4569 3.87908C47.4569 3.88137 47.4564 3.8832 47.4564 3.88549C47.4555 3.89877 47.4546 3.91158 47.4537 3.92394C47.4509 3.94821 47.4473 3.97201 47.4427 3.99673C47.4386 4.01687 47.434 4.03747 47.429 4.05853C47.4253 4.07363 47.4207 4.08828 47.4161 4.10339C47.4116 4.11849 47.4065 4.13406 47.4015 4.14871C47.396 4.16381 47.3905 4.17892 47.3845 4.19448C47.3726 4.2247 47.3594 4.25491 47.3447 4.28558C47.3388 4.29885 47.3324 4.31167 47.3255 4.32495C47.3168 4.34234 47.3076 4.35928 47.2985 4.37622C47.2902 4.39178 47.2811 4.40689 47.2724 4.42199C47.2637 4.43756 47.2541 4.4522 47.2449 4.46731C47.2358 4.48287 47.2257 4.49752 47.2161 4.51263C47.1667 4.5877 47.1117 4.66323 47.0527 4.73648C47.0325 4.76257 47.011 4.78775 46.9895 4.81338C46.9739 4.83169 46.9584 4.84954 46.9423 4.86785C46.9208 4.89166 46.8993 4.91546 46.8773 4.93927C46.8751 4.94247 46.8723 4.94476 46.87 4.94751C46.8618 4.9562 46.8535 4.96536 46.8453 4.9736C46.3477 5.50094 45.7242 5.91568 45.6968 5.93445C45.7403 5.92392 47.3466 5.54626 47.7581 6.6069C48.1724 7.67349 44.1811 8.4018 44.1184 8.41324C44.1619 8.42469 46.2626 8.98453 45.851 10.1944C45.4386 11.4075 41.2995 11.3896 41.2359 11.3892C41.2935 11.3988 43.76 11.8172 43.2065 12.7222Z" fill="url(#paint10_linear)"/>
<path d="M43.2067 12.7221C42.0042 14.6887 37.3501 13.7786 36.1494 13.5062C35.9672 13.4646 35.8651 13.4376 35.8651 13.4376C35.8651 13.4376 35.8436 13.3845 35.8083 13.2874C38.3256 9.90638 41.4434 7.39371 43.9799 5.70456C45.3715 4.77896 46.5878 4.10101 47.4351 3.66339C47.4356 3.66522 47.436 3.66705 47.4365 3.66888C47.4397 3.68124 47.4424 3.6936 47.4447 3.70596C47.4479 3.72015 47.4502 3.73434 47.452 3.74854C47.4539 3.76318 47.4553 3.77783 47.4566 3.79202C47.4585 3.82086 47.4589 3.8497 47.4571 3.87854C47.4575 3.88083 47.4566 3.88312 47.4571 3.88541C47.4562 3.89822 47.4553 3.9115 47.4539 3.92386C47.4516 3.94812 47.4475 3.97192 47.4429 3.99664C47.4388 4.01679 47.4347 4.03738 47.4292 4.05844C47.4255 4.07309 47.4209 4.0882 47.4168 4.1033C47.4118 4.11841 47.4072 4.13397 47.4017 4.14862C47.3962 4.16373 47.3907 4.17883 47.3848 4.1944C47.3733 4.22415 47.3596 4.25482 47.3454 4.28504C47.339 4.29831 47.3326 4.31159 47.3257 4.32486C47.3175 4.3418 47.3083 4.35919 47.2987 4.37613C47.2905 4.39124 47.2813 4.4068 47.2731 4.42191C47.2639 4.43701 47.2548 4.45212 47.2451 4.46723C47.2364 4.48233 47.2259 4.49744 47.2163 4.51254C47.1673 4.58762 47.1119 4.66315 47.0529 4.73639C47.0327 4.76203 47.0112 4.7872 46.9897 4.8133C46.9741 4.83115 46.9586 4.849 46.9426 4.86777C46.921 4.89157 46.9 4.91538 46.8776 4.93918C46.8753 4.94239 46.873 4.94467 46.8702 4.94742C46.8624 4.95612 46.8538 4.96527 46.8455 4.97351C46.3479 5.50086 45.7244 5.91559 45.697 5.93436C45.7405 5.92383 47.3472 5.54618 47.7583 6.60682C48.1726 7.67341 44.1818 8.40171 44.1191 8.41316C44.1621 8.4246 46.2628 8.98445 45.8517 10.1943C45.4388 11.4074 41.2997 11.3895 41.2361 11.3891C41.2937 11.3987 43.7602 11.8171 43.2067 12.7221Z" fill="url(#paint11_linear)"/>
<path d="M37.192 12.7295C37.007 12.7052 36.8317 12.7629 36.7159 12.8883L36.7141 12.8911L36.3886 13.2435C36.3076 13.3301 36.2279 13.4175 36.1492 13.5058C35.967 13.4646 35.8649 13.4376 35.8649 13.4376C35.8649 13.4376 35.8434 13.3845 35.8081 13.2875C35.7862 13.2275 35.7592 13.1502 35.728 13.0581C35.7866 12.979 35.8448 12.9007 35.9038 12.8219C35.9825 12.7203 36.0604 12.6178 36.1386 12.5162C36.2261 12.4026 36.2618 12.2534 36.2384 12.0987C35.9395 10.1147 36.9956 8.85953 36.7182 9.69083C36.5245 10.2699 36.5538 11.2825 36.6005 11.9371C36.774 11.7261 36.9489 11.5173 37.1251 11.3095C37.3384 11.066 37.5568 10.8265 37.7733 10.5853C37.8804 10.464 37.994 10.3491 38.1066 10.2328L38.2173 10.1188C38.3977 9.93299 38.4975 9.67755 38.4929 9.39969C38.4568 7.14978 39.5925 5.63961 39.2336 6.64944C38.9717 7.38782 38.9086 8.64209 38.8967 9.43265L39.137 9.20239L39.6685 8.70526C39.7275 8.64942 39.787 8.59448 39.8488 8.54276C39.9555 8.45029 40.1326 8.29968 40.3043 8.15274C40.5959 7.90417 40.7955 7.56497 40.8825 7.17679C41.4116 4.81518 43.0509 3.41808 42.4027 4.39724C41.8941 5.16445 41.4693 6.59634 41.2638 7.36859L41.348 7.30359C41.4753 7.20379 41.6053 7.10675 41.7348 7.00924C41.8648 6.9122 41.9907 6.81012 42.1271 6.72085C42.3949 6.53592 42.6641 6.35418 42.9346 6.17337L43.1383 6.0397C43.2061 5.9953 43.2729 5.94906 43.3443 5.90924C43.4848 5.82592 43.6245 5.74215 43.7664 5.66113C43.7851 5.65014 43.8039 5.6387 43.8227 5.62817C43.8881 5.59017 43.9618 5.64236 43.9797 5.70416C43.9902 5.7362 43.9852 5.77145 43.9559 5.79754C43.9399 5.81173 43.9238 5.82592 43.9083 5.84011C43.7879 5.94769 43.6666 6.05297 43.5457 6.15872C43.4844 6.2109 43.4258 6.26538 43.3672 6.32031L43.1905 6.4851C42.9543 6.70208 42.7167 6.91769 42.4773 7.13055C42.2393 7.34479 42.0108 7.57046 41.7756 7.78653C41.7531 7.80667 41.7311 7.82681 41.7092 7.84741C42.4393 7.67987 44.0323 7.27383 44.8677 6.75473C45.905 6.10928 44.3106 7.85565 41.7641 8.24612C41.3993 8.30197 41.0724 8.4631 40.8147 8.70389C40.6632 8.84625 40.5016 8.99732 40.3849 9.10764C40.1564 9.33011 39.9312 9.55716 39.7042 9.78147L39.3673 10.1111C40.0754 10.1303 41.6524 10.1362 42.5277 9.85288C43.5842 9.51047 41.8996 10.6883 39.5211 10.5075C39.2034 10.4828 38.9067 10.583 38.6998 10.7922L38.6911 10.8018L38.5231 10.9721C38.4668 11.0284 38.4137 11.0888 38.3579 11.1451C38.1368 11.3759 37.918 11.6084 37.6946 11.8368C37.5357 12.0071 37.3783 12.1779 37.2194 12.3472C37.8754 12.4077 38.8449 12.4539 39.4117 12.2813C40.2233 12.035 39.0551 12.9748 37.192 12.7295Z" fill="url(#paint12_linear)"/>
<path d="M36.721 12.6146C36.6977 12.5912 36.6743 12.5674 36.651 12.5446C34.6679 10.5844 31.4434 10.6686 29.5629 12.7272C26.1645 16.4475 23.26 20.6314 20.3848 24.7664C19.5732 25.9337 19.7004 27.5194 20.7025 28.5274C20.7144 28.5393 20.7263 28.5512 20.7382 28.5631C21.7462 29.5652 23.3319 29.6924 24.4992 28.8808C28.6341 26.0056 32.8181 23.1011 36.5388 19.7026C38.5974 17.8221 38.6816 14.5976 36.721 12.6146Z" fill="url(#paint13_linear)"/>
<path d="M36.5383 19.7026C38.5973 17.8221 38.6816 14.5976 36.721 12.6146C36.6976 12.5912 36.6743 12.5674 36.6509 12.5446C36.2582 12.1564 35.8173 11.8488 35.3477 11.6208V20.7605C35.7491 20.4126 36.1465 20.0606 36.5383 19.7026Z" fill="url(#paint14_linear)"/>
<path d="M31.3968 15.9704C31.8546 16.2185 32.2908 16.5005 32.7193 16.7971C32.9322 16.9473 33.1427 17.1015 33.3487 17.2622C33.5529 17.4252 33.7543 17.5927 33.9512 17.7676C34.1462 17.9438 34.348 18.1155 34.5394 18.3018C34.7294 18.4886 34.9001 18.6973 35.0429 18.928C35.1848 19.1587 35.3043 19.4078 35.389 19.6714C35.4714 19.9346 35.5222 20.2162 35.4902 20.4963L35.4279 20.511C35.2842 20.2825 35.1404 20.0798 34.9894 19.882C34.8388 19.6852 34.684 19.4952 34.5261 19.3061C34.3664 19.118 34.213 18.9253 34.0647 18.7229C33.9155 18.522 33.7616 18.3206 33.5914 18.1329C33.422 17.9447 33.2457 17.7612 33.0658 17.5813C32.8878 17.3986 32.7037 17.2206 32.517 17.0457C32.1448 16.6932 31.758 16.3531 31.3616 16.0235L31.3968 15.9704Z" fill="url(#paint15_linear)"/>
<path d="M24.4007 21.0511C24.8672 21.307 25.3131 21.5963 25.7507 21.9007C25.9681 22.055 26.1833 22.2134 26.3943 22.3777C26.603 22.5448 26.8095 22.716 27.0109 22.8945C27.2105 23.0749 27.4169 23.2507 27.6129 23.4407C27.8074 23.632 27.9832 23.8449 28.1306 24.0788C28.2771 24.3136 28.4011 24.5663 28.4899 24.8336C28.5765 25.1 28.6309 25.3848 28.6016 25.6672L28.5394 25.6814C28.3911 25.4493 28.2427 25.2429 28.0876 25.0415C27.9324 24.841 27.7735 24.6473 27.611 24.4546C27.4472 24.2633 27.2897 24.0664 27.1368 23.8609C26.983 23.6563 26.8246 23.4512 26.6502 23.2598C26.4762 23.0676 26.2954 22.8803 26.1109 22.6963C25.9283 22.51 25.7401 22.3283 25.5483 22.1493C25.167 21.7895 24.7711 21.4416 24.3655 21.1047L24.4007 21.0511Z" fill="url(#paint16_linear)"/>
<path d="M31.2352 12.7772C31.8234 12.9804 32.3892 13.2326 32.9463 13.5059C33.2228 13.6455 33.4975 13.7907 33.7671 13.9454C34.0344 14.1033 34.299 14.2681 34.5581 14.4434C34.8154 14.621 35.0809 14.7913 35.3345 14.9822C35.5867 15.1754 35.8165 15.4011 36.0143 15.6615C36.2106 15.9229 36.3814 16.2141 36.51 16.5327C36.6364 16.8508 36.7243 17.2015 36.7101 17.5709L36.6345 17.6061C36.4363 17.3479 36.2399 17.1227 36.0349 16.9067C35.8307 16.691 35.6224 16.4855 35.4096 16.2818C35.1949 16.0799 34.9875 15.8703 34.7861 15.6473C34.5824 15.4262 34.3741 15.2056 34.1466 15.0069C33.92 14.8073 33.6852 14.6155 33.4462 14.4292C33.2095 14.2388 32.9655 14.0562 32.7184 13.8781C32.2258 13.5187 31.7168 13.1786 31.1963 12.855L31.2352 12.7772Z" fill="url(#paint17_linear)"/>
<path d="M29.8546 17.1043C30.2267 17.2343 30.5806 17.3987 30.9271 17.5781C31.0992 17.6701 31.269 17.7663 31.4352 17.8688C31.5995 17.9741 31.7616 18.084 31.9191 18.2011C32.0752 18.3202 32.2372 18.4337 32.3901 18.5623C32.5416 18.6919 32.6762 18.8452 32.787 19.0242C32.8964 19.2032 32.987 19.4037 33.0475 19.6243C33.1065 19.845 33.1386 20.089 33.101 20.3485L33.0484 20.3746C32.9371 20.1979 32.825 20.0441 32.706 19.8972C32.5879 19.7502 32.4661 19.6106 32.3411 19.4724C32.2148 19.3355 32.0939 19.1927 31.9781 19.0411C31.8605 18.8905 31.7401 18.7399 31.605 18.6053C31.4709 18.4703 31.3304 18.3412 31.1871 18.2153C31.0452 18.0872 30.8983 17.9645 30.749 17.845C30.4515 17.6033 30.1416 17.3758 29.8225 17.1602L29.8546 17.1043Z" fill="url(#paint18_linear)"/>
<path d="M26.1783 20.9725C26.4877 21.0591 26.778 21.1799 27.0604 21.3159C27.2 21.3859 27.3378 21.4596 27.4715 21.5402C27.6038 21.623 27.7333 21.7105 27.8583 21.8052C27.9819 21.9023 28.1114 21.9933 28.2309 22.0996C28.3499 22.2067 28.4515 22.3376 28.5303 22.4941C28.6081 22.6516 28.6676 22.8311 28.6992 23.0316C28.7294 23.2325 28.734 23.4582 28.6772 23.7045L28.6296 23.7338C28.55 23.579 28.4676 23.4458 28.3788 23.319C28.2904 23.1927 28.1984 23.0732 28.1036 22.9556C28.0075 22.8393 27.9164 22.7171 27.8304 22.5857C27.7434 22.4557 27.6532 22.3266 27.5493 22.2131C27.4458 22.0996 27.3369 21.9915 27.2247 21.8876C27.1144 21.7805 26.9995 21.6793 26.8814 21.5818C26.647 21.3836 26.4008 21.1996 26.1462 21.0275L26.1783 20.9725Z" fill="url(#paint19_linear)"/>
<path d="M23.6118 24.5654C23.9213 24.6519 24.2111 24.7728 24.4935 24.9083C24.6331 24.9783 24.7709 25.052 24.905 25.1326C25.0369 25.2159 25.1664 25.3033 25.2914 25.3981C25.415 25.4951 25.5445 25.5862 25.664 25.6924C25.783 25.7995 25.8847 25.9305 25.9634 26.087C26.0417 26.2445 26.1007 26.4239 26.1323 26.6244C26.163 26.8254 26.1671 27.0506 26.1103 27.2973L26.0632 27.3266C25.9835 27.1719 25.9007 27.0382 25.8119 26.9119C25.7235 26.7856 25.6315 26.6661 25.5368 26.5484C25.4406 26.4322 25.3495 26.3099 25.2635 26.1786C25.1765 26.0486 25.0863 25.9195 24.9824 25.8059C24.8789 25.6924 24.77 25.5844 24.6578 25.48C24.548 25.3734 24.4326 25.2722 24.3145 25.1742C24.0806 24.9765 23.8339 24.7925 23.5793 24.6203L23.6118 24.5654Z" fill="url(#paint20_linear)"/>
<path d="M26.9596 19.1345C27.4156 19.3217 27.8536 19.5437 28.2849 19.7817C28.4991 19.9026 28.712 20.028 28.9207 20.1599C29.1281 20.294 29.3327 20.4331 29.5332 20.5801C29.7323 20.7284 29.9378 20.8717 30.1338 21.0301C30.3292 21.1898 30.5069 21.3729 30.6593 21.5803C30.8113 21.7881 30.9431 22.017 31.042 22.2637C31.139 22.5105 31.2063 22.7792 31.1944 23.0561L31.1358 23.0781C30.9825 22.8726 30.831 22.6917 30.6726 22.5173C30.5146 22.3434 30.3535 22.1768 30.1887 22.0115C30.023 21.8472 29.8628 21.6778 29.7067 21.4984C29.5497 21.3207 29.3881 21.1422 29.2123 20.9797C29.037 20.8167 28.8552 20.6588 28.6703 20.505C28.4872 20.348 28.2986 20.1969 28.1072 20.0486C27.7259 19.7497 27.3318 19.4645 26.929 19.1908L26.9596 19.1345Z" fill="url(#paint21_linear)"/>
<path d="M47.6625 14.8131C46.3395 14.8131 45.0834 15.0988 43.9518 15.6119C43.1548 15.9731 42.2384 15.9731 41.441 15.6119C40.3094 15.0988 39.0533 14.8131 37.7303 14.8131C32.7503 14.8131 28.689 18.9087 28.7293 23.8883C28.7691 28.8257 32.7837 32.8156 37.7303 32.8156C38.189 32.8156 38.6399 32.7813 39.0803 32.7149C41.4753 32.3542 43.9175 32.3542 46.3125 32.7149C46.7529 32.7813 47.2038 32.8156 47.6625 32.8156C52.6091 32.8156 56.6237 28.8257 56.6635 23.8883C56.7038 18.9087 52.6425 14.8131 47.6625 14.8131Z" fill="url(#paint22_radial)"/>
<path d="M44.2172 14.0322H41.1758V11.304C41.1758 10.464 41.8565 9.78326 42.6965 9.78326C43.5365 9.78326 44.2172 10.464 44.2172 11.304V14.0322Z" fill="url(#paint23_linear)"/>
<path d="M42.792 13.8024C41.5922 13.1465 37.9328 11.5942 34.6776 14.8571C34.4941 15.0411 34.5289 15.3446 34.7403 15.4806L40.5425 21.2828C40.58 21.3409 40.6336 21.3903 40.7027 21.4233C42.0705 22.0788 46.0682 23.5785 48.8189 20.337C48.9777 20.1493 48.9384 19.8683 48.7369 19.7369L42.792 13.8024Z" fill="url(#paint24_linear)"/>
<path d="M46.427 22.6871C46.427 18.5709 42.6829 15.2338 38.0641 15.2338C33.4457 15.2338 29.7012 18.5709 29.7012 22.6871C29.7012 26.8038 33.4457 30.1409 38.0641 30.1409C42.6829 30.1409 46.427 26.8038 46.427 22.6871Z" fill="url(#paint25_linear)"/>
<path d="M50.7555 15.3757L50.761 15.367C49.7937 15.0095 48.7505 14.8131 47.6628 14.8131C46.3395 14.8131 45.0833 15.0988 43.9522 15.6119C43.1548 15.9731 42.2383 15.9731 41.4409 15.6119C40.4782 15.1752 39.4245 14.9042 38.3167 14.8328C37.2872 15.5927 36.3606 16.7609 35.8544 18.5526C35.7889 18.7838 35.9258 19.0126 36.1386 19.0758L49.6569 32.5936C53.6454 31.6918 56.6295 28.1418 56.6639 23.8887C56.6726 22.7823 56.478 21.7208 56.1168 20.737L50.7555 15.3757Z" fill="url(#paint26_linear)"/>
<path d="M42.6494 13.7544C43.6931 14.7399 45.6959 15.4692 43.4931 19.7753C43.3603 20.0344 43.0124 20.0898 42.8115 19.8788C41.7142 18.7257 39.6543 17.6417 41.9994 13.8459C42.1404 13.617 42.454 13.5699 42.6494 13.7544Z" fill="url(#paint27_linear)"/>
<path d="M42.7919 13.8024C41.5921 13.1465 37.9327 11.5942 34.6775 14.8571C34.4816 15.0535 34.5342 15.3854 34.7842 15.5053C36.152 16.1608 40.1496 17.6605 42.9004 14.4186C43.0665 14.2231 43.0166 13.9256 42.7919 13.8024Z" fill="url(#paint28_linear)"/>
<path d="M42.6015 13.8024C43.8013 13.1465 47.4607 11.5942 50.7154 14.8571C50.9117 15.0535 50.8591 15.3854 50.6092 15.5053C49.2414 16.1608 45.2437 17.6605 42.493 14.4186C42.3268 14.2231 42.3763 13.9256 42.6015 13.8024Z" fill="url(#paint29_linear)"/>
<path d="M42.7524 13.4385C41.3173 13.4504 37.1699 13.8981 35.8543 18.5526C35.7751 18.8328 35.9926 19.1102 36.2832 19.0923C37.8721 18.9939 42.3024 18.3251 43.1667 13.948C43.2188 13.6839 43.0215 13.4362 42.7524 13.4385Z" fill="url(#paint30_linear)"/>
<path d="M42.8145 13.443C44.2487 13.5021 48.3791 14.0848 49.5423 18.7792C49.6123 19.0621 49.3857 19.3322 49.096 19.3047C47.5112 19.1546 43.1052 18.3416 42.3838 13.9388C42.3403 13.6733 42.5458 13.4321 42.8145 13.443Z" fill="url(#paint31_linear)"/>
<path d="M9.92758 16.9669C9.92758 16.9669 6.15056 12.1311 13.7032 10.2286C14.0182 10.149 14.3391 10.3348 14.4311 10.6466C14.8746 12.1448 15.5544 16.2647 9.92758 16.9669Z" fill="url(#paint32_linear)"/>
<path d="M14.431 10.6467C14.3802 10.4737 14.2584 10.34 14.1069 10.2681C11.7476 13.1868 9.92749 16.9671 9.92749 16.9671C15.5543 16.2653 14.8746 12.145 14.431 10.6467Z" fill="url(#paint33_linear)"/>
<path d="M13.2866 12.5976C13.2289 12.6223 13.1689 12.6429 13.1104 12.664C13.0518 12.685 12.9936 12.7061 12.9341 12.7239C12.8751 12.7432 12.8133 12.7542 12.7524 12.7656C12.692 12.777 12.6352 12.7976 12.5812 12.8269C12.5276 12.8571 12.4754 12.8897 12.4237 12.929C12.464 12.8544 12.5047 12.7798 12.545 12.7047L12.7469 12.3412C12.8137 12.2195 12.887 12.1032 12.9556 11.9824C13.0971 11.7439 13.2463 11.5127 13.412 11.2907L13.3658 11.2463L13.2143 11.3941L13.1383 11.4683C13.1136 11.4939 13.0911 11.5205 13.0673 11.5466C12.9753 11.6523 12.8774 11.7558 12.7908 11.8661C12.6109 12.0826 12.4429 12.3074 12.2736 12.5317C12.242 12.5756 12.2104 12.6196 12.1788 12.6635C12.1761 12.6182 12.1701 12.5743 12.1568 12.5298C12.1394 12.4708 12.1202 12.4108 12.1101 12.3495C12.0987 12.2886 12.0909 12.2273 12.0827 12.1655C12.0744 12.1037 12.0653 12.0414 12.0607 11.9787C12.0456 11.8528 12.0419 11.726 12.0351 11.5956L11.9998 11.5887C11.9508 11.7105 11.911 11.8373 11.8822 11.9668C11.8671 12.0318 11.8561 12.0973 11.8446 12.1632C11.8369 12.2291 11.8286 12.2955 11.824 12.3623C11.819 12.4291 11.8103 12.4964 11.8044 12.5646C11.7998 12.6324 11.8066 12.6997 11.8277 12.7647C11.8318 12.7775 11.8364 12.7899 11.841 12.8027C11.8927 12.94 11.8712 13.0943 11.7883 13.2151L11.787 13.2174C11.6428 13.428 11.5031 13.6413 11.3626 13.8542C11.3571 13.791 11.347 13.7319 11.3338 13.6738C11.3196 13.6138 11.2972 13.558 11.2651 13.5053C11.2331 13.4522 11.1996 13.3987 11.1749 13.3424C11.1484 13.2861 11.1255 13.2289 11.1021 13.1707C11.0788 13.113 11.0541 13.0549 11.0339 12.9954C10.9877 12.8773 10.9529 12.7555 10.9131 12.631L10.8774 12.6333C10.8609 12.7638 10.8536 12.8961 10.8582 13.0288C10.8595 13.0952 10.8659 13.1616 10.8714 13.2284C10.8801 13.2939 10.8888 13.3602 10.9012 13.4262C10.9131 13.4921 10.9213 13.5594 10.9328 13.6271C10.9451 13.6939 10.9689 13.7576 11.0051 13.8148C11.0216 13.84 11.0394 13.8651 11.0582 13.889C11.1507 14.0061 11.1516 14.1718 11.0674 14.295C10.9955 14.4012 10.9232 14.5069 10.8517 14.6136C10.7611 14.7486 10.6778 14.8873 10.6004 15.0292C10.5945 14.9748 10.5853 14.9235 10.5739 14.8727C10.5597 14.8127 10.5373 14.7569 10.5052 14.7038C10.4732 14.6507 10.4398 14.5976 10.415 14.5408C10.3885 14.485 10.3656 14.4273 10.3423 14.3696C10.3185 14.3119 10.2942 14.2538 10.274 14.1943C10.2278 14.0757 10.1926 13.954 10.1532 13.8294L10.1175 13.8322C10.1006 13.9622 10.0937 14.0949 10.0983 14.2272C10.0996 14.2941 10.1056 14.36 10.1111 14.4268C10.1198 14.4927 10.1289 14.5591 10.1413 14.6246C10.1527 14.6905 10.161 14.7582 10.1724 14.8255C10.1852 14.8924 10.2086 14.956 10.2452 15.0137C10.2823 15.07 10.3244 15.1249 10.3766 15.1734C10.4366 15.2284 10.4562 15.314 10.4237 15.3886C10.3386 15.5813 10.188 15.9315 10.1207 16.1228C10.0291 16.3906 9.94675 16.663 9.89868 16.9523L9.9559 16.9821C10.1669 16.7793 10.3487 16.5618 10.5212 16.3394C10.6929 16.1169 10.8531 15.8885 11.0033 15.6545C11.006 15.6504 11.0088 15.6463 11.0115 15.6422C11.06 15.5671 11.153 15.5383 11.2376 15.5671C11.3004 15.5882 11.364 15.5996 11.4272 15.606C11.4949 15.612 11.5622 15.6033 11.6272 15.5841C11.6922 15.563 11.7558 15.5392 11.8199 15.5195C11.884 15.5003 11.9467 15.4774 12.0094 15.455C12.0712 15.4289 12.1326 15.4042 12.1925 15.3749C12.312 15.3176 12.4269 15.2503 12.5345 15.1757L12.5203 15.1428C12.3917 15.1652 12.2672 15.1904 12.1413 15.2037C12.079 15.2128 12.0163 15.2178 11.954 15.2238C11.8918 15.2293 11.8304 15.2352 11.7682 15.238C11.7064 15.2416 11.6437 15.2366 11.5823 15.2329C11.5205 15.2284 11.4606 15.2343 11.4011 15.249C11.3365 15.2664 11.2724 15.2874 11.207 15.3163C11.2775 15.189 11.3443 15.0595 11.4066 14.9276C11.4555 14.8219 11.5233 14.68 11.5833 14.5555C11.6464 14.4232 11.7874 14.3426 11.933 14.3632C12.0039 14.3733 12.0763 14.3728 12.1417 14.3797C12.2095 14.3856 12.2768 14.3774 12.3418 14.3577C12.4068 14.3366 12.4704 14.3128 12.5345 14.2932C12.5986 14.2739 12.6617 14.251 12.724 14.2286C12.7858 14.203 12.8476 14.1778 12.9071 14.1485C13.027 14.0913 13.1415 14.024 13.2491 13.9494L13.2349 13.9164C13.1062 13.9388 12.9822 13.964 12.8558 13.9773C12.7936 13.9865 12.7309 13.9915 12.6686 13.9974C12.6064 14.0034 12.545 14.0089 12.4832 14.0116C12.4214 14.0158 12.3587 14.0103 12.2969 14.0066C12.2351 14.0025 12.1751 14.008 12.1156 14.0231C12.0021 14.0533 11.89 14.094 11.7673 14.1751C11.8954 13.9297 12.0218 13.6825 12.1536 13.4394L12.1587 13.4298C12.2351 13.2801 12.3871 13.179 12.5555 13.1785C12.6032 13.178 12.6498 13.1735 12.6956 13.1666C12.7629 13.1552 12.8261 13.1304 12.8842 13.0952C12.9414 13.0586 12.9973 13.0197 13.0545 12.9844C13.1117 12.9496 13.1667 12.9116 13.2216 12.8745C13.2752 12.8338 13.3283 12.7944 13.3786 12.7509C13.4807 12.6658 13.5745 12.572 13.6601 12.4726L13.6382 12.4442C13.5196 12.4978 13.4052 12.5532 13.2866 12.5976Z" fill="url(#paint34_linear)"/>
<path d="M9.38095 16.0734C9.32098 15.9983 9.25918 15.9251 9.19372 15.8532C9.1484 15.8019 9.09988 15.7534 9.05227 15.704C9.00283 15.6559 8.9534 15.6078 8.90121 15.5621C8.8504 15.5158 8.79776 15.4719 8.74465 15.4275C8.69018 15.3849 8.63616 15.3423 8.58032 15.303C8.40362 15.1748 8.21594 15.0635 8.02368 14.972C8.00216 14.9184 7.97973 14.8653 7.95638 14.8122C7.863 14.6035 7.75588 14.3993 7.63229 14.2052C7.50823 14.0116 7.36724 13.8271 7.20565 13.6637C7.18002 13.6372 7.14111 13.6312 7.11639 13.6513C7.08892 13.6738 7.08755 13.7182 7.11318 13.7511L7.11364 13.752C7.3677 14.0757 7.54897 14.4497 7.67852 14.8296C7.49267 14.7646 7.30499 14.7179 7.11776 14.6905C6.61285 14.6136 6.11938 14.6703 5.68038 14.8406C5.24276 15.0127 4.84999 15.2993 4.57808 15.7145C4.44213 15.9209 4.3405 16.1608 4.28649 16.4199C4.25948 16.549 4.24437 16.6845 4.24071 16.8177C4.2375 16.945 4.24208 17.0768 4.25765 17.2114C4.28923 17.4801 4.36522 17.7644 4.50118 18.0349C4.56984 18.1699 4.65178 18.3009 4.747 18.4212C4.84267 18.5421 4.94979 18.6533 5.06606 18.7486C5.29906 18.9404 5.56182 19.0717 5.81954 19.1413C6.07818 19.2127 6.33224 19.2242 6.56798 19.1935C7.0404 19.129 7.43407 18.895 7.72292 18.5828C7.79525 18.505 7.86208 18.4222 7.92343 18.3361C7.98385 18.251 8.04382 18.1557 8.0928 18.0592C8.19213 17.8646 8.26354 17.6554 8.30978 17.4407C8.35372 17.2379 8.36837 17.1203 8.37295 16.9111C8.37295 16.9111 9.0953 18.2743 8.48098 19.8884C8.35464 20.2212 8.69293 20.6249 9.0303 20.5412C9.0335 20.5407 9.03671 20.5398 9.03946 20.5389C9.86435 20.3283 11.0921 19.7341 12.1509 18.0866C12.3221 17.8197 12.1088 17.4032 11.776 17.3606C11.136 17.2791 10.2077 16.9884 9.38095 16.0734ZM7.78793 17.2077C7.73254 17.3766 7.65838 17.5327 7.56637 17.6701C7.4771 17.806 7.359 17.9287 7.23403 18.0317C6.98455 18.2391 6.68288 18.3622 6.37664 18.3668C6.22466 18.3691 6.07268 18.3425 5.9349 18.288C5.79619 18.2345 5.67351 18.1525 5.57464 18.0546C5.37505 17.8605 5.2716 17.5918 5.26244 17.2901C5.25969 17.2146 5.26336 17.1377 5.27251 17.0603C5.28121 16.988 5.2954 16.9225 5.31554 16.858C5.35582 16.7294 5.41991 16.6131 5.50506 16.5115C5.58974 16.4094 5.69686 16.3238 5.81862 16.2583C5.93993 16.1915 6.07451 16.1425 6.21688 16.1141C6.50161 16.0546 6.80968 16.0706 7.1054 16.1397C7.38784 16.2048 7.66021 16.3192 7.91885 16.4767C7.9042 16.7339 7.863 16.9816 7.78793 17.2077Z" fill="url(#paint35_linear)"/>
<path d="M8.02332 14.972C8.00181 14.9184 7.97938 14.8653 7.95603 14.8122C7.86311 14.6035 7.75599 14.3993 7.63193 14.2057C7.50788 14.0116 7.36689 13.8271 7.20576 13.6637C7.17966 13.6372 7.14121 13.6312 7.11603 13.6513C7.08857 13.6738 7.0872 13.7182 7.11283 13.7511L7.11375 13.752C7.36735 14.0757 7.54862 14.4497 7.67817 14.8296L8.02332 14.972Z" fill="url(#paint36_linear)"/>
<path d="M7.78784 17.2077C7.73245 17.3766 7.65829 17.5327 7.56628 17.67C7.52692 17.73 7.4816 17.7867 7.43262 17.8408L7.85834 18.4212C7.88031 18.3928 7.90228 18.3649 7.92288 18.3361C7.98331 18.2509 8.04327 18.1557 8.09225 18.0591C8.19205 17.8646 8.263 17.6554 8.30923 17.4407C8.35318 17.2379 8.36829 17.1202 8.37286 16.911C8.23553 16.6579 7.91876 16.4766 7.91876 16.4766C7.90411 16.7339 7.86291 16.9815 7.78784 17.2077Z" fill="url(#paint37_linear)"/>
<path d="M11.776 17.3606C11.1356 17.2791 10.2077 16.9884 9.38096 16.0734C9.32099 15.9983 9.25919 15.9251 9.19373 15.8532C9.14841 15.8019 9.09989 15.7534 9.05228 15.704C9.00285 15.6559 8.95341 15.6078 8.90122 15.562C8.85041 15.5158 8.79777 15.4719 8.74467 15.4275C8.69019 15.3849 8.63618 15.3423 8.58033 15.303C8.40363 15.1748 8.21595 15.0635 8.02369 14.972C8.00217 14.9184 7.97974 14.8653 7.9564 14.8122C7.86301 14.6035 7.7559 14.3993 7.6323 14.2052C7.50824 14.0116 7.36725 13.8271 7.20566 13.6637C7.18003 13.6372 7.14112 13.6312 7.1164 13.6513C7.08893 13.6738 7.08756 13.7182 7.11319 13.7511L7.11365 13.752C7.36771 14.0757 7.54899 14.4497 7.67853 14.8296C7.49268 14.7646 7.305 14.7179 7.11777 14.6905C6.61286 14.6136 6.11939 14.6703 5.68039 14.8406C5.24277 15.0127 4.85001 15.2993 4.57809 15.7145C4.44214 15.9209 4.34052 16.1608 4.2865 16.4199C4.25949 16.549 4.24438 16.6845 4.24072 16.8177C4.24072 16.8177 5.72296 14.5 7.40021 15.4943C8.73139 16.283 9.86756 18.1622 11.315 19.155C11.5979 18.8607 11.8794 18.5082 12.1504 18.0875C12.3216 17.8202 12.1088 17.4032 11.776 17.3606Z" fill="url(#paint38_linear)"/>
<path d="M24.1527 34.2111C24.1527 35.9428 22.7482 37.3467 21.0165 37.3467C19.2843 37.3467 17.8804 35.9428 17.8804 34.2111C17.8804 32.4789 19.2843 31.0749 21.0165 31.0749C22.7482 31.0749 24.1527 32.4789 24.1527 34.2111Z" fill="url(#paint39_radial)"/>
<path d="M24.3251 29.7034C24.3251 31.4356 22.9211 32.8396 21.1889 32.8396C19.4572 32.8396 18.0532 31.4356 18.0532 29.7034C18.0532 27.9717 19.4572 26.5673 21.1889 26.5673C22.9211 26.5673 24.3251 27.9717 24.3251 29.7034Z" fill="url(#paint40_radial)"/>
<path d="M23.6083 25.4503C23.6083 27.182 22.2043 28.5864 20.4721 28.5864C18.7404 28.5864 17.3364 27.182 17.3364 25.4503C17.3364 23.7181 18.7404 22.3141 20.4721 22.3141C22.2043 22.3141 23.6083 23.7181 23.6083 25.4503Z" fill="url(#paint41_radial)"/>
<path d="M23.8175 20.256C23.8175 21.9881 22.413 23.3921 20.6813 23.3921C18.9491 23.3921 17.5452 21.9881 17.5452 20.256C17.5452 18.5242 18.9491 17.1203 20.6813 17.1203C22.413 17.1203 23.8175 18.5242 23.8175 20.256Z" fill="url(#paint42_radial)"/>
<path d="M23.5447 32.3557C23.4623 32.2435 23.373 32.1392 23.2797 32.0408C24.4712 30.9774 24.6818 29.1623 23.7173 27.8481C23.5319 27.5949 23.3149 27.3784 23.0764 27.1985C23.7919 26.1324 23.8038 24.69 23.0004 23.595C22.8072 23.3313 22.5802 23.107 22.3298 22.923C22.3998 22.8795 22.4689 22.8342 22.5367 22.7848C23.9329 21.7598 24.2341 19.7974 23.2096 18.4007C22.1851 17.0046 20.2222 16.7034 18.8261 17.7278C17.4299 18.7528 17.1282 20.7152 18.1531 22.1114C18.3463 22.3751 18.5734 22.5998 18.8238 22.7838C18.7537 22.8269 18.6846 22.8726 18.6169 22.9221C17.2207 23.9466 16.919 25.9095 17.9439 27.3056C18.1298 27.5588 18.3463 27.7753 18.5848 27.9552C17.8693 29.0213 17.8574 30.4638 18.6608 31.5587C18.7432 31.6709 18.832 31.7752 18.9258 31.8732C17.9746 32.7224 17.6491 34.0499 18.0469 35.2195L23.547 36.064C24.3343 34.9897 24.3746 33.4868 23.5447 32.3557Z" fill="url(#paint43_linear)"/>
<path d="M19.8392 32.4165C19.8392 34.1487 18.4353 35.5527 16.7031 35.5527C14.9713 35.5527 13.5674 34.1487 13.5674 32.4165C13.5674 30.6848 14.9713 29.2804 16.7031 29.2804C18.4353 29.2804 19.8392 30.6848 19.8392 32.4165Z" fill="url(#paint44_radial)"/>
<path d="M19.2314 30.5611C18.2065 29.1649 16.2441 28.8637 14.8474 29.8882C13.7868 30.6664 13.3588 31.9857 13.6632 33.1873L19.3715 34.0639C20.022 33.0088 20.0096 31.6218 19.2314 30.5611Z" fill="url(#paint45_linear)"/>
<path d="M19.3304 27.3894C19.3304 29.1211 17.9264 30.5255 16.1942 30.5255C14.4625 30.5255 13.0581 29.1211 13.0581 27.3894C13.0581 25.6572 14.4625 24.2532 16.1942 24.2532C17.9264 24.2532 19.3304 25.6572 19.3304 27.3894Z" fill="url(#paint46_radial)"/>
<path d="M19.4149 22.1068C19.4149 23.8389 18.0109 25.2429 16.2787 25.2429C14.547 25.2429 13.1426 23.8389 13.1426 22.1068C13.1426 20.375 14.547 18.9706 16.2787 18.9706C18.0109 18.9706 19.4149 20.375 19.4149 22.1068Z" fill="url(#paint47_radial)"/>
<path d="M19.7013 17.9612C19.7013 19.6929 18.2973 21.0969 16.5651 21.0969C14.8334 21.0969 13.4294 19.6929 13.4294 17.9612C13.4294 16.229 14.8334 14.8251 16.5651 14.8251C18.2973 14.8251 19.7013 16.229 19.7013 17.9612Z" fill="url(#paint48_radial)"/>
<path d="M19.5663 18.8695L13.4295 17.927C13.4222 18.5834 13.619 19.2472 14.0369 19.8166C14.0507 19.8354 14.0653 19.8532 14.0795 19.8716C12.9845 20.9459 12.8161 22.6891 13.7504 23.9621C13.9756 24.2693 14.2466 24.5234 14.5469 24.722C14.4764 24.7655 14.4068 24.8113 14.3391 24.8612C12.9429 25.8857 12.6417 27.8481 13.6662 29.2447C14.6911 30.6409 16.6535 30.9421 18.0497 29.9177C19.4464 28.8932 19.7476 26.9303 18.7231 25.5341C18.4974 25.2269 18.2269 24.9729 17.9266 24.7742C17.9966 24.7307 18.0662 24.6849 18.1339 24.6351C19.5306 23.6106 19.8318 21.6481 18.8073 20.2515C18.7936 20.2327 18.7789 20.2149 18.7647 20.1966C19.1484 19.8198 19.4175 19.3611 19.5663 18.8695Z" fill="url(#paint49_linear)"/>
<path d="M15.0294 30.6052C15.0294 32.3374 13.6254 33.7414 11.8937 33.7414C10.1615 33.7414 8.75757 32.3374 8.75757 30.6052C8.75757 28.8735 10.1615 27.4695 11.8937 27.4695C13.6254 27.4695 15.0294 28.8735 15.0294 30.6052Z" fill="url(#paint50_radial)"/>
<path d="M10.0383 28.077C8.87097 28.9334 8.46952 30.4454 8.96756 31.734L14.3458 32.5598C15.2078 31.48 15.2783 29.9172 14.4218 28.7499C13.3973 27.3537 11.4345 27.0525 10.0383 28.077Z" fill="url(#paint51_linear)"/>
<path d="M14.9395 25.3308C14.9395 27.0625 13.5351 28.4665 11.8034 28.4665C10.0712 28.4665 8.66724 27.0625 8.66724 25.3308C8.66724 23.5986 10.0712 22.1946 11.8034 22.1946C13.5351 22.1946 14.9395 23.5986 14.9395 25.3308Z" fill="url(#paint52_radial)"/>
<path d="M10.7606 28.8771C10.7606 30.6088 9.35664 32.0132 7.62492 32.0132C5.89273 32.0132 4.48877 30.6088 4.48877 28.8771C4.48877 27.1449 5.89273 25.7409 7.62492 25.7409C9.35664 25.7409 10.7606 27.1449 10.7606 28.8771Z" fill="url(#paint53_radial)"/>
<path d="M14.6658 20.4341C14.6658 22.1663 13.2614 23.5703 11.5297 23.5703C9.79752 23.5703 8.39355 22.1663 8.39355 20.4341C8.39355 18.7019 9.79752 17.298 11.5297 17.298C13.2614 17.298 14.6658 18.7019 14.6658 20.4341Z" fill="url(#paint54_radial)"/>
<path d="M10.4449 23.9484C10.4449 25.6802 9.04047 27.0846 7.30875 27.0846C5.57657 27.0846 4.17261 25.6802 4.17261 23.9484C4.17261 22.2163 5.57657 20.8123 7.30875 20.8123C9.04047 20.8123 10.4449 22.2163 10.4449 23.9484Z" fill="url(#paint55_radial)"/>
<path d="M38.1141 59.2544H21.6519C10.6619 59.2544 1.75244 50.3449 1.75244 39.3549V26.4867H58.0135V39.3549C58.0135 50.3449 49.1045 59.2544 38.1141 59.2544Z" fill="url(#paint56_linear)"/>
<path d="M22.2125 26.4867V39.3549C22.2125 46.8352 18.0844 53.3506 11.9824 56.7495C14.8453 58.3444 18.1421 59.2544 21.6518 59.2544H38.1139C49.1039 59.2544 58.0134 50.3449 58.0134 39.3549V26.4867H22.2125Z" fill="url(#paint57_linear)"/>
<path d="M30.8199 26.4867V39.3549C30.8199 48.4855 24.6698 56.1796 16.2859 58.5215C17.9929 58.9985 19.7924 59.2544 21.6518 59.2544H38.1139C49.1039 59.2544 58.0134 50.3449 58.0134 39.3549V26.4867H30.8199Z" fill="url(#paint58_linear)"/>
<path d="M39.5518 26.4867V39.3549C39.5518 50.0098 31.1779 58.7083 20.6521 59.2292C20.9831 59.2457 21.3168 59.2544 21.6519 59.2544H38.114C49.1045 59.2544 58.0135 50.3449 58.0135 39.3549V26.4867H39.5518Z" fill="url(#paint59_linear)"/>
<path d="M48.3233 26.4867V39.3549C48.3233 50.3449 39.4143 59.2544 28.4238 59.2544H38.1138C49.1038 59.2544 58.0133 50.3449 58.0133 39.3549V26.4867H48.3233Z" fill="url(#paint60_linear)"/>
<path d="M37.5533 26.4867V39.3549C37.5533 46.8352 41.6814 53.3506 47.7834 56.7495C44.9205 58.3444 41.6237 59.2544 38.114 59.2544H21.6519C10.6619 59.2544 1.75244 50.3449 1.75244 39.3549V26.4867H37.5533Z" fill="url(#paint61_linear)"/>
<path d="M28.9459 26.4867V39.3549C28.9459 48.4855 35.096 56.1796 43.48 58.5215C41.773 58.9985 39.9735 59.2544 38.1141 59.2544H21.6519C10.6619 59.2544 1.75244 50.3449 1.75244 39.3549V26.4867H28.9459Z" fill="url(#paint62_linear)"/>
<path d="M20.2141 26.4867V39.3549C20.2141 50.0098 28.588 58.7083 39.1138 59.2292C38.7828 59.2457 38.4491 59.2544 38.1141 59.2544H21.6519C10.6619 59.2544 1.75244 50.3449 1.75244 39.3549V26.4867H20.2141Z" fill="url(#paint63_linear)"/>
<path d="M11.4424 26.4867V39.3549C11.4424 50.3449 20.3514 59.2544 31.3419 59.2544H21.6519C10.6619 59.2544 1.75244 50.3449 1.75244 39.3549V26.4867H11.4424Z" fill="url(#paint64_linear)"/>
<path d="M1.75244 26.4867V31.3935L29.6134 59.2544H38.1141C49.1045 59.2544 58.0135 50.3449 58.0135 39.3549V26.4867H1.75244Z" fill="url(#paint65_linear)"/>
<path d="M55.7049 31.8419H4.06083C1.7537 31.8419 -0.117188 29.9715 -0.117188 27.6635C-0.117188 25.3559 1.7537 23.4854 4.06083 23.4854H55.7045C58.012 23.4854 59.8829 25.3563 59.8829 27.6635C59.8829 29.9715 58.012 31.8419 55.7049 31.8419Z" fill="url(#paint66_linear)"/>
</g>
<defs>
<radialGradient id="paint0_radial" cx="0" cy="0" r="1" gradientUnits="userSpaceOnUse" gradientTransform="translate(16.5058 17.1715) rotate(-24.3814) scale(18.346)">
<stop stop-color="#FFE548"/>
<stop offset="0.5071" stop-color="#FFE346"/>
<stop offset="0.6898" stop-color="#FFDD3F"/>
<stop offset="0.82" stop-color="#FFD234"/>
<stop offset="0.9245" stop-color="#FFC223"/>
<stop offset="1" stop-color="#FFB211"/>
</radialGradient>
<linearGradient id="paint1_linear" x1="22.2687" y1="9.82561" x2="19.747" y2="7.2893" gradientUnits="userSpaceOnUse">
<stop stop-color="#FFB211" stop-opacity="0"/>
<stop offset="0.1722" stop-color="#FFAD13" stop-opacity="0.172549"/>
<stop offset="0.383" stop-color="#FF9E1A" stop-opacity="0.384314"/>
<stop offset="0.614" stop-color="#FF8525" stop-opacity="0.615686"/>
<stop offset="0.8577" stop-color="#FF6334" stop-opacity="0.858824"/>
<stop offset="1" stop-color="#FF4B3E"/>
</linearGradient>
<linearGradient id="paint2_linear" x1="18.8641" y1="4.67157" x2="23.5722" y2="5.74412" gradientUnits="userSpaceOnUse">
<stop stop-color="#7AC943"/>
<stop offset="0.4564" stop-color="#5FC146"/>
<stop offset="1" stop-color="#39B54A"/>
</linearGradient>
<linearGradient id="paint3_linear" x1="21.4849" y1="4.99006" x2="17.6796" y2="4.67745" gradientUnits="userSpaceOnUse">
<stop stop-color="#39B54A" stop-opacity="0"/>
<stop offset="0.1072" stop-color="#2FAB48" stop-opacity="0.105882"/>
<stop offset="0.4553" stop-color="#159043" stop-opacity="0.454902"/>
<stop offset="0.7642" stop-color="#06803F" stop-opacity="0.764706"/>
<stop offset="1" stop-color="#007A3E"/>
</linearGradient>
<linearGradient id="paint4_linear" x1="18.4379" y1="5.16988" x2="19.6079" y2="5.48836" gradientUnits="userSpaceOnUse">
<stop stop-color="#39B54A" stop-opacity="0"/>
<stop offset="0.1072" stop-color="#2FAB48" stop-opacity="0.105882"/>
<stop offset="0.4553" stop-color="#159043" stop-opacity="0.454902"/>
<stop offset="0.7642" stop-color="#06803F" stop-opacity="0.764706"/>
<stop offset="1" stop-color="#007A3E"/>
</linearGradient>
<linearGradient id="paint5_linear" x1="15.4776" y1="7.93654" x2="18.1375" y2="6.73097" gradientUnits="userSpaceOnUse">
<stop stop-color="#C08552"/>
<stop offset="1" stop-color="#895738"/>
</linearGradient>
<linearGradient id="paint6_linear" x1="22.8289" y1="11.6872" x2="17.0724" y2="6.71935" gradientUnits="userSpaceOnUse">
<stop stop-color="#FFB211" stop-opacity="0"/>
<stop offset="0.1722" stop-color="#FFAD13" stop-opacity="0.172549"/>
<stop offset="0.383" stop-color="#FF9E1A" stop-opacity="0.384314"/>
<stop offset="0.614" stop-color="#FF8525" stop-opacity="0.615686"/>
<stop offset="0.8577" stop-color="#FF6334" stop-opacity="0.858824"/>
<stop offset="1" stop-color="#FF4B3E"/>
</linearGradient>
<linearGradient id="paint7_linear" x1="24.5327" y1="20.0499" x2="34.9423" y2="10.1123" gradientUnits="userSpaceOnUse">
<stop stop-color="#FFB211" stop-opacity="0"/>
<stop offset="0.1722" stop-color="#FFAD13" stop-opacity="0.172549"/>
<stop offset="0.383" stop-color="#FF9E1A" stop-opacity="0.384314"/>
<stop offset="0.614" stop-color="#FF8525" stop-opacity="0.615686"/>
<stop offset="0.8577" stop-color="#FF6334" stop-opacity="0.858824"/>
<stop offset="1" stop-color="#FF4B3E"/>
</linearGradient>
<radialGradient id="paint8_radial" cx="0" cy="0" r="1" gradientUnits="userSpaceOnUse" gradientTransform="translate(17.8269 6.28415) rotate(-24.3814) scale(3.95956)">
<stop stop-color="#FFE548"/>
<stop offset="0.5071" stop-color="#FFE346"/>
<stop offset="0.6898" stop-color="#FFDD3F"/>
<stop offset="0.82" stop-color="#FFD234"/>
<stop offset="0.9245" stop-color="#FFC223"/>
<stop offset="1" stop-color="#FFB211"/>
</radialGradient>
<linearGradient id="paint9_linear" x1="20.8034" y1="21.6993" x2="6.92487" y2="19.3519" gradientUnits="userSpaceOnUse">
<stop offset="0.0013" stop-color="#E7EEED" stop-opacity="0"/>
<stop offset="0.7731" stop-color="#F9FBFA" stop-opacity="0.772549"/>
<stop offset="1" stop-color="white"/>
</linearGradient>
<linearGradient id="paint10_linear" x1="38.1504" y1="4.9875" x2="44.6555" y2="11.4926" gradientUnits="userSpaceOnUse">
<stop stop-color="#7AC943"/>
<stop offset="0.4564" stop-color="#5FC146"/>
<stop offset="1" stop-color="#39B54A"/>
</linearGradient>
<linearGradient id="paint11_linear" x1="43.6115" y1="10.5121" x2="40.6393" y2="7.53998" gradientUnits="userSpaceOnUse">
<stop stop-color="#39B54A" stop-opacity="0"/>
<stop offset="0.1072" stop-color="#2FAB48" stop-opacity="0.105882"/>
<stop offset="0.4553" stop-color="#159043" stop-opacity="0.454902"/>
<stop offset="0.7642" stop-color="#06803F" stop-opacity="0.764706"/>
<stop offset="1" stop-color="#007A3E"/>
</linearGradient>
<linearGradient id="paint12_linear" x1="39.0623" y1="3.72048" x2="40.9776" y2="12.12" gradientUnits="userSpaceOnUse">
<stop stop-color="#39B54A" stop-opacity="0"/>
<stop offset="0.1072" stop-color="#2FAB48" stop-opacity="0.105882"/>
<stop offset="0.4553" stop-color="#159043" stop-opacity="0.454902"/>
<stop offset="0.7642" stop-color="#06803F" stop-opacity="0.764706"/>
<stop offset="1" stop-color="#007A3E"/>
</linearGradient>
<linearGradient id="paint13_linear" x1="25.4597" y1="17.3188" x2="35.1747" y2="27.0338" gradientUnits="userSpaceOnUse">
<stop stop-color="#FFB211"/>
<stop offset="1" stop-color="#FF4B3E"/>
</linearGradient>
<linearGradient id="paint14_linear" x1="36.731" y1="16.3986" x2="36.7637" y2="9.49099" gradientUnits="userSpaceOnUse">
<stop stop-color="#FF4B3E" stop-opacity="0"/>
<stop offset="0.1177" stop-color="#F5493B" stop-opacity="0.117647"/>
<stop offset="0.3191" stop-color="#DA4332" stop-opacity="0.317647"/>
<stop offset="0.5796" stop-color="#AD3923" stop-opacity="0.580392"/>
<stop offset="0.886" stop-color="#702C0F" stop-opacity="0.886275"/>
<stop offset="1" stop-color="#582707"/>
</linearGradient>
<linearGradient id="paint15_linear" x1="33.9513" y1="17.6994" x2="32.8236" y2="18.8784" gradientUnits="userSpaceOnUse">
<stop stop-color="#FF4B3E" stop-opacity="0"/>
<stop offset="0.1177" stop-color="#F5493B" stop-opacity="0.117647"/>
<stop offset="0.3191" stop-color="#DA4332" stop-opacity="0.317647"/>
<stop offset="0.5796" stop-color="#AD3923" stop-opacity="0.580392"/>
<stop offset="0.886" stop-color="#702C0F" stop-opacity="0.886275"/>
<stop offset="1" stop-color="#582707"/>
</linearGradient>
<linearGradient id="paint16_linear" x1="27.0098" y1="22.8261" x2="25.8838" y2="24.0068" gradientUnits="userSpaceOnUse">
<stop stop-color="#FF4B3E" stop-opacity="0"/>
<stop offset="0.1177" stop-color="#F5493B" stop-opacity="0.117647"/>
<stop offset="0.3191" stop-color="#DA4332" stop-opacity="0.317647"/>
<stop offset="0.5796" stop-color="#AD3923" stop-opacity="0.580392"/>
<stop offset="0.886" stop-color="#702C0F" stop-opacity="0.886275"/>
<stop offset="1" stop-color="#582707"/>
</linearGradient>
<linearGradient id="paint17_linear" x1="34.552" y1="14.3553" x2="33.2322" y2="16.1407" gradientUnits="userSpaceOnUse">
<stop stop-color="#FF4B3E" stop-opacity="0"/>
<stop offset="0.1177" stop-color="#F5493B" stop-opacity="0.117647"/>
<stop offset="0.3191" stop-color="#DA4332" stop-opacity="0.317647"/>
<stop offset="0.5796" stop-color="#AD3923" stop-opacity="0.580392"/>
<stop offset="0.886" stop-color="#702C0F" stop-opacity="0.886275"/>
<stop offset="1" stop-color="#582707"/>
</linearGradient>
<linearGradient id="paint18_linear" x1="31.9245" y1="18.1564" x2="30.8771" y2="19.492" gradientUnits="userSpaceOnUse">
<stop stop-color="#FF4B3E" stop-opacity="0"/>
<stop offset="0.1177" stop-color="#F5493B" stop-opacity="0.117647"/>
<stop offset="0.3191" stop-color="#DA4332" stop-opacity="0.317647"/>
<stop offset="0.5796" stop-color="#AD3923" stop-opacity="0.580392"/>
<stop offset="0.886" stop-color="#702C0F" stop-opacity="0.886275"/>
<stop offset="1" stop-color="#582707"/>
</linearGradient>
<linearGradient id="paint19_linear" x1="27.8671" y1="21.7631" x2="26.7996" y2="23.0798" gradientUnits="userSpaceOnUse">
<stop stop-color="#FF4B3E" stop-opacity="0"/>
<stop offset="0.1177" stop-color="#F5493B" stop-opacity="0.117647"/>
<stop offset="0.3191" stop-color="#DA4332" stop-opacity="0.317647"/>
<stop offset="0.5796" stop-color="#AD3923" stop-opacity="0.580392"/>
<stop offset="0.886" stop-color="#702C0F" stop-opacity="0.886275"/>
<stop offset="1" stop-color="#582707"/>
</linearGradient>
<linearGradient id="paint20_linear" x1="25.3004" y1="25.3558" x2="24.2328" y2="26.6725" gradientUnits="userSpaceOnUse">
<stop stop-color="#FF4B3E" stop-opacity="0"/>
<stop offset="0.1177" stop-color="#F5493B" stop-opacity="0.117647"/>
<stop offset="0.3191" stop-color="#DA4332" stop-opacity="0.317647"/>
<stop offset="0.5796" stop-color="#AD3923" stop-opacity="0.580392"/>
<stop offset="0.886" stop-color="#702C0F" stop-opacity="0.886275"/>
<stop offset="1" stop-color="#582707"/>
</linearGradient>
<linearGradient id="paint21_linear" x1="29.5342" y1="20.5322" x2="28.5041" y2="21.8829" gradientUnits="userSpaceOnUse">
<stop stop-color="#FF4B3E" stop-opacity="0"/>
<stop offset="0.1177" stop-color="#F5493B" stop-opacity="0.117647"/>
<stop offset="0.3191" stop-color="#DA4332" stop-opacity="0.317647"/>
<stop offset="0.5796" stop-color="#AD3923" stop-opacity="0.580392"/>
<stop offset="0.886" stop-color="#702C0F" stop-opacity="0.886275"/>
<stop offset="1" stop-color="#582707"/>
</linearGradient>
<radialGradient id="paint22_radial" cx="0" cy="0" r="1" gradientUnits="userSpaceOnUse" gradientTransform="translate(40.0288 10.6108) scale(24.9881)">
<stop stop-color="#FF4B3E"/>
<stop offset="0.4462" stop-color="#FD4A3D"/>
<stop offset="0.6069" stop-color="#F64939"/>
<stop offset="0.7215" stop-color="#EB4533"/>
<stop offset="0.8141" stop-color="#DA412A"/>
<stop offset="0.8935" stop-color="#C43A1F"/>
<stop offset="0.9625" stop-color="#A93311"/>
<stop offset="1" stop-color="#972E07"/>
</radialGradient>
<linearGradient id="paint23_linear" x1="42.0657" y1="11.9095" x2="44.2108" y2="11.9389" gradientUnits="userSpaceOnUse">
<stop stop-color="#7AC943"/>
<stop offset="0.4564" stop-color="#5FC146"/>
<stop offset="1" stop-color="#39B54A"/>
</linearGradient>
<linearGradient id="paint24_linear" x1="41.4021" y1="17.273" x2="34.6853" y2="10.5562" gradientUnits="userSpaceOnUse">
<stop stop-color="#972E07" stop-opacity="0"/>
<stop offset="1" stop-color="#582707"/>
</linearGradient>
<linearGradient id="paint25_linear" x1="36.9117" y1="21.9106" x2="21.6589" y2="11.6297" gradientUnits="userSpaceOnUse">
<stop offset="0.0013" stop-color="#E7EEED" stop-opacity="0"/>
<stop offset="0.7731" stop-color="#F9FBFA" stop-opacity="0.772549"/>
<stop offset="1" stop-color="white"/>
</linearGradient>
<linearGradient id="paint26_linear" x1="47.3463" y1="23.3465" x2="41.057" y2="6.78655" gradientUnits="userSpaceOnUse">
<stop stop-color="#972E07" stop-opacity="0"/>
<stop offset="1" stop-color="#582707"/>
</linearGradient>
<linearGradient id="paint27_linear" x1="41.7322" y1="16.9463" x2="44.5883" y2="16.6006" gradientUnits="userSpaceOnUse">
<stop stop-color="#7AC943"/>
<stop offset="0.4564" stop-color="#5FC146"/>
<stop offset="1" stop-color="#39B54A"/>
</linearGradient>
<linearGradient id="paint28_linear" x1="38.2734" y1="13.193" x2="39.2126" y2="15.8993" gradientUnits="userSpaceOnUse">
<stop stop-color="#7AC943"/>
<stop offset="0.4564" stop-color="#5FC146"/>
<stop offset="1" stop-color="#39B54A"/>
</linearGradient>
<linearGradient id="paint29_linear" x1="47.1198" y1="13.1929" x2="46.1807" y2="15.8992" gradientUnits="userSpaceOnUse">
<stop stop-color="#7AC943"/>
<stop offset="0.4564" stop-color="#5FC146"/>
<stop offset="1" stop-color="#39B54A"/>
</linearGradient>
<linearGradient id="paint30_linear" x1="38.2993" y1="15.1896" x2="40.5434" y2="17.1901" gradientUnits="userSpaceOnUse">
<stop stop-color="#7AC943"/>
<stop offset="0.4564" stop-color="#5FC146"/>
<stop offset="1" stop-color="#39B54A"/>
</linearGradient>
<linearGradient id="paint31_linear" x1="47.2081" y1="15.3385" x2="44.9" y2="17.2647" gradientUnits="userSpaceOnUse">
<stop stop-color="#7AC943"/>
<stop offset="0.4564" stop-color="#5FC146"/>
<stop offset="1" stop-color="#39B54A"/>
</linearGradient>
<linearGradient id="paint32_linear" x1="11.4399" y1="13.222" x2="15.4415" y2="15.885" gradientUnits="userSpaceOnUse">
<stop stop-color="#7AC943"/>
<stop offset="0.4564" stop-color="#5FC146"/>
<stop offset="1" stop-color="#39B54A"/>
</linearGradient>
<linearGradient id="paint33_linear" x1="13.7658" y1="14.4453" x2="10.3353" y2="12.8086" gradientUnits="userSpaceOnUse">
<stop stop-color="#39B54A" stop-opacity="0"/>
<stop offset="0.1072" stop-color="#2FAB48" stop-opacity="0.105882"/>
<stop offset="0.4553" stop-color="#159043" stop-opacity="0.454902"/>
<stop offset="0.7642" stop-color="#06803F" stop-opacity="0.764706"/>
<stop offset="1" stop-color="#007A3E"/>
</linearGradient>
<linearGradient id="paint34_linear" x1="10.8671" y1="13.535" x2="11.8432" y2="14.2451" gradientUnits="userSpaceOnUse">
<stop stop-color="#39B54A" stop-opacity="0"/>
<stop offset="0.1072" stop-color="#2FAB48" stop-opacity="0.105882"/>
<stop offset="0.4553" stop-color="#159043" stop-opacity="0.454902"/>
<stop offset="0.7642" stop-color="#06803F" stop-opacity="0.764706"/>
<stop offset="1" stop-color="#007A3E"/>
</linearGradient>
<linearGradient id="paint35_linear" x1="6.7778" y1="17.5681" x2="9.08006" y2="16.7457" gradientUnits="userSpaceOnUse">
<stop stop-color="#C08552"/>
<stop offset="1" stop-color="#895738"/>
</linearGradient>
<linearGradient id="paint36_linear" x1="7.59711" y1="13.9263" x2="7.4845" y2="15.1261" gradientUnits="userSpaceOnUse">
<stop stop-color="#895738" stop-opacity="0"/>
<stop offset="1" stop-color="#5E3023"/>
</linearGradient>
<linearGradient id="paint37_linear" x1="7.85168" y1="17.7281" x2="8.24726" y2="16.5978" gradientUnits="userSpaceOnUse">
<stop stop-color="#895738" stop-opacity="0"/>
<stop offset="1" stop-color="#5E3023"/>
</linearGradient>
<linearGradient id="paint38_linear" x1="7.39655" y1="16.4371" x2="10.7179" y2="19.6428" gradientUnits="userSpaceOnUse">
<stop stop-color="#895738" stop-opacity="0"/>
<stop offset="1" stop-color="#5E3023"/>
</linearGradient>
<radialGradient id="paint39_radial" cx="0" cy="0" r="1" gradientUnits="userSpaceOnUse" gradientTransform="translate(18.6926 33.7884) rotate(-36.2717) scale(5.02609)">
<stop stop-color="#A4508B"/>
<stop offset="0.255" stop-color="#9E4A8D"/>
<stop offset="0.59" stop-color="#8E3A94"/>
<stop offset="0.9681" stop-color="#73209F"/>
<stop offset="1" stop-color="#701DA0"/>
</radialGradient>
<radialGradient id="paint40_radial" cx="0" cy="0" r="1" gradientUnits="userSpaceOnUse" gradientTransform="translate(19.0305 29.7944) rotate(-36.2717) scale(5.02611)">
<stop stop-color="#A4508B"/>
<stop offset="0.2732" stop-color="#9B478F"/>
<stop offset="0.7168" stop-color="#833098"/>
<stop offset="1" stop-color="#701DA0"/>
</radialGradient>
<radialGradient id="paint41_radial" cx="0" cy="0" r="1" gradientUnits="userSpaceOnUse" gradientTransform="translate(18.0614 25.1976) rotate(-36.2717) scale(5.02614)">
<stop stop-color="#A4508B"/>
<stop offset="0.2591" stop-color="#9F4B8D"/>
<stop offset="0.5684" stop-color="#903D93"/>
<stop offset="0.9021" stop-color="#78259D"/>
<stop offset="1" stop-color="#701DA0"/>
</radialGradient>
<radialGradient id="paint42_radial" cx="0" cy="0" r="1" gradientUnits="userSpaceOnUse" gradientTransform="translate(18.6302 19.8453) rotate(-36.2717) scale(5.02611)">
<stop stop-color="#A4508B"/>
<stop offset="0.328" stop-color="#A14D8C"/>
<stop offset="0.5737" stop-color="#974490"/>
<stop offset="0.7918" stop-color="#873497"/>
<stop offset="0.994" stop-color="#711EA0"/>
<stop offset="1" stop-color="#701DA0"/>
</radialGradient>
<linearGradient id="paint43_linear" x1="22.3165" y1="26.5986" x2="15.7858" y2="26.3836" gradientUnits="userSpaceOnUse">
<stop stop-color="#701DA0" stop-opacity="0"/>
<stop offset="1" stop-color="#2F004E"/>
</linearGradient>
<radialGradient id="paint44_radial" cx="0" cy="0" r="1" gradientUnits="userSpaceOnUse" gradientTransform="translate(14.6523 32.0056) rotate(-36.2717) scale(5.02611)">
<stop stop-color="#A4508B"/>
<stop offset="0.2561" stop-color="#9D498E"/>
<stop offset="0.6193" stop-color="#8B3795"/>
<stop offset="1" stop-color="#701DA0"/>
</radialGradient>
<linearGradient id="paint45_linear" x1="17.445" y1="32.2785" x2="12.5341" y2="29.5065" gradientUnits="userSpaceOnUse">
<stop stop-color="#701DA0" stop-opacity="0"/>
<stop offset="1" stop-color="#2F004E"/>
</linearGradient>
<radialGradient id="paint46_radial" cx="0" cy="0" r="1" gradientUnits="userSpaceOnUse" gradientTransform="translate(14.1433 26.9783) rotate(-36.2717) scale(5.02611)">
<stop stop-color="#A4508B"/>
<stop offset="0.2581" stop-color="#9F4B8D"/>
<stop offset="0.571" stop-color="#903C93"/>
<stop offset="0.9111" stop-color="#78249D"/>
<stop offset="1" stop-color="#701DA0"/>
</radialGradient>
<radialGradient id="paint47_radial" cx="0" cy="0" r="1" gradientUnits="userSpaceOnUse" gradientTransform="translate(14.2277 21.696) rotate(-36.2717) scale(5.0261)">
<stop stop-color="#A4508B"/>
<stop offset="0.328" stop-color="#A14D8C"/>
<stop offset="0.5737" stop-color="#974490"/>
<stop offset="0.7918" stop-color="#873497"/>
<stop offset="0.994" stop-color="#711EA0"/>
<stop offset="1" stop-color="#701DA0"/>
</radialGradient>
<radialGradient id="paint48_radial" cx="0" cy="0" r="1" gradientUnits="userSpaceOnUse" gradientTransform="translate(14.5143 17.5504) rotate(-36.2717) scale(5.0261)">
<stop stop-color="#A4508B"/>
<stop offset="0.328" stop-color="#A14D8C"/>
<stop offset="0.5737" stop-color="#974490"/>
<stop offset="0.7918" stop-color="#873497"/>
<stop offset="0.994" stop-color="#711EA0"/>
<stop offset="1" stop-color="#701DA0"/>
</radialGradient>
<linearGradient id="paint49_linear" x1="17.2517" y1="24.6199" x2="8.98991" y2="23.3515" gradientUnits="userSpaceOnUse">
<stop stop-color="#701DA0" stop-opacity="0"/>
<stop offset="1" stop-color="#2F004E"/>
</linearGradient>
<radialGradient id="paint50_radial" cx="0" cy="0" r="1" gradientUnits="userSpaceOnUse" gradientTransform="translate(10.3333 30.5746) rotate(-36.2716) scale(5.02612)">
<stop stop-color="#A4508B"/>
<stop offset="0.328" stop-color="#A14D8C"/>
<stop offset="0.5737" stop-color="#974490"/>
<stop offset="0.7918" stop-color="#873497"/>
<stop offset="0.994" stop-color="#711EA0"/>
<stop offset="1" stop-color="#701DA0"/>
</radialGradient>
<linearGradient id="paint51_linear" x1="13.4523" y1="30.4128" x2="4.06918" y2="27.6959" gradientUnits="userSpaceOnUse">
<stop stop-color="#701DA0" stop-opacity="0"/>
<stop offset="1" stop-color="#2F004E"/>
</linearGradient>
<radialGradient id="paint52_radial" cx="0" cy="0" r="1" gradientUnits="userSpaceOnUse" gradientTransform="translate(10.2866 25.2153) rotate(-36.2717) scale(5.02613)">
<stop stop-color="#A4508B"/>
<stop offset="0.328" stop-color="#A14D8C"/>
<stop offset="0.5737" stop-color="#974490"/>
<stop offset="0.7918" stop-color="#873497"/>
<stop offset="0.994" stop-color="#711EA0"/>
<stop offset="1" stop-color="#701DA0"/>
</radialGradient>
<radialGradient id="paint53_radial" cx="0" cy="0" r="1" gradientUnits="userSpaceOnUse" gradientTransform="translate(6.67191 28.665) rotate(-36.2717) scale(5.02612)">
<stop stop-color="#A4508B"/>
<stop offset="0.328" stop-color="#A14D8C"/>
<stop offset="0.5737" stop-color="#974490"/>
<stop offset="0.7918" stop-color="#873497"/>
<stop offset="0.994" stop-color="#711EA0"/>
<stop offset="1" stop-color="#701DA0"/>
</radialGradient>
<radialGradient id="paint54_radial" cx="0" cy="0" r="1" gradientUnits="userSpaceOnUse" gradientTransform="translate(9.9028 20.241) rotate(-36.2717) scale(5.0261)">
<stop stop-color="#A4508B"/>
<stop offset="0.328" stop-color="#A14D8C"/>
<stop offset="0.5737" stop-color="#974490"/>
<stop offset="0.7918" stop-color="#873497"/>
<stop offset="0.994" stop-color="#711EA0"/>
<stop offset="1" stop-color="#701DA0"/>
</radialGradient>
<radialGradient id="paint55_radial" cx="0" cy="0" r="1" gradientUnits="userSpaceOnUse" gradientTransform="translate(5.94785 23.6131) rotate(-36.2717) scale(5.02614)">
<stop stop-color="#A4508B"/>
<stop offset="0.328" stop-color="#A14D8C"/>
<stop offset="0.5737" stop-color="#974490"/>
<stop offset="0.7918" stop-color="#873497"/>
<stop offset="0.994" stop-color="#711EA0"/>
<stop offset="1" stop-color="#701DA0"/>
</radialGradient>
<linearGradient id="paint56_linear" x1="29.9583" y1="34.833" x2="40.8219" y2="65.9195" gradientUnits="userSpaceOnUse">
<stop stop-color="#C08552"/>
<stop offset="1" stop-color="#895738"/>
</linearGradient>
<linearGradient id="paint57_linear" x1="34.998" y1="37.7066" x2="34.998" y2="87.8526" gradientUnits="userSpaceOnUse">
<stop stop-color="#895738" stop-opacity="0"/>
<stop offset="1" stop-color="#5E3023"/>
</linearGradient>
<linearGradient id="paint58_linear" x1="37.1498" y1="41.1993" x2="37.1498" y2="76.6261" gradientUnits="userSpaceOnUse">
<stop stop-color="#895738" stop-opacity="0"/>
<stop offset="1" stop-color="#5E3023"/>
</linearGradient>
<linearGradient id="paint59_linear" x1="39.3328" y1="33.2159" x2="39.3328" y2="73.258" gradientUnits="userSpaceOnUse">
<stop stop-color="#895738" stop-opacity="0"/>
<stop offset="1" stop-color="#5E3023"/>
</linearGradient>
<linearGradient id="paint60_linear" x1="43.2187" y1="31.22" x2="43.2187" y2="80.3681" gradientUnits="userSpaceOnUse">
<stop stop-color="#895738" stop-opacity="0"/>
<stop offset="1" stop-color="#5E3023"/>
</linearGradient>
<linearGradient id="paint61_linear" x1="24.7678" y1="37.7066" x2="24.7678" y2="87.8526" gradientUnits="userSpaceOnUse">
<stop stop-color="#895738" stop-opacity="0"/>
<stop offset="1" stop-color="#5E3023"/>
</linearGradient>
<linearGradient id="paint62_linear" x1="22.616" y1="41.1993" x2="22.616" y2="76.6261" gradientUnits="userSpaceOnUse">
<stop stop-color="#895738" stop-opacity="0"/>
<stop offset="1" stop-color="#5E3023"/>
</linearGradient>
<linearGradient id="paint63_linear" x1="20.433" y1="33.2159" x2="20.433" y2="73.258" gradientUnits="userSpaceOnUse">
<stop stop-color="#895738" stop-opacity="0"/>
<stop offset="1" stop-color="#5E3023"/>
</linearGradient>
<linearGradient id="paint64_linear" x1="16.547" y1="31.22" x2="16.547" y2="80.3681" gradientUnits="userSpaceOnUse">
<stop stop-color="#895738" stop-opacity="0"/>
<stop offset="1" stop-color="#5E3023"/>
</linearGradient>
<linearGradient id="paint65_linear" x1="29.883" y1="53.3065" x2="29.883" y2="20.1045" gradientUnits="userSpaceOnUse">
<stop stop-color="#895738" stop-opacity="0"/>
<stop offset="1" stop-color="#5E3023"/>
</linearGradient>
<linearGradient id="paint66_linear" x1="29.8829" y1="24.8472" x2="29.8829" y2="32.7644" gradientUnits="userSpaceOnUse">
<stop stop-color="#FFE548"/>
<stop offset="0.2472" stop-color="#FFE042"/>
<stop offset="0.5621" stop-color="#FFD133"/>
<stop offset="0.9123" stop-color="#FFB919"/>
<stop offset="1" stop-color="#FFB211"/>
</linearGradient>
<clipPath id="clip0">
</clipPath>
</defs>
</svg>
