<svg width="92" height="88" viewBox="0 0 92 88" fill="none" xmlns="http://www.w3.org/2000/svg">
<path d="M75.6772 78.9155H78.645V81.734H75.6772V78.9155Z" fill="#274B89"/>
<path d="M69.7422 78.9155H72.7099V81.734H69.7422V78.9155Z" fill="#274B89"/>
<path d="M63.8062 78.9155H66.7739V81.734H63.8062V78.9155Z" fill="#274B89"/>
<path d="M63.8062 73.2786H78.6448V76.0971H63.8062V73.2786Z" fill="#274B89"/>
<path d="M92 15.5013C92 13.1704 90.0027 11.2736 87.5484 11.2736V8.45523C90.0027 8.45523 92 6.55844 92 4.22762C92 1.89679 90.0027 0 87.5484 0H63.8065C61.3521 0 59.3548 1.89679 59.3548 4.22762C59.3548 6.55844 61.3521 8.45523 63.8065 8.45523V11.2736C61.8745 11.2736 60.2422 12.456 59.6279 14.0921H57.871C53.7799 14.0921 50.4516 17.2529 50.4516 21.1381V50.7314H47.4839V21.1381C47.4839 17.2529 44.1555 14.0921 40.0645 14.0921H38.5806V4.22762C38.5806 1.89679 36.5834 0 34.129 0H4.45161C1.99729 0 0 1.89679 0 4.22762V23.9565C0 26.2873 1.99729 28.1841 4.45161 28.1841H34.129C36.5834 28.1841 38.5806 26.2873 38.5806 23.9565V16.9105H40.0645C42.5188 16.9105 44.5161 18.8073 44.5161 21.1381V50.7314H41.5484V43.6854C41.5484 39.8002 38.2201 36.6393 34.129 36.6393H29.5275C28.8375 33.4278 25.8416 31.0025 22.2581 31.0025H10.3871C6.29606 31.0025 2.96774 34.1634 2.96774 38.0485C2.96774 41.9337 6.29606 45.0946 10.3871 45.0946H29.6774V39.4577H34.129C36.5834 39.4577 38.5806 41.3545 38.5806 43.6854V50.7314H7.98619L0.566839 64.8234H7.41935V87.3707H84.5806V64.8234H91.4332L84.0138 50.7314H59.3548V46.5038C59.3548 44.1729 61.3521 42.2762 63.8065 42.2762H65.4402C66.1302 45.4877 69.1261 47.913 72.7097 47.913C76.8007 47.913 80.129 44.7521 80.129 40.867C80.129 36.9818 76.8007 33.8209 72.7097 33.8209C69.1276 33.8209 66.1302 36.2462 65.4402 39.4577H63.8065C59.7154 39.4577 56.3871 42.6186 56.3871 46.5038V50.7314H53.4194V21.1381C53.4194 18.8073 55.4166 16.9105 57.871 16.9105H59.6279C60.2422 18.5465 61.8745 19.7289 63.8065 19.7289V22.5473C61.3521 22.5473 59.3548 24.4441 59.3548 26.7749C59.3548 29.1057 61.3521 31.0025 63.8065 31.0025H87.5484C90.0027 31.0025 92 29.1057 92 26.7749C92 24.4441 90.0027 22.5473 87.5484 22.5473V19.7289C90.0027 19.7289 92 17.8321 92 15.5013ZM35.6129 23.9565C35.6129 24.7344 34.9481 25.3657 34.129 25.3657H4.45161C3.63252 25.3657 2.96774 24.7344 2.96774 23.9565V4.22762C2.96774 3.44973 3.63252 2.81841 4.45161 2.81841H34.129C34.9481 2.81841 35.6129 3.44973 35.6129 4.22762V23.9565ZM26.7097 42.2762H10.3871C7.93277 42.2762 5.93548 40.3794 5.93548 38.0485C5.93548 35.7177 7.93277 33.8209 10.3871 33.8209H22.2581C24.7124 33.8209 26.7097 35.7177 26.7097 38.0485V42.2762ZM72.7097 36.6393C75.164 36.6393 77.1613 38.5361 77.1613 40.867C77.1613 43.1978 75.164 45.0946 72.7097 45.0946C70.2554 45.0946 68.2581 43.1978 68.2581 40.867C68.2581 38.5361 70.2554 36.6393 72.7097 36.6393ZM9.82026 53.5498H31.7281L27.2765 62.005H5.36865L9.82026 53.5498ZM10.3871 64.8234H29.1106L34.129 55.2916V84.5523H10.3871V64.8234ZM81.6129 84.5523H37.0968V55.2916L42.1152 64.8234H81.6129V84.5523ZM86.6314 62.005H43.9493L39.4977 53.5498H82.1797L86.6314 62.005ZM62.3226 4.22762C62.3226 3.44973 62.9874 2.81841 63.8065 2.81841H87.5484C88.3675 2.81841 89.0323 3.44973 89.0323 4.22762C89.0323 5.0055 88.3675 5.63682 87.5484 5.63682H63.8065C62.9874 5.63682 62.3226 5.0055 62.3226 4.22762ZM66.7742 8.45523H84.5806V11.2736H66.7742V8.45523ZM62.3226 15.5013C62.3226 14.7234 62.9874 14.0921 63.8065 14.0921H87.5484C88.3675 14.0921 89.0323 14.7234 89.0323 15.5013C89.0323 16.2791 88.3675 16.9105 87.5484 16.9105H63.8065C62.9874 16.9105 62.3226 16.2791 62.3226 15.5013ZM89.0323 26.7749C89.0323 27.5528 88.3675 28.1841 87.5484 28.1841H63.8065C62.9874 28.1841 62.3226 27.5528 62.3226 26.7749C62.3226 25.997 62.9874 25.3657 63.8065 25.3657H87.5484C88.3675 25.3657 89.0323 25.997 89.0323 26.7749ZM84.5806 22.5473H66.7742V19.7289H84.5806V22.5473Z" fill="#274B89"/>
<path d="M23.742 8.45526H17.8065V11.2737H11.871V14.0921H5.93555V22.5474H32.6452V5.63684H23.742V8.45526ZM17.8065 14.0921V19.7289H14.8388V14.0921H17.8065ZM8.90329 16.9105H11.871V19.7289H8.90329V16.9105ZM20.7743 19.7289V11.2737H23.742V19.7289H20.7743ZM26.7097 8.45526H29.6775V19.7289H26.7097V8.45526Z" fill="#274B89"/>
<path d="M8.90308 36.6394H11.8708V39.4579H8.90308V36.6394Z" fill="#274B89"/>
<path d="M14.8386 36.6394H17.8064V39.4579H14.8386V36.6394Z" fill="#274B89"/>
<path d="M20.7742 36.6394H23.7419V39.4579H20.7742V36.6394Z" fill="#274B89"/>
<path d="M77.1614 56.3682H80.1291V59.1867H77.1614V56.3682Z" fill="#274B89"/>
<path d="M71.2258 56.3682H74.1936V59.1867H71.2258V56.3682Z" fill="#274B89"/>
<path d="M65.2905 56.3682H68.2583V59.1867H65.2905V56.3682Z" fill="#274B89"/>
<path d="M13.355 67.6419H16.3227V70.4602H13.355V67.6419Z" fill="#274B89"/>
<path d="M13.355 73.2786H16.3227V76.0971H13.355V73.2786Z" fill="#274B89"/>
<path d="M13.355 78.9155H16.3227V81.734H13.355V78.9155Z" fill="#274B89"/>
</svg>
