<svg width="96" height="76" viewBox="0 0 96 76" fill="none" xmlns="http://www.w3.org/2000/svg">
<path d="M94.7319 60.7869H81.9628C81.3651 60.7869 80.8809 60.3026 80.8809 59.705C80.8809 59.1073 81.3651 58.623 81.9628 58.623H94.7319C95.3295 58.623 95.8138 59.1073 95.8138 59.705C95.8138 60.3026 95.3295 60.7869 94.7319 60.7869Z" fill="#EBE7F2"/>
<path d="M81.9629 63.6807H65.1656C64.568 63.6807 64.0837 63.1964 64.0837 62.5988C64.0837 62.0011 64.568 61.5168 65.1656 61.5168H81.9629C82.5606 61.5168 83.0449 62.0011 83.0449 62.5988C83.0449 63.196 82.5606 63.6807 81.9629 63.6807Z" fill="#EBE7F2"/>
<path d="M13.8506 60.7869H1.08191C0.484263 60.7869 0 60.3026 0 59.705C0 59.1073 0.484263 58.623 1.08191 58.623H13.8506C14.4483 58.623 14.9325 59.1073 14.9325 59.705C14.9325 60.3026 14.4483 60.7869 13.8506 60.7869Z" fill="#EBE7F2"/>
<path d="M30.6484 63.6807H13.8507C13.2531 63.6807 12.7688 63.1964 12.7688 62.5988C12.7688 62.0011 13.2531 61.5168 13.8507 61.5168H30.6484C31.2461 61.5168 31.7303 62.0011 31.7303 62.5988C31.7303 63.196 31.2461 63.6807 30.6484 63.6807Z" fill="#EBE7F2"/>
<path d="M65.0919 67.1333H30.7218C30.1242 67.1333 29.6399 66.649 29.6399 66.0514C29.6399 65.4537 30.1242 64.9695 30.7218 64.9695H65.0919C65.6896 64.9695 66.1738 65.4537 66.1738 66.0514C66.1738 66.649 65.6896 67.1333 65.0919 67.1333Z" fill="#EBE7F2"/>
<path d="M90.4772 48.9088C91.2735 47.8286 91.7223 46.5048 91.7223 45.1048C91.7223 41.5682 88.8457 38.6917 85.3096 38.6917C81.7731 38.6917 78.8965 41.5687 78.8965 45.1048C78.8965 47.5179 80.2298 49.7033 82.3763 50.809C82.9073 51.0821 83.5599 50.874 83.8335 50.3425C84.107 49.8111 83.8979 49.1589 83.3669 48.8854C81.944 48.1527 81.0603 46.7043 81.0603 45.1052C81.0603 42.7622 82.9666 40.8559 85.3096 40.8559C87.6526 40.8559 89.5585 42.7622 89.5585 45.1052C89.5585 46.7043 88.6748 48.1527 87.2519 48.8854C86.8078 49.1139 86.578 49.6168 86.6958 50.1019C86.813 50.587 87.2475 50.9289 87.7474 50.9289H89.0907C91.605 50.9289 93.6503 52.9742 93.6503 55.4881V63.1471H84.7024C84.1048 63.1471 83.6205 63.6314 83.6205 64.229C83.6205 64.8267 84.1048 65.311 84.7024 65.311H94.7322C95.3298 65.311 95.8141 64.8267 95.8141 64.229V55.4881C95.8141 52.2562 93.5213 49.5493 90.4772 48.9088Z" fill="#274B89"/>
<path d="M75.362 48.031C76.6685 46.528 77.4167 44.5844 77.4167 42.5137C77.4167 37.8731 73.6413 34.0981 69.0012 34.0981C64.3607 34.0981 60.5857 37.8736 60.5857 42.5137C60.5857 45.6798 62.3354 48.5481 65.1522 49.9992C65.6828 50.2727 66.3358 50.0641 66.6093 49.5327C66.8828 49.0012 66.6738 48.3495 66.1428 48.0756C64.05 46.9975 62.7495 44.8662 62.7495 42.5137C62.7495 39.0663 65.5538 36.262 69.0012 36.262C72.4486 36.262 75.2529 39.0663 75.2529 42.5137C75.2529 44.8662 73.9525 46.9971 71.8592 48.0756C71.4152 48.3041 71.1854 48.8069 71.3031 49.2925C71.4204 49.7776 71.8549 50.1195 72.3547 50.1195H74.2026C77.885 50.1195 80.881 53.1155 80.881 56.7979V67.7399H67.9769C67.3792 67.7399 66.895 68.2242 66.895 68.8218C66.895 69.4195 67.3792 69.9037 67.9769 69.9037H81.9629C82.5606 69.9037 83.0448 69.4195 83.0448 68.8218V56.7979C83.0448 52.3149 79.6918 48.6005 75.362 48.031Z" fill="#274B89"/>
<path d="M12.4477 48.8849C11.9163 49.1584 11.7077 49.811 11.9812 50.342C12.2547 50.873 12.9069 51.0816 13.4383 50.8086C15.5848 49.7028 16.9186 47.5174 16.9186 45.1043C16.9186 41.5677 14.0416 38.6912 10.5055 38.6912C6.96934 38.6912 4.09233 41.5682 4.09233 45.1043C4.09233 46.5043 4.5411 47.8281 5.33739 48.9083C2.29289 49.5488 0.000976562 52.2557 0.000976562 55.4876V64.2286C0.000976562 64.8262 0.485239 65.3105 1.08289 65.3105H11.1122C11.7098 65.3105 12.1941 64.8262 12.1941 64.2286C12.1941 63.6309 11.7098 63.1466 11.1122 63.1466H2.16393V55.4876C2.16393 52.9732 4.20917 50.9284 6.7231 50.9284H8.0664C8.56581 50.9284 9.0003 50.5865 9.11801 50.1014C9.23572 49.6163 9.00593 49.1134 8.56191 48.8849C7.13898 48.1522 6.25528 46.7033 6.25528 45.1047C6.25528 42.7617 8.16161 40.8554 10.5046 40.8554C12.848 40.8554 14.7539 42.7617 14.7539 45.1047C14.7543 46.7038 13.8706 48.1522 12.4477 48.8849Z" fill="#274B89"/>
<path d="M30.6623 49.9992C33.4788 48.5477 35.2289 45.6802 35.2289 42.5137C35.2289 37.8731 31.4534 34.0981 26.8133 34.0981C22.1728 34.0981 18.3974 37.8736 18.3974 42.5137C18.3974 44.5844 19.1461 46.528 20.4521 48.031C16.1223 48.6005 12.7693 52.3145 12.7693 56.7975V68.8214C12.7693 69.419 13.2535 69.9033 13.8512 69.9033H27.8377C28.4353 69.9033 28.9196 69.419 28.9196 68.8214C28.9196 68.2237 28.4353 67.7395 27.8377 67.7395H14.9327V56.7975C14.9327 53.1151 17.9283 50.1191 21.6111 50.1191H23.4594C23.9588 50.1191 24.3933 49.7772 24.511 49.2921C24.6287 48.8069 24.3989 48.3041 23.9549 48.0751C21.8617 46.9971 20.5612 44.8657 20.5612 42.5132C20.5612 39.0658 23.3659 36.2615 26.8133 36.2615C30.2607 36.2615 33.065 39.0658 33.065 42.5132C33.065 44.8657 31.7646 46.9967 29.6713 48.0751C29.1403 48.3491 28.9313 49.0012 29.2048 49.5322C29.4783 50.0637 30.1305 50.2723 30.6623 49.9992Z" fill="#274B89"/>
<path d="M55.5999 47.018C57.5685 45.029 58.7119 42.3234 58.7119 39.4234C58.7119 33.4651 53.8649 28.6182 47.9066 28.6182C41.9487 28.6182 37.1018 33.4651 37.1018 39.4234C37.1018 42.3234 38.2456 45.029 40.2138 47.018C34.3139 47.4278 29.6396 52.3587 29.6396 58.3607V74.302C29.6396 74.8997 30.1239 75.3839 30.7216 75.3839H65.0917C65.6893 75.3839 66.1736 74.8997 66.1736 74.302V58.3607C66.174 52.3583 61.4997 47.4278 55.5999 47.018ZM64.0102 73.2201H31.8039V58.3607C31.8039 53.2844 35.9342 49.1545 41.0105 49.1545H43.4608C43.9602 49.1545 44.3947 48.8127 44.5124 48.3275C44.6302 47.8424 44.4004 47.3395 43.9563 47.111C41.0633 45.6206 39.266 42.6752 39.266 39.4238C39.266 34.6587 43.1423 30.7824 47.907 30.7824C52.6722 30.7824 56.5485 34.6587 56.5485 39.4238C56.5485 42.6752 54.7512 45.6206 51.8582 47.111C51.4142 47.3395 51.1844 47.8424 51.3021 48.3275C51.4194 48.8127 51.8538 49.1545 52.3537 49.1545H54.804C59.8808 49.1545 64.0106 53.2844 64.0106 58.3607V73.2201H64.0102Z" fill="#274B89"/>
<path d="M76.5287 11.0831C76.006 10.6304 63.5467 0 47.907 0C32.2678 0 19.8086 10.6308 19.2858 11.0831C19.0482 11.2882 18.9119 11.5868 18.9119 11.9006C18.9119 12.2148 19.0482 12.5129 19.2858 12.7185C19.8086 13.1712 32.2678 23.8016 47.907 23.8016C63.5467 23.8016 76.006 13.1712 76.5287 12.7185C76.7659 12.5129 76.9022 12.2148 76.9022 11.9006C76.9022 11.5868 76.7659 11.2882 76.5287 11.0831ZM57.6442 11.9006C57.6442 17.2694 53.2759 21.6378 47.907 21.6378C42.5377 21.6378 38.1699 17.2694 38.1699 11.9006C38.1699 6.5317 42.5377 2.16339 47.907 2.16339C53.2759 2.16339 57.6442 6.5317 57.6442 11.9006ZM21.73 11.9006C24.2465 9.98256 31.1478 5.20702 39.8598 3.14187C37.4926 5.31867 36.006 8.4389 36.006 11.9006C36.006 15.3623 37.4926 18.4825 39.8598 20.6593C31.1478 18.5946 24.2465 13.819 21.73 11.9006ZM55.9538 20.6593C58.3211 18.4825 59.808 15.3623 59.808 11.9006C59.808 8.4389 58.3211 5.31867 55.9538 3.14187C64.6658 5.20658 71.5675 9.98213 74.0841 11.9006C71.5675 13.819 64.6658 18.5946 55.9538 20.6593Z" fill="#274B89"/>
<path d="M47.907 18.9666C44.0109 18.9666 40.8413 15.7966 40.8413 11.9005C40.8413 8.00428 44.0109 4.83472 47.907 4.83472C51.8032 4.83472 54.9728 8.00428 54.9728 11.9005C54.9728 15.7966 51.8032 18.9666 47.907 18.9666ZM47.907 6.99854C45.204 6.99854 43.0051 9.19741 43.0051 11.9005C43.0051 14.6035 45.2044 16.8028 47.907 16.8028C50.6101 16.8028 52.809 14.6035 52.809 11.9005C52.809 9.19741 50.6101 6.99854 47.907 6.99854Z" fill="#EBE7F2"/>
</svg>
