<svg width="93" height="88" viewBox="0 0 93 88" fill="none" xmlns="http://www.w3.org/2000/svg">
<path d="M88.1789 45.4194H77.717V38.3226C77.717 35.975 75.7054 34.0645 73.2334 34.0645H71.7388V0H20.3051L0 19.2834V88H34.3748H40.3531H88.1789C90.6509 88 92.6626 86.0895 92.6626 83.7419V49.6774C92.6626 47.3298 90.6509 45.4194 88.1789 45.4194ZM77.717 48.2581H88.1789C88.6512 48.2581 89.0548 48.4795 89.3283 48.8045L81.1889 68.129H67.2551V65.2903H55.2987V68.129H41.3649L33.2255 48.8045C33.499 48.4795 33.9026 48.2581 34.3748 48.2581H44.8368H50.815H71.7388H77.717ZM64.266 68.129V70.9677H58.2878V68.129H64.266ZM53.8041 45.4194V42.5806H68.7497V45.4194H53.8041ZM73.2334 36.9032C74.0584 36.9032 74.7279 37.5391 74.7279 38.3226V45.4194H71.7388V39.7419H50.815V45.4194H47.8259V38.3226C47.8259 37.5391 48.4954 36.9032 49.3204 36.9032H73.2334ZM19.4293 4.84568V18.4516H5.10242L19.4293 4.84568ZM30.1662 85.1613H2.98912V21.2903H5.97823V31.2258H62.7715V19.6098C64.5066 19.0222 65.7606 17.4609 65.7606 15.6129C65.7606 14.5186 65.3107 13.5293 64.5948 12.7742C65.3107 12.0191 65.7606 11.0298 65.7606 9.93548C65.7606 7.58787 63.7489 5.67742 61.2769 5.67742H53.8041V11.3548V14.1935V19.871H59.7823V28.3871H8.96735V21.2903H22.4184V2.83871H68.7497V34.0645H49.3204C46.8484 34.0645 44.8368 35.975 44.8368 38.3226V45.4194H34.3748C31.9028 45.4194 29.8912 47.3298 29.8912 49.6774V83.7419C29.8912 84.2415 29.9988 84.7156 30.1662 85.1613ZM61.2769 14.1935C62.1019 14.1935 62.7715 14.8294 62.7715 15.6129C62.7715 16.3964 62.1019 17.0323 61.2769 17.0323H56.7932V14.1935H61.2769ZM56.7932 11.3548V8.51613H61.2769C62.1019 8.51613 62.7715 9.152 62.7715 9.93548C62.7715 10.719 62.1019 11.3548 61.2769 11.3548H56.7932ZM89.6735 83.7419C89.6735 84.5254 89.0039 85.1613 88.1789 85.1613H40.3531H34.3748C33.5498 85.1613 32.8803 84.5254 32.8803 83.7419V55.6288L39.3413 70.9677H55.2987V73.8064H67.2551V70.9677H83.2125L89.6735 55.6288V83.7419Z" fill="#274B89"/>
<path d="M8.96738 34.0646H5.97827V36.9033H8.96738V34.0646Z" fill="#274B89"/>
<path d="M41.8477 34.0646H11.9565V36.9033H41.8477V34.0646Z" fill="#274B89"/>
<path d="M41.8477 39.7421H5.97827V42.5807H41.8477V39.7421Z" fill="#274B89"/>
<path d="M26.9021 45.4194H5.97827V48.258H26.9021V45.4194Z" fill="#274B89"/>
<path d="M26.9021 51.0968H5.97827V53.9355H26.9021V51.0968Z" fill="#274B89"/>
<path d="M26.9021 56.7742H5.97827V59.6129H26.9021V56.7742Z" fill="#274B89"/>
<path d="M26.9021 62.4517H14.9456V65.2903H26.9021V62.4517Z" fill="#274B89"/>
<path d="M11.9565 62.4517H5.97827V65.2903H11.9565V62.4517Z" fill="#274B89"/>
<path d="M26.9021 68.1291H5.97827V70.9677H26.9021V68.1291Z" fill="#274B89"/>
<path d="M26.9021 73.8064H5.97827V76.6451H26.9021V73.8064Z" fill="#274B89"/>
<path d="M20.9239 79.4839H5.97827V82.3227H20.9239V79.4839Z" fill="#274B89"/>
<path d="M26.9022 79.4839H23.9131V82.3227H26.9022V79.4839Z" fill="#274B89"/>
<path d="M26.9022 8.51616H29.8913V15.613C29.8913 16.3965 29.2218 17.0323 28.3968 17.0323C27.5718 17.0323 26.9022 16.3965 26.9022 15.613V14.1936H23.9131V15.613C23.9131 17.9606 25.9248 19.8711 28.3968 19.8711C30.8688 19.8711 32.8805 17.9606 32.8805 15.613V8.51616H35.8696V5.67743H26.9022V8.51616Z" fill="#274B89"/>
<path d="M44.8369 5.67743C41.5399 5.67743 38.8586 8.22377 38.8586 11.3549V14.1936C38.8586 17.3247 41.5399 19.8711 44.8369 19.8711C48.1339 19.8711 50.8151 17.3247 50.8151 14.1936V11.3549C50.8151 8.22377 48.1339 5.67743 44.8369 5.67743ZM47.826 14.1936C47.826 15.7592 46.4854 17.0323 44.8369 17.0323C43.1884 17.0323 41.8478 15.7592 41.8478 14.1936V11.3549C41.8478 9.78933 43.1884 8.51616 44.8369 8.51616C46.4854 8.51616 47.826 9.78933 47.826 11.3549V14.1936Z" fill="#274B89"/>
</svg>
