<svg width="76" height="74" viewBox="0 0 76 74" fill="none" xmlns="http://www.w3.org/2000/svg">
<path d="M30.8648 10.8436C29.7416 8.366 26.8228 7.26721 24.3445 8.39035L22.0038 9.45145C19.5255 10.5746 18.4273 13.494 19.5505 15.9717V15.9723C20.3385 17.7112 20.4127 19.6965 19.7262 21.4784C18.628 24.3288 18.6245 27.5991 19.9743 30.6038C22.652 36.5656 28.8707 37.3786 34.8291 34.6916C40.8124 31.9937 44.314 26.8204 41.6056 20.8446C40.2488 17.8503 37.8025 15.6928 34.948 14.627C33.1389 13.9521 31.662 12.6023 30.8648 10.8436Z" fill="url(#paint0_radial)"/>
<path d="M33.312 13.7708L24.7942 10.5684L24.3936 10.4176L24.3535 10.4124L24.3124 10.4078C24.3112 10.4002 24.3101 10.3921 24.3083 10.3846C24.1895 10.3074 23.8503 10.0772 23.4565 9.71079C23.5041 9.69572 23.5511 9.6789 23.5945 9.65919C24.0839 9.43769 24.5136 8.80509 25.0047 8.1464C26.779 7.62861 28.6733 8.15974 29.9223 9.45392C30.3044 9.84879 30.6256 10.3144 30.8651 10.8432C31.4049 12.0342 32.2567 13.0379 33.312 13.7708Z" fill="url(#paint1_linear)"/>
<path d="M23.9394 9.86084C23.9394 9.86084 17.2603 5.81592 25.3838 0.138184C25.7224 -0.0989679 26.188 -0.0230096 26.4385 0.305756C27.6434 1.88812 30.3153 6.48157 23.9394 9.86084Z" fill="url(#paint2_linear)"/>
<path d="M26.4384 0.304932C26.2998 0.122864 26.0945 0.0184936 25.8817 0.00167847C24.3945 4.54004 23.9387 9.86002 23.9387 9.86002C30.3152 6.48074 27.6433 1.8873 26.4384 0.304932Z" fill="url(#paint3_linear)"/>
<path d="M25.9595 3.14459C25.9015 3.19968 25.8401 3.25128 25.7798 3.30289C25.7195 3.35449 25.6597 3.4061 25.5977 3.45422C25.5362 3.50351 25.4672 3.54468 25.4005 3.58585C25.3333 3.62701 25.2747 3.67688 25.2243 3.73602C25.1744 3.79633 25.1269 3.85837 25.0828 3.92853C25.0973 3.82126 25.1118 3.71457 25.1257 3.60672L25.2017 3.08371C25.226 2.9086 25.2608 2.73697 25.2881 2.56244C25.3484 2.21454 25.4214 1.87186 25.5183 1.53323L25.4423 1.50134L25.3292 1.74545L25.2724 1.86838C25.2544 1.90955 25.2399 1.95187 25.2237 1.99304C25.1617 2.16061 25.0921 2.32819 25.0393 2.49808C24.9233 2.83728 24.8253 3.18054 24.7245 3.5238C24.7071 3.59048 24.6897 3.65659 24.6717 3.72327C24.6479 3.67108 24.6212 3.62064 24.5853 3.57483C24.5378 3.51221 24.4879 3.44901 24.4485 3.38116C24.4073 3.3139 24.3702 3.24432 24.3325 3.17416C24.2948 3.10458 24.2554 3.03442 24.2217 2.96194C24.1464 2.81931 24.0855 2.66971 24.0176 2.51779L23.973 2.52591C23.9701 2.6929 23.98 2.86163 24.0037 3.02863C24.0153 3.1127 24.0321 3.19562 24.0484 3.27911C24.0687 3.36145 24.089 3.44379 24.1139 3.52554C24.1382 3.6073 24.158 3.69138 24.1817 3.77487C24.2067 3.85779 24.2455 3.93491 24.3 4.00217C24.311 4.0155 24.3221 4.02884 24.3331 4.0416C24.4566 4.18134 24.5012 4.37442 24.4572 4.55591L24.456 4.55939C24.38 4.8754 24.3105 5.19199 24.2397 5.50858C24.2049 5.4361 24.1655 5.37058 24.1237 5.30679C24.0797 5.24243 24.0281 5.18619 23.9655 5.13748C23.904 5.08878 23.8396 5.04065 23.7845 4.98441C23.7277 4.9299 23.6744 4.87192 23.6205 4.81335C23.5665 4.75537 23.5109 4.69739 23.4598 4.63593C23.352 4.51648 23.2552 4.3866 23.1519 4.25671L23.1102 4.27585C23.1496 4.4382 23.2012 4.59882 23.2662 4.75479C23.2981 4.83365 23.3352 4.90903 23.3717 4.98615C23.4123 5.06036 23.4529 5.13574 23.4969 5.20822C23.541 5.28128 23.581 5.35782 23.6251 5.43262C23.6703 5.50684 23.7271 5.57178 23.7961 5.62338C23.8275 5.646 23.8593 5.66745 23.893 5.68774C24.0559 5.78516 24.1313 5.98172 24.0872 6.16669C24.0495 6.32556 24.0118 6.48386 23.9747 6.64273C23.9283 6.84393 23.8918 7.04688 23.8634 7.25098C23.8321 7.18893 23.7979 7.13153 23.7614 7.07645C23.7173 7.01151 23.6657 6.95526 23.6031 6.90714C23.5416 6.85843 23.4772 6.8103 23.4222 6.75406C23.3653 6.69898 23.312 6.64099 23.2581 6.58301C23.2041 6.52502 23.1485 6.46646 23.0974 6.405C22.9896 6.28555 22.8928 6.15625 22.7896 6.02637L22.7478 6.0455C22.7867 6.20786 22.8383 6.36847 22.9038 6.52445C22.9357 6.60272 22.9728 6.67868 23.0093 6.7558C23.0499 6.83002 23.0905 6.90482 23.1346 6.9773C23.1786 7.05035 23.2186 7.12747 23.2627 7.20227C23.3079 7.27591 23.3647 7.34085 23.4337 7.39304C23.5033 7.44348 23.5787 7.48987 23.6628 7.5235C23.7585 7.56235 23.8211 7.65512 23.8159 7.75833C23.8019 8.02622 23.7811 8.51096 23.7874 8.76898C23.799 9.12848 23.8246 9.48972 23.8982 9.85617L23.9794 9.86603C24.1388 9.52915 24.2571 9.1882 24.3615 8.8461C24.4647 8.50342 24.5522 8.159 24.6259 7.81342C24.627 7.80704 24.6282 7.80066 24.6294 7.79486C24.6531 7.68295 24.7506 7.607 24.8648 7.60294C24.9489 7.59946 25.0295 7.58438 25.1071 7.56351C25.1906 7.53973 25.2666 7.49973 25.3356 7.44696C25.4034 7.39246 25.4684 7.33563 25.5356 7.28287C25.6029 7.23126 25.6678 7.1756 25.7316 7.12051C25.7937 7.06195 25.8551 7.00397 25.9131 6.94251C26.0297 6.82016 26.1358 6.68854 26.2303 6.55112L26.1984 6.51807C26.0552 6.60272 25.9189 6.68854 25.7745 6.7616C25.705 6.80103 25.6325 6.83524 25.5612 6.87003C25.4898 6.9054 25.4191 6.94019 25.3466 6.9715C25.2753 7.00397 25.1982 7.026 25.1228 7.04919C25.0474 7.07239 24.979 7.10602 24.9146 7.15067C24.8456 7.20053 24.779 7.25446 24.714 7.31882C24.7413 7.13501 24.7616 6.9512 24.7766 6.76624C24.7865 6.6178 24.8033 6.41834 24.8178 6.24323C24.8335 6.0571 24.9651 5.89764 25.1472 5.85648C25.2365 5.83676 25.3217 5.80371 25.4029 5.78168C25.4864 5.7579 25.5623 5.7179 25.6307 5.66513C25.6986 5.61063 25.7641 5.5538 25.8308 5.50104C25.8986 5.44943 25.963 5.39377 26.0273 5.33868C26.0894 5.28012 26.1509 5.22272 26.2088 5.16068C26.3254 5.03833 26.4315 4.90671 26.5254 4.76929L26.4941 4.73682C26.3509 4.82147 26.2146 4.90729 26.0703 4.98035C26.0007 5.0192 25.9282 5.05399 25.8569 5.08878C25.7856 5.12357 25.7148 5.15894 25.6423 5.18967C25.571 5.22214 25.4939 5.24475 25.4185 5.26794C25.3431 5.29056 25.2747 5.32477 25.2104 5.36942C25.0892 5.45639 24.9744 5.55612 24.8648 5.70746C24.9059 5.35782 24.9448 5.00702 24.9918 4.65796L24.9929 4.64462C25.0167 4.43182 25.1518 4.24222 25.3518 4.16568C25.4081 4.14423 25.4614 4.11755 25.513 4.08856C25.5878 4.04507 25.6516 3.98651 25.705 3.91867C25.7566 3.84909 25.8053 3.77777 25.8575 3.70993C25.9096 3.64267 25.9583 3.57309 26.0071 3.50351C26.0517 3.43103 26.0975 3.36029 26.1381 3.28549C26.2204 3.13821 26.29 2.98456 26.3468 2.82742L26.308 2.80365C26.1909 2.9202 26.0807 3.0379 25.9595 3.14459Z" fill="url(#paint4_linear)"/>
<path d="M24.7335 10.8918C24.5682 10.984 24.3948 11.0721 24.2145 11.1539C24.0875 11.2113 23.9611 11.2646 23.8347 11.3122C23.4236 10.4459 22.8426 9.41784 22.0686 8.47735C21.6082 7.91665 21.0788 7.38668 20.4763 6.93963C19.4576 6.18527 18.6997 6.02465 18.6916 6.02291C18.4243 5.96841 18.2498 5.70807 18.3019 5.44076C18.3553 5.17346 18.6122 4.99777 18.8795 5.04879C18.9885 5.06909 20.9616 5.47613 22.9725 8.01175C23.5726 8.76727 24.1751 9.71124 24.7335 10.8918Z" fill="url(#paint5_linear)"/>
<path d="M34.1249 14.0761C34.0745 14.1114 34.024 14.1462 33.973 14.1798C33.6599 14.3903 33.3282 14.573 32.9861 14.7289C32.3268 15.0264 31.6241 15.2282 30.8993 15.2937C30.5386 15.325 30.1716 15.3186 29.8121 15.2589C29.5941 15.2235 29.3761 15.1661 29.1731 15.0797L21.3425 11.6558C21.1517 11.5915 20.9691 11.5051 20.8079 11.3903C20.896 11.4053 21.902 11.628 22.2273 11.5515C22.879 11.4013 23.5128 11.1734 24.1222 10.9003C24.3501 10.7965 24.5745 10.6863 24.7948 10.5681C25.1636 10.3698 25.5208 10.1506 25.8611 9.90531C26.1319 9.70932 26.3934 9.49768 26.6317 9.26053C26.7523 9.14224 26.8631 9.01642 26.9721 8.88364C27.0759 8.7497 27.1727 8.60706 27.2585 8.45166L29.9234 9.45361C30.305 9.84848 30.6262 10.3147 30.8662 10.8435C31.4061 12.0339 32.2573 13.0376 33.3131 13.7705L34.1249 14.0761Z" fill="url(#paint6_linear)"/>
<path d="M41.5095 20.6394C41.4979 20.615 41.4874 20.5906 41.4758 20.5669C41.4526 20.5193 41.4283 20.4718 41.4045 20.4242C41.3825 20.3807 41.3616 20.3373 41.339 20.2944C41.3181 20.2532 41.2961 20.2132 41.2746 20.1726C41.2485 20.1239 41.223 20.0746 41.1969 20.0265C41.1761 19.9882 41.154 19.9511 41.1332 19.9134C41.1047 19.863 41.0769 19.8125 41.0479 19.7632C41.0282 19.729 41.0079 19.696 40.9876 19.6623C40.9563 19.6096 40.9256 19.5568 40.8937 19.5052C40.8751 19.475 40.8554 19.4455 40.8369 19.4153C40.8021 19.3608 40.7684 19.3063 40.7331 19.2524C40.7157 19.2251 40.6971 19.1985 40.6791 19.1712C40.642 19.1156 40.6049 19.0593 40.5672 19.0042C40.5504 18.9799 40.533 18.9561 40.5156 18.9317C40.4762 18.8749 40.4362 18.8181 40.3956 18.7619C40.3799 18.7398 40.3631 18.7184 40.3469 18.6963C40.3046 18.6389 40.2622 18.5809 40.2188 18.5241C40.2048 18.5061 40.1903 18.4882 40.1764 18.4696C40.13 18.4105 40.0837 18.3507 40.0367 18.2922C40.0239 18.2765 40.0112 18.2615 39.999 18.2464C39.9491 18.1855 39.8998 18.1252 39.8494 18.0655C39.8378 18.0521 39.8268 18.0394 39.8152 18.026C39.763 17.9652 39.7102 17.9037 39.6569 17.844C39.6476 17.8335 39.6383 17.8237 39.6291 17.8132C39.5728 17.7506 39.5166 17.6886 39.4592 17.6277C39.4522 17.6202 39.4447 17.6126 39.4371 17.6045C39.3774 17.5413 39.3177 17.4793 39.2574 17.4172C39.2516 17.412 39.2464 17.4062 39.2406 17.401C39.1779 17.3372 39.1147 17.274 39.0504 17.2125C39.0469 17.2091 39.0428 17.2056 39.0394 17.2021C38.9733 17.1383 38.9066 17.0751 38.8387 17.0131C38.837 17.0113 38.8353 17.0096 38.8335 17.0084C37.6971 15.9636 36.3739 15.1593 34.9486 14.6271C34.9452 14.6259 34.9423 14.6247 34.9388 14.6236C32.1057 13.5683 28.8714 13.5886 25.9003 14.9355C22.942 16.2761 20.8007 18.6801 19.7222 21.49C19.6926 21.5665 19.6642 21.6436 19.6364 21.7202C19.6317 21.7335 19.6271 21.7463 19.6225 21.759C19.5952 21.8356 19.5691 21.9121 19.5436 21.9892C19.539 22.0025 19.5343 22.017 19.5297 22.0304C19.5042 22.1069 19.4804 22.1829 19.4566 22.2594C19.452 22.2745 19.4474 22.2896 19.4427 22.3046C19.4201 22.38 19.3981 22.456 19.3766 22.5319C19.372 22.5482 19.3673 22.5644 19.3627 22.5801C19.3424 22.6554 19.3221 22.7302 19.303 22.8056C19.2983 22.823 19.2937 22.841 19.2896 22.8584C19.2705 22.9326 19.2531 23.0074 19.2357 23.0816C19.2317 23.1007 19.227 23.1193 19.2224 23.1379C19.2062 23.2115 19.1905 23.2857 19.1748 23.3594C19.1708 23.3797 19.1667 23.3994 19.1627 23.4191C19.1482 23.4921 19.1343 23.5646 19.1215 23.6377C19.1174 23.6591 19.1134 23.6806 19.1093 23.7026C19.0971 23.7739 19.0855 23.8458 19.0739 23.9177C19.0705 23.9409 19.0664 23.9635 19.0629 23.9867C19.0525 24.0575 19.0432 24.1282 19.0334 24.199C19.0305 24.2239 19.027 24.2482 19.0235 24.2726C19.0148 24.3422 19.0073 24.4118 18.9997 24.4813C18.9968 24.5074 18.9939 24.5335 18.991 24.5596C18.9841 24.628 18.9783 24.6965 18.9725 24.7649C18.9702 24.7921 18.9673 24.82 18.9655 24.8472C18.9603 24.9145 18.9562 24.9817 18.9522 25.049C18.9504 25.078 18.9481 25.107 18.947 25.136C18.9435 25.2021 18.9406 25.2682 18.9388 25.3337C18.9377 25.3644 18.9365 25.3952 18.9354 25.4259C18.9336 25.4902 18.933 25.5552 18.9319 25.6195C18.9319 25.652 18.9313 25.6839 18.9313 25.7158C18.9307 25.779 18.9319 25.8422 18.9325 25.906C18.933 25.9396 18.933 25.9732 18.9336 26.0069C18.9348 26.0689 18.9371 26.131 18.9394 26.1924C18.9412 26.2278 18.9423 26.2626 18.9435 26.298C18.9464 26.3583 18.9504 26.4191 18.9539 26.48C18.9562 26.5166 18.9586 26.5531 18.9609 26.589C18.9649 26.6488 18.9702 26.7079 18.9754 26.7676C18.9789 26.8053 18.9818 26.843 18.9852 26.8807C18.991 26.9387 18.9974 26.9967 19.0038 27.0552C19.0084 27.0941 19.0125 27.1329 19.0171 27.1718C19.0241 27.2286 19.0322 27.2854 19.0397 27.3422C19.045 27.3828 19.0502 27.4228 19.056 27.4634C19.0647 27.5191 19.0734 27.5747 19.0826 27.6298C19.089 27.6716 19.0954 27.7133 19.1029 27.7545C19.1122 27.809 19.1227 27.8635 19.1325 27.918C19.1406 27.9603 19.1482 28.0027 19.1569 28.045C19.1673 28.0983 19.1789 28.1517 19.1899 28.2056C19.1992 28.2485 19.2085 28.292 19.2183 28.3349C19.2299 28.3877 19.2427 28.4399 19.2554 28.4926C19.2659 28.5367 19.2757 28.5808 19.2873 28.6242C19.3001 28.6764 19.314 28.7275 19.3279 28.7796C19.3395 28.8243 19.3511 28.8684 19.3633 28.913C19.3778 28.964 19.3929 29.0145 19.4074 29.0655C19.4207 29.1107 19.434 29.156 19.4474 29.2012C19.463 29.251 19.4793 29.3009 19.4955 29.3508C19.51 29.3966 19.5239 29.4424 19.5396 29.4876C19.5558 29.5375 19.5732 29.5862 19.5906 29.6355C19.6068 29.6819 19.6225 29.7277 19.6387 29.7735C19.6567 29.8222 19.6752 29.8709 19.6938 29.9196C19.7112 29.966 19.728 30.0118 19.746 30.0576C19.7651 30.1063 19.7848 30.1544 19.8045 30.2026C19.8231 30.2484 19.8416 30.2948 19.8608 30.3406C19.8811 30.3887 19.9025 30.4368 19.9234 30.4844C19.9437 30.5302 19.9634 30.5765 19.9837 30.6224C20.0063 30.6716 20.0289 30.7198 20.0515 30.7685C20.0713 30.8108 20.091 30.8531 20.1107 30.8949C20.149 30.9732 20.1872 31.0497 20.2261 31.1262C20.2301 31.1338 20.2336 31.1419 20.2377 31.1494C23.0435 36.6132 29.0587 37.2939 34.8304 34.6916C40.7806 32.0082 44.2753 26.8772 41.6504 20.9438C41.6353 20.9107 41.6214 20.8777 41.6069 20.8446C41.5744 20.7756 41.5419 20.7072 41.5095 20.6394Z" fill="url(#paint7_linear)"/>
<path d="M22.049 15.8429C21.969 15.6655 21.7596 15.5872 21.5828 15.6672C21.4054 15.7478 21.3265 15.9565 21.4071 16.134C21.4871 16.3114 21.6964 16.3897 21.8733 16.3091C22.0507 16.2291 22.1296 16.0203 22.049 15.8429Z" fill="#FFB211"/>
<path d="M25.7023 14.835C25.5753 14.5544 25.2442 14.4297 24.9635 14.5567C24.6829 14.6842 24.5588 15.0147 24.6858 15.2954C24.8128 15.5766 25.1439 15.7007 25.4245 15.5737C25.7051 15.4461 25.8298 15.1156 25.7023 14.835Z" fill="#FFB211"/>
<path d="M24.0309 13.8817C23.8355 13.4498 23.3264 13.2584 22.8944 13.4544C22.4624 13.6498 22.2711 14.1589 22.4671 14.5909C22.6625 15.0229 23.1716 15.2142 23.6036 15.0182C24.0355 14.8228 24.2269 14.3137 24.0309 13.8817Z" fill="#FFB211"/>
<path d="M37.1388 27.1994C37.0582 27.0225 36.8495 26.9437 36.6721 27.0243C36.4952 27.1043 36.4164 27.313 36.497 27.4905C36.577 27.6679 36.7863 27.7462 36.9631 27.6661C37.1406 27.5856 37.2194 27.3768 37.1388 27.1994Z" fill="#FFB211"/>
<path d="M39.121 25.2384C38.925 24.807 38.4165 24.6151 37.9845 24.8111C37.5525 25.0071 37.3612 25.5156 37.5566 25.9475C37.7526 26.3795 38.2611 26.5709 38.693 26.3755C39.125 26.1795 39.3164 25.6704 39.121 25.2384Z" fill="#FFB211"/>
<path d="M26.6984 7.94965C26.714 8.38452 26.6137 8.78867 26.4693 9.14294C26.3238 9.49954 26.1255 9.80743 25.904 10.0829C25.4558 10.6291 24.902 11.0338 24.295 11.3104C23.6855 11.5846 23.0187 11.7354 22.3119 11.7128C21.9594 11.7006 21.5952 11.6414 21.2317 11.5174C20.8699 11.3939 20.4999 11.2002 20.1833 10.9027C20.2732 10.9341 20.3585 10.9735 20.446 10.9944C20.5312 11.0245 20.6176 11.0407 20.7023 11.061C20.8722 11.0906 21.0386 11.1173 21.2027 11.1225C21.5309 11.1399 21.851 11.1213 22.1623 11.0732C22.7851 10.9793 23.38 10.7879 23.9436 10.5357C24.5072 10.2794 25.0406 9.95819 25.5225 9.55057C25.7625 9.34647 25.991 9.12265 26.1933 8.8623C26.2954 8.73358 26.3876 8.59326 26.4763 8.44482C26.5604 8.29291 26.6357 8.13055 26.6984 7.94965Z" fill="url(#paint8_radial)"/>
<path d="M34.6755 23.4184C36.6157 27.6999 35.1226 32.5595 31.3403 34.2741C27.5586 35.9881 22.9194 33.9076 20.9793 29.6261C19.0391 25.3452 20.5322 20.4856 24.3139 18.7711C28.0962 17.0571 32.7348 19.1375 34.6755 23.4184Z" fill="url(#paint9_linear)"/>
<path d="M54.8772 14.9275C53.354 17.4184 47.4588 16.2657 45.9379 15.9207C45.7071 15.868 45.5778 15.8338 45.5778 15.8338C45.5778 15.8338 45.5506 15.7665 45.5059 15.6436C45.4781 15.5676 45.4439 15.4696 45.4044 15.3531C44.9945 14.1366 44.0894 10.9005 45.3378 9.12334C46.8964 6.90431 47.4675 9.58141 47.4675 9.58141C47.4675 9.58141 47.6907 5.69014 49.6767 3.93672C51.6377 2.2065 51.5031 5.56722 51.4991 5.65477C51.5217 5.56896 52.5584 1.72756 54.9091 1.69045C57.2864 1.6516 55.6153 4.36058 55.6153 4.36058C55.6153 4.36058 58.2582 1.74611 59.8417 2.92143C60.0574 3.08147 60.1809 3.2618 60.2325 3.45314C60.2331 3.45546 60.2343 3.45836 60.2349 3.46068C60.2383 3.47576 60.2424 3.49141 60.2453 3.50707C60.2494 3.52504 60.2523 3.54302 60.2546 3.56157C60.2569 3.57955 60.2586 3.5981 60.2598 3.61608C60.2627 3.65202 60.2633 3.68913 60.261 3.72624C60.261 3.72914 60.2604 3.73146 60.2604 3.73436C60.2592 3.75118 60.2581 3.76741 60.2569 3.78307C60.2534 3.8138 60.2488 3.84395 60.243 3.87526C60.2378 3.90077 60.232 3.92687 60.2256 3.95354C60.2209 3.97267 60.2151 3.99123 60.2093 4.01036C60.2036 4.0295 60.1972 4.04921 60.1908 4.06777C60.1838 4.0869 60.1769 4.10603 60.1693 4.12575C60.1543 4.16402 60.1375 4.20229 60.1189 4.24114C60.1114 4.25795 60.1032 4.27419 60.0945 4.291C60.0835 4.31304 60.0719 4.33449 60.0603 4.35594C60.0499 4.37566 60.0383 4.39479 60.0273 4.41393C60.0163 4.43364 60.0041 4.4522 59.9925 4.47133C59.9809 4.49104 59.9681 4.5096 59.956 4.52873C59.8933 4.62383 59.8238 4.7195 59.749 4.81227C59.7234 4.84532 59.6962 4.87721 59.6689 4.90968C59.6492 4.93288 59.6295 4.95549 59.6092 4.97869C59.582 5.00884 59.5547 5.03899 59.5269 5.06914C59.524 5.0732 59.5205 5.0761 59.5176 5.07958C59.5072 5.09059 59.4967 5.10219 59.4863 5.11263C58.856 5.7806 58.0663 6.30592 58.0315 6.3297C58.0866 6.31636 60.1212 5.838 60.6425 7.18147C61.1672 8.53249 56.1117 9.455 56.0322 9.4695C56.0873 9.48399 58.7482 10.1931 58.2269 11.7256C57.7045 13.2622 52.4616 13.2396 52.381 13.239C52.4541 13.2512 55.5782 13.7811 54.8772 14.9275Z" fill="url(#paint10_linear)"/>
<path d="M54.8771 14.9274C53.3539 17.4183 47.4587 16.2656 45.9378 15.9206C45.7071 15.8679 45.5778 15.8336 45.5778 15.8336C45.5778 15.8336 45.5505 15.7664 45.5059 15.6435C48.6944 11.3608 52.6436 8.1781 55.8565 6.03851C57.6192 4.86609 59.1598 4.00735 60.2331 3.45303C60.2336 3.45535 60.2342 3.45767 60.2348 3.45999C60.2389 3.47565 60.2423 3.4913 60.2452 3.50696C60.2493 3.52493 60.2522 3.54291 60.2545 3.56088C60.2568 3.57944 60.2586 3.59799 60.2603 3.61597C60.2626 3.6525 60.2632 3.68903 60.2609 3.72556C60.2615 3.72845 60.2603 3.73135 60.2609 3.73425C60.2597 3.75049 60.2586 3.7673 60.2568 3.78296C60.2539 3.81369 60.2487 3.84384 60.2429 3.87515C60.2377 3.90067 60.2325 3.92676 60.2255 3.95343C60.2209 3.97198 60.2151 3.99112 60.2099 4.01025C60.2035 4.02939 60.1977 4.0491 60.1907 4.06766C60.1838 4.08679 60.1768 4.10593 60.1693 4.12564C60.1548 4.16333 60.1374 4.20218 60.1194 4.24045C60.1113 4.25726 60.1032 4.27408 60.0945 4.29089C60.084 4.31235 60.0724 4.33438 60.0603 4.35584C60.0498 4.37497 60.0382 4.39468 60.0278 4.41382C60.0162 4.43295 60.0046 4.45209 59.9924 4.47122C59.9814 4.49036 59.9681 4.50949 59.9559 4.52863C59.8939 4.62372 59.8237 4.71939 59.7489 4.81216C59.7234 4.84464 59.6961 4.87653 59.6689 4.90958C59.6492 4.93219 59.6295 4.9548 59.6092 4.97858C59.5819 5.00873 59.5552 5.03888 59.5268 5.06903C59.5239 5.07309 59.521 5.07599 59.5175 5.07947C59.5077 5.09048 59.4967 5.10208 59.4862 5.11252C58.856 5.78049 58.0662 6.30582 58.0314 6.32959C58.0865 6.31625 60.1217 5.83789 60.6424 7.18137C61.1672 8.53238 56.1122 9.4549 56.0327 9.46939C56.0872 9.48389 58.7481 10.193 58.2274 11.7255C57.7044 13.2621 52.4615 13.2395 52.381 13.2389C52.454 13.2511 55.5782 13.781 54.8771 14.9274Z" fill="url(#paint11_linear)"/>
<path d="M47.2579 14.9368C47.0236 14.9061 46.8015 14.9792 46.6548 15.138L46.6525 15.1415L46.2403 15.588C46.1376 15.6976 46.0367 15.8083 45.937 15.9202C45.7062 15.868 45.5769 15.8338 45.5769 15.8338C45.5769 15.8338 45.5497 15.7666 45.505 15.6436C45.4772 15.5677 45.443 15.4697 45.4036 15.3532C45.4778 15.2528 45.5514 15.1537 45.6262 15.054C45.726 14.9252 45.8245 14.7954 45.9237 14.6666C46.0344 14.5228 46.0797 14.3338 46.0501 14.1378C45.6714 11.6248 47.0091 10.0349 46.6577 11.0879C46.4125 11.8214 46.4496 13.104 46.5087 13.9331C46.7285 13.6658 46.95 13.4014 47.1732 13.1382C47.4434 12.8297 47.72 12.5265 47.9943 12.2209C48.1299 12.0672 48.2737 11.9217 48.4164 11.7744L48.5567 11.63C48.7852 11.3946 48.9116 11.0711 48.9058 10.7191C48.86 7.86924 50.2985 5.95636 49.8439 7.23548C49.5123 8.17075 49.4323 9.75949 49.4172 10.7609L49.7216 10.4692L50.3948 9.83951C50.4696 9.76877 50.545 9.69919 50.6232 9.63367C50.7583 9.51654 50.9827 9.32578 51.2002 9.13965C51.5695 8.8248 51.8223 8.39514 51.9325 7.90345C52.6028 4.91208 54.6792 3.14243 53.8581 4.38269C53.2139 5.3545 52.6758 7.16822 52.4155 8.1464L52.5222 8.06406C52.6834 7.93766 52.8481 7.81473 53.0121 7.69123C53.1768 7.5683 53.3363 7.439 53.5091 7.32593C53.8483 7.09168 54.1892 6.86148 54.5319 6.63245L54.7899 6.46314C54.8757 6.40689 54.9604 6.34833 55.0508 6.29789C55.2288 6.19236 55.4057 6.08625 55.5854 5.98362C55.6092 5.9697 55.633 5.9552 55.6568 5.94187C55.7397 5.89374 55.833 5.95984 55.8556 6.03812C55.869 6.07871 55.8626 6.12336 55.8255 6.15641C55.8052 6.17438 55.7849 6.19236 55.7652 6.21033C55.6127 6.34659 55.459 6.47995 55.306 6.6139C55.2283 6.68 55.1541 6.749 55.0798 6.81858L54.856 7.02732C54.5568 7.30216 54.2559 7.57526 53.9526 7.84488C53.6511 8.11624 53.3618 8.4021 53.0637 8.67578C53.0353 8.7013 53.0075 8.72681 52.9797 8.7529C53.9045 8.54068 55.9223 8.02637 56.9805 7.36884C58.2944 6.55127 56.2749 8.76334 53.0493 9.25794C52.5871 9.32868 52.1731 9.53278 51.8467 9.83777C51.6548 10.0181 51.4501 10.2094 51.3022 10.3492C51.0129 10.631 50.7276 10.9186 50.44 11.2027L50.0132 11.6202C50.9102 11.6445 52.9078 11.6521 54.0164 11.2932C55.3547 10.8594 53.2209 12.3514 50.2081 12.1223C49.8057 12.091 49.4299 12.218 49.1678 12.483L49.1568 12.4952L48.944 12.7108C48.8727 12.7822 48.8054 12.8587 48.7347 12.93C48.4547 13.2223 48.1775 13.5168 47.8945 13.8062C47.6933 14.0219 47.4939 14.2381 47.2927 14.4527C48.1236 14.5292 49.3517 14.5878 50.0695 14.3692C51.0975 14.0572 49.6178 15.2476 47.2579 14.9368Z" fill="url(#paint12_linear)"/>
<path d="M46.6617 14.7912C46.6321 14.7616 46.6025 14.7315 46.5729 14.7025C44.0611 12.2196 39.9768 12.3263 37.5948 14.9338C33.2901 19.6461 29.6111 24.9458 25.9691 30.1835C24.9411 31.662 25.1023 33.6706 26.3715 34.9474C26.3866 34.9625 26.4017 34.9775 26.4168 34.9926C27.6936 36.2619 29.7021 36.4231 31.1807 35.395C36.4183 31.7531 41.718 28.074 46.4309 23.7693C49.0384 21.3874 49.1451 17.303 46.6617 14.7912Z" fill="url(#paint13_linear)"/>
<path d="M46.4308 23.7694C49.0388 21.3875 49.1455 17.3031 46.6621 14.7913C46.6325 14.7617 46.603 14.7315 46.5734 14.7025C46.0759 14.2108 45.5175 13.8212 44.9226 13.5324V25.1094C45.4311 24.6687 45.9344 24.2228 46.4308 23.7694Z" fill="url(#paint14_linear)"/>
<path d="M39.9172 19.0418C40.497 19.3561 41.0496 19.7133 41.5924 20.089C41.862 20.2792 42.1287 20.4746 42.3896 20.6781C42.6482 20.8845 42.9034 21.0967 43.1527 21.3182C43.3997 21.5415 43.6554 21.7589 43.8978 21.9949C44.1384 22.2315 44.3547 22.4959 44.5356 22.7881C44.7153 23.0804 44.8667 23.3958 44.974 23.7298C45.0783 24.0632 45.1427 24.4198 45.1021 24.7746L45.0232 24.7932C44.8412 24.5039 44.6591 24.247 44.4678 23.9965C44.277 23.7472 44.081 23.5065 43.881 23.2671C43.6786 23.0288 43.4844 22.7846 43.2965 22.5284C43.1075 22.2738 42.9126 22.0187 42.6969 21.7809C42.4824 21.5426 42.2592 21.3101 42.0313 21.0822C41.8057 20.8509 41.5726 20.6253 41.3361 20.4038C40.8647 19.9574 40.3747 19.5266 39.8726 19.1091L39.9172 19.0418Z" fill="url(#paint15_linear)"/>
<path d="M31.0564 25.4774C31.6472 25.8015 32.212 26.168 32.7663 26.5536C33.0417 26.749 33.3142 26.9496 33.5815 27.1577C33.8459 27.3694 34.1075 27.5862 34.3626 27.8124C34.6154 28.0408 34.8769 28.2635 35.1251 28.5041C35.3715 28.7465 35.5941 29.0161 35.7809 29.3124C35.9664 29.6099 36.1235 29.9299 36.236 30.2686C36.3456 30.606 36.4146 30.9667 36.3775 31.3244L36.2986 31.3424C36.1108 31.0484 35.9229 30.7869 35.7263 30.5318C35.5298 30.2778 35.3286 30.0326 35.1227 29.7885C34.9152 29.5461 34.7157 29.2968 34.522 29.0364C34.3272 28.7772 34.1266 28.5175 33.9057 28.2751C33.6853 28.0316 33.4563 27.7944 33.2226 27.5613C32.9913 27.3253 32.753 27.0951 32.51 26.8684C32.027 26.4127 31.5255 25.972 31.0117 25.5452L31.0564 25.4774Z" fill="url(#paint16_linear)"/>
<path d="M39.7126 14.9972C40.4577 15.2546 41.1744 15.5741 41.88 15.9203C42.2303 16.0971 42.5782 16.2809 42.9197 16.4769C43.2583 16.677 43.5934 16.8857 43.9216 17.1078C44.2475 17.3328 44.5838 17.5485 44.905 17.7903C45.2245 18.0349 45.5156 18.3208 45.7661 18.6507C46.0148 18.9818 46.2311 19.3506 46.394 19.7541C46.5541 20.1571 46.6654 20.6013 46.6474 21.0692L46.5518 21.1139C46.3007 20.7868 46.0519 20.5016 45.7922 20.2279C45.5336 19.9548 45.2697 19.6944 45.0001 19.4364C44.7282 19.1807 44.4655 18.9151 44.2104 18.6328C43.9524 18.3527 43.6885 18.0732 43.4004 17.8216C43.1133 17.5688 42.8159 17.3258 42.5132 17.0898C42.2134 16.8486 41.9044 16.6172 41.5913 16.3917C40.9674 15.9365 40.3226 15.5057 39.6633 15.0958L39.7126 14.9972Z" fill="url(#paint17_linear)"/>
<path d="M37.9642 20.4782C38.4356 20.6429 38.8838 20.8511 39.3227 21.0784C39.5407 21.1949 39.7559 21.3167 39.9663 21.4466C40.1745 21.5799 40.3798 21.7191 40.5792 21.8675C40.7769 22.0183 40.9822 22.1621 41.1759 22.325C41.3678 22.4891 41.5383 22.6833 41.6786 22.9101C41.8172 23.1368 41.932 23.3907 42.0085 23.6702C42.0833 23.9497 42.1239 24.2588 42.0763 24.5875L42.0097 24.6206C41.8688 24.3968 41.7267 24.2019 41.576 24.0158C41.4264 23.8297 41.2721 23.6528 41.1138 23.4777C40.9538 23.3044 40.8007 23.1234 40.654 22.9315C40.505 22.7408 40.3525 22.55 40.1815 22.3795C40.0116 22.2085 39.8336 22.045 39.6521 21.8855C39.4723 21.7231 39.2862 21.5677 39.0972 21.4164C38.7203 21.1103 38.3277 20.8221 37.9236 20.549L37.9642 20.4782Z" fill="url(#paint18_linear)"/>
<path d="M33.3077 25.3777C33.6996 25.4873 34.0673 25.6404 34.425 25.8126C34.6019 25.9013 34.7764 25.9947 34.9457 26.0967C35.1133 26.2017 35.2774 26.3124 35.4357 26.4325C35.5922 26.5554 35.7563 26.6708 35.9077 26.8053C36.0584 26.941 36.1871 27.1068 36.2869 27.3051C36.3854 27.5046 36.4608 27.7319 36.5008 27.9858C36.5391 28.2404 36.5449 28.5262 36.473 28.8382L36.4127 28.8753C36.3118 28.6793 36.2074 28.5106 36.0949 28.35C35.983 28.1899 35.8665 28.0386 35.7465 27.8896C35.6247 27.7423 35.5093 27.5875 35.4003 27.4211C35.2901 27.2564 35.1759 27.0929 35.0443 26.9491C34.9132 26.8053 34.7752 26.6685 34.6332 26.5368C34.4934 26.4012 34.3479 26.273 34.1983 26.1495C33.9014 25.8984 33.5895 25.6653 33.2671 25.4473L33.3077 25.3777Z" fill="url(#paint19_linear)"/>
<path d="M30.0573 29.9289C30.4493 30.0385 30.8163 30.1916 31.174 30.3632C31.3509 30.4519 31.5254 30.5453 31.6953 30.6473C31.8623 30.7529 32.0264 30.8636 32.1847 30.9836C32.3413 31.1066 32.5053 31.222 32.6567 31.3565C32.8074 31.4922 32.9362 31.658 33.0359 31.8563C33.135 32.0558 33.2098 32.283 33.2499 32.537C33.2887 32.7916 33.2939 33.0768 33.222 33.3894L33.1623 33.4265C33.0614 33.2305 32.9565 33.0612 32.844 32.9012C32.7321 32.7411 32.6155 32.5898 32.4955 32.4408C32.3737 32.2935 32.2583 32.1387 32.1493 31.9723C32.0392 31.8076 31.9249 31.6441 31.7933 31.5003C31.6623 31.3565 31.5243 31.2196 31.3822 31.0874C31.243 30.9523 31.0969 30.8242 30.9473 30.7001C30.651 30.4496 30.3385 30.2165 30.0161 29.9985L30.0573 29.9289Z" fill="url(#paint20_linear)"/>
<path d="M34.2971 23.0496C34.8747 23.2868 35.4296 23.568 35.9758 23.8695C36.2471 24.0226 36.5168 24.1815 36.7812 24.3485C37.0438 24.5183 37.303 24.6946 37.557 24.8807C37.8092 25.0686 38.0696 25.2501 38.3177 25.4507C38.5653 25.6531 38.7903 25.885 38.9834 26.1477C39.1759 26.4109 39.3429 26.7008 39.4681 27.0134C39.591 27.3259 39.6763 27.6663 39.6612 28.0171L39.587 28.0449C39.3927 27.7845 39.2008 27.5555 39.0002 27.3346C38.8002 27.1143 38.5961 26.9032 38.3873 26.6939C38.1774 26.4857 37.9745 26.2712 37.7767 26.0439C37.5779 25.8189 37.3732 25.5928 37.1505 25.3869C36.9284 25.1805 36.6982 24.9805 36.464 24.7856C36.2321 24.5868 35.9932 24.3954 35.7508 24.2076C35.2678 23.8289 34.7686 23.4677 34.2583 23.1209L34.2971 23.0496Z" fill="url(#paint21_linear)"/>
<path d="M60.5214 17.576C58.8457 17.576 57.2546 17.9378 55.8212 18.5878C54.8118 19.0453 53.6509 19.0453 52.6409 18.5878C51.2075 17.9378 49.6164 17.576 47.9407 17.576C41.6327 17.576 36.4884 22.7638 36.5394 29.0712C36.5899 35.3253 41.675 40.3791 47.9407 40.3791C48.5217 40.3791 49.0929 40.3356 49.6507 40.2516C52.6843 39.7947 55.7778 39.7947 58.8115 40.2516C59.3693 40.3356 59.9404 40.3791 60.5214 40.3791C66.7871 40.3791 71.8722 35.3253 71.9227 29.0712C71.9737 22.7638 66.8294 17.576 60.5214 17.576Z" fill="url(#paint22_radial)"/>
<path d="M56.1564 16.5869H52.304V13.1311C52.304 12.0671 53.1662 11.2049 54.2302 11.2049C55.2942 11.2049 56.1564 12.0671 56.1564 13.1311V16.5869Z" fill="url(#paint23_linear)"/>
<path d="M54.3513 16.2958C52.8315 15.4649 48.1963 13.4987 44.0731 17.6318C43.8406 17.8649 43.8847 18.2493 44.1526 18.4215L51.502 25.7709C51.5495 25.8445 51.6174 25.9072 51.7049 25.9489C53.4375 26.7792 58.5011 28.6788 61.9854 24.573C62.1866 24.3352 62.1367 23.9792 61.8816 23.8128L54.3513 16.2958Z" fill="url(#paint24_linear)"/>
<path d="M58.9558 27.5497C58.9558 22.3358 54.2133 18.1088 48.3628 18.1088C42.5128 18.1088 37.7698 22.3358 37.7698 27.5497C37.7698 32.7641 42.5128 36.9911 48.3628 36.9911C54.2133 36.9911 58.9558 32.7641 58.9558 27.5497Z" fill="url(#paint25_linear)"/>
<path d="M64.4381 18.2886L64.445 18.2776C63.2199 17.8247 61.8984 17.576 60.5207 17.576C58.8444 17.576 57.2534 17.9378 55.8206 18.5878C54.8105 19.0453 53.6497 19.0453 52.6396 18.5878C51.4202 18.0346 50.0855 17.6914 48.6823 17.6009C47.3782 18.5634 46.2046 20.0432 45.5633 22.3127C45.4804 22.6055 45.6538 22.8954 45.9234 22.9754L63.0465 40.0979C68.0986 38.9556 71.8785 34.459 71.922 29.0718C71.933 27.6703 71.6866 26.3257 71.2291 25.0796L64.4381 18.2886Z" fill="url(#paint26_linear)"/>
<path d="M54.1706 16.235C55.4927 17.4834 58.0294 18.407 55.2393 23.8615C55.0711 24.1897 54.6304 24.2599 54.3759 23.9926C52.986 22.532 50.3768 21.1589 53.3473 16.3509C53.5259 16.061 53.923 16.0013 54.1706 16.235Z" fill="url(#paint27_linear)"/>
<path d="M54.3515 16.2958C52.8317 15.4649 48.1965 13.4987 44.0733 17.6318C43.8251 17.8805 43.8918 18.3009 44.2084 18.4528C45.941 19.2831 51.0046 21.1827 54.4889 17.0763C54.6994 16.8287 54.6361 16.4518 54.3515 16.2958Z" fill="url(#paint28_linear)"/>
<path d="M54.11 16.2958C55.6298 15.4649 60.265 13.4987 64.3876 17.6318C64.6363 17.8805 64.5697 18.3009 64.2531 18.4528C62.5205 19.2831 57.4568 21.1827 53.9726 17.0763C53.7621 16.8287 53.8248 16.4518 54.11 16.2958Z" fill="url(#paint29_linear)"/>
<path d="M54.3008 15.8348C52.483 15.8499 47.2297 16.417 45.5633 22.3127C45.463 22.6676 45.7384 23.019 46.1066 22.9964C48.1192 22.8717 53.7308 22.0246 54.8256 16.4802C54.8917 16.1456 54.6418 15.8319 54.3008 15.8348Z" fill="url(#paint30_linear)"/>
<path d="M54.3804 15.8406C56.197 15.9154 61.4289 16.6535 62.9022 22.5997C62.9909 22.958 62.7039 23.3001 62.3369 23.2654C60.3295 23.0752 54.7486 22.0454 53.8348 16.4685C53.7797 16.1322 54.04 15.8267 54.3804 15.8406Z" fill="url(#paint31_linear)"/>
<path d="M12.7239 20.3041C12.7239 20.3041 7.93965 14.1787 17.5063 11.7689C17.9053 11.6681 18.3117 11.9035 18.4283 12.2983C18.9901 14.1961 19.8512 19.4146 12.7239 20.3041Z" fill="url(#paint32_linear)"/>
<path d="M18.4276 12.2986C18.3632 12.0794 18.209 11.9101 18.017 11.819C15.0286 15.5161 12.7231 20.3043 12.7231 20.3043C19.8505 19.4154 18.9894 14.1964 18.4276 12.2986Z" fill="url(#paint33_linear)"/>
<path d="M16.9784 14.7697C16.9053 14.801 16.8293 14.8271 16.7551 14.8537C16.6809 14.8804 16.6073 14.9071 16.5319 14.9297C16.4571 14.954 16.3788 14.968 16.3017 14.9825C16.2252 14.9969 16.1533 15.023 16.0848 15.0601C16.017 15.0984 15.9509 15.1396 15.8854 15.1895C15.9364 15.0949 15.988 15.0004 16.039 14.9053L16.2947 14.4449C16.3794 14.2907 16.4722 14.1434 16.5591 13.9904C16.7383 13.6883 16.9273 13.3954 17.1372 13.1142L17.0787 13.058L16.8867 13.2453L16.7905 13.3392C16.7592 13.3717 16.7308 13.4053 16.7006 13.4384C16.5841 13.5723 16.46 13.7033 16.3504 13.8431C16.1225 14.1173 15.9097 14.402 15.6952 14.6862C15.6552 14.7418 15.6152 14.7975 15.5752 14.8531C15.5717 14.7957 15.5641 14.7401 15.5473 14.6838C15.5253 14.609 15.5009 14.5331 15.4882 14.4554C15.4737 14.3783 15.4638 14.3006 15.4534 14.2223C15.443 14.144 15.4314 14.0652 15.4256 13.9857C15.4064 13.8263 15.4018 13.6656 15.3931 13.5004L15.3484 13.4917C15.2864 13.6459 15.236 13.8065 15.1994 13.9706C15.1803 14.053 15.1664 14.1359 15.1519 14.2194C15.142 14.3029 15.1316 14.387 15.1258 14.4716C15.1194 14.5563 15.1084 14.6415 15.1009 14.7279C15.0951 14.8137 15.1038 14.899 15.1304 14.9813C15.1356 14.9975 15.1414 15.0132 15.1472 15.0294C15.2128 15.2034 15.1855 15.3988 15.0806 15.5518L15.0788 15.5547C14.8962 15.8215 14.7193 16.0917 14.5413 16.3613C14.5344 16.2813 14.5216 16.2065 14.5048 16.1328C14.4868 16.0569 14.4584 15.9861 14.4178 15.9195C14.3772 15.8522 14.3349 15.7844 14.3036 15.713C14.27 15.6417 14.241 15.5692 14.2114 15.4956C14.1818 15.4225 14.1505 15.3489 14.125 15.2735C14.0664 15.1239 14.0224 14.9697 13.9719 14.812L13.9267 14.8149C13.9058 14.9801 13.8965 15.1477 13.9023 15.3159C13.9041 15.3999 13.9122 15.484 13.9192 15.5687C13.9302 15.6516 13.9412 15.7357 13.9568 15.8192C13.9719 15.9026 13.9824 15.9879 13.9969 16.0737C14.0125 16.1584 14.0427 16.239 14.0885 16.3114C14.1093 16.3433 14.132 16.3752 14.1557 16.4054C14.2729 16.5538 14.274 16.7637 14.1673 16.9197C14.0763 17.0542 13.9847 17.1881 13.8942 17.3232C13.7794 17.4943 13.6739 17.67 13.5759 17.8497C13.5684 17.7807 13.5568 17.7158 13.5423 17.6514C13.5243 17.5755 13.4959 17.5047 13.4553 17.4375C13.4147 17.3702 13.3724 17.3029 13.3411 17.231C13.3074 17.1603 13.2784 17.0872 13.2489 17.0142C13.2187 16.9411 13.188 16.8675 13.1625 16.7921C13.1039 16.6419 13.0593 16.4877 13.0094 16.33L12.9642 16.3335C12.9427 16.4981 12.934 16.6663 12.9398 16.8339C12.9416 16.9185 12.9491 17.002 12.9561 17.0867C12.9671 17.1702 12.9787 17.2542 12.9943 17.3372C13.0088 17.4207 13.0193 17.5065 13.0338 17.5917C13.05 17.6764 13.0796 17.757 13.1259 17.83C13.1729 17.9013 13.2263 17.9709 13.2924 18.0324C13.3683 18.102 13.3932 18.2104 13.3521 18.3049C13.2442 18.549 13.0535 18.9926 12.9682 19.235C12.8523 19.5742 12.7479 19.9192 12.687 20.2856L12.7595 20.3233C13.0268 20.0664 13.257 19.791 13.4756 19.5092C13.693 19.2274 13.896 18.9381 14.0862 18.6418C14.0896 18.6366 14.0931 18.6313 14.0966 18.6261C14.158 18.531 14.2758 18.4945 14.383 18.531C14.4625 18.5577 14.5431 18.5722 14.6231 18.5803C14.7089 18.5879 14.7941 18.5768 14.8765 18.5525C14.9588 18.5258 15.0394 18.4957 15.1206 18.4707C15.2018 18.4464 15.2812 18.4174 15.3606 18.389C15.4389 18.3559 15.5166 18.3246 15.5926 18.2875C15.7439 18.215 15.8894 18.1298 16.0257 18.0353L16.0077 17.9935C15.8448 18.0219 15.6871 18.0538 15.5276 18.0706C15.4488 18.0822 15.3693 18.0886 15.2905 18.0962C15.2116 18.1031 15.1339 18.1107 15.0551 18.1141C14.9768 18.1188 14.8973 18.1124 14.8196 18.1078C14.7414 18.102 14.6654 18.1095 14.59 18.1281C14.5083 18.1501 14.4271 18.1768 14.3442 18.2133C14.4335 18.0521 14.5181 17.888 14.597 17.721C14.659 17.5871 14.7448 17.4073 14.8208 17.2496C14.9008 17.082 15.0794 16.98 15.2638 17.0061C15.3537 17.0188 15.4453 17.0182 15.5282 17.0269C15.614 17.0345 15.6992 17.024 15.7816 16.9991C15.8639 16.9724 15.9445 16.9423 16.0257 16.9174C16.1069 16.893 16.1869 16.864 16.2657 16.8356C16.344 16.8031 16.4223 16.7712 16.4977 16.7341C16.6496 16.6617 16.7946 16.5764 16.9308 16.4819L16.9128 16.4402C16.7499 16.4686 16.5928 16.5005 16.4327 16.5173C16.3539 16.5289 16.2744 16.5352 16.1956 16.5428C16.1167 16.5503 16.039 16.5573 15.9608 16.5608C15.8825 16.566 15.803 16.559 15.7248 16.5544C15.6465 16.5492 15.5705 16.5561 15.4951 16.5753C15.3513 16.6135 15.2093 16.6651 15.0539 16.7678C15.2162 16.457 15.3763 16.1439 15.5433 15.836L15.5497 15.8238C15.6465 15.6342 15.839 15.506 16.0524 15.5055C16.1127 15.5049 16.1718 15.4991 16.2298 15.4904C16.315 15.4759 16.395 15.4446 16.4687 15.3999C16.5412 15.3535 16.6119 15.3043 16.6844 15.2596C16.7569 15.2155 16.8264 15.1674 16.896 15.1205C16.9639 15.0688 17.0311 15.019 17.0949 14.9639C17.2242 14.856 17.3431 14.7372 17.4515 14.6114L17.4237 14.5754C17.2735 14.6432 17.1285 14.7134 16.9784 14.7697Z" fill="url(#paint34_linear)"/>
<path d="M12.0307 19.1723C11.9548 19.0772 11.8765 18.9845 11.7936 18.8934C11.7362 18.8285 11.6747 18.767 11.6144 18.7044C11.5518 18.6435 11.4892 18.5826 11.4231 18.5247C11.3587 18.4661 11.292 18.4104 11.2248 18.3542C11.1558 18.3003 11.0873 18.2463 11.0166 18.1965C10.7928 18.0341 10.5551 17.8932 10.3115 17.7773C10.2843 17.7094 10.2559 17.6422 10.2263 17.5749C10.108 17.3105 9.97232 17.0519 9.81576 16.806C9.65863 16.5608 9.48004 16.3271 9.27536 16.1201C9.24289 16.0865 9.1936 16.0789 9.16229 16.1044C9.1275 16.1328 9.12576 16.1891 9.15823 16.2308L9.15881 16.232C9.48062 16.6419 9.71024 17.1157 9.87433 17.5969C9.63892 17.5146 9.40118 17.4554 9.16403 17.4207C8.52447 17.3232 7.89941 17.3951 7.34335 17.6108C6.78903 17.8289 6.29153 18.1918 5.94711 18.7177C5.7749 18.9792 5.64618 19.2831 5.57776 19.6113C5.54355 19.7748 5.52441 19.9464 5.51977 20.1151C5.51572 20.2763 5.52151 20.4433 5.54123 20.6138C5.58124 20.9542 5.67749 21.3142 5.8497 21.6569C5.93668 21.828 6.04047 21.9938 6.16107 22.1463C6.28226 22.2994 6.41794 22.4403 6.56522 22.5609C6.86035 22.8038 7.19318 22.9702 7.51962 23.0584C7.84723 23.1488 8.16904 23.1633 8.46765 23.1245C9.06604 23.0427 9.5647 22.7464 9.93057 22.351C10.0222 22.2524 10.1068 22.1475 10.1845 22.0385C10.2611 21.9306 10.337 21.81 10.3991 21.6877C10.5249 21.4412 10.6154 21.1762 10.6739 20.9043C10.7296 20.6474 10.7481 20.4984 10.7539 20.2334C10.7539 20.2334 11.6689 21.9602 10.8908 24.0047C10.7307 24.4262 11.1592 24.9376 11.5866 24.8315C11.5906 24.8309 11.5947 24.8298 11.5982 24.8286C12.643 24.5619 14.1981 23.8093 15.5393 21.7224C15.7562 21.3844 15.486 20.8568 15.0644 20.8028C14.2538 20.6996 13.0779 20.3314 12.0307 19.1723ZM10.0129 20.6092C9.94275 20.8231 9.84882 21.0208 9.73227 21.1948C9.6192 21.367 9.4696 21.5224 9.31131 21.6529C8.9953 21.9155 8.61319 22.0715 8.22528 22.0773C8.03278 22.0802 7.84027 22.0466 7.66574 21.9776C7.49005 21.9097 7.33466 21.8059 7.20941 21.6819C6.9566 21.436 6.82556 21.0956 6.81396 20.7135C6.81049 20.6179 6.81512 20.5204 6.82672 20.4225C6.83774 20.3308 6.85571 20.2479 6.88122 20.1662C6.93225 20.0032 7.01343 19.856 7.12128 19.7272C7.22855 19.5979 7.36423 19.4895 7.51846 19.4066C7.67212 19.3219 7.84259 19.2599 8.02292 19.2239C8.38357 19.1486 8.7738 19.1689 9.14838 19.2564C9.50613 19.3387 9.85113 19.4837 10.1787 19.6832C10.1602 20.009 10.108 20.3227 10.0129 20.6092Z" fill="url(#paint35_linear)"/>
<path d="M10.3108 17.7773C10.2836 17.7094 10.2551 17.6421 10.2256 17.5749C10.1079 17.3105 9.97218 17.0519 9.81505 16.8066C9.65791 16.5608 9.47933 16.3271 9.27522 16.1201C9.24217 16.0865 9.19347 16.0789 9.16158 16.1044C9.12679 16.1328 9.12505 16.1891 9.15752 16.2308L9.15868 16.232C9.47991 16.6419 9.70952 17.1157 9.87361 17.5969L10.3108 17.7773Z" fill="url(#paint36_linear)"/>
<path d="M10.0134 20.6091C9.94327 20.823 9.84933 21.0208 9.73279 21.1947C9.68292 21.2707 9.62552 21.3426 9.56348 21.411L10.1027 22.1462C10.1306 22.1103 10.1584 22.0749 10.1845 22.0384C10.261 21.9305 10.337 21.8099 10.399 21.6876C10.5254 21.4411 10.6153 21.1761 10.6739 20.9042C10.7295 20.6473 10.7487 20.4983 10.7545 20.2333C10.5805 19.9127 10.1793 19.6831 10.1793 19.6831C10.1607 20.0089 10.1085 20.3226 10.0134 20.6091Z" fill="url(#paint37_linear)"/>
<path d="M15.0644 20.8028C14.2532 20.6996 13.0779 20.3314 12.0307 19.1723C11.9548 19.0772 11.8765 18.9845 11.7936 18.8934C11.7362 18.8285 11.6747 18.767 11.6144 18.7044C11.5518 18.6435 11.4892 18.5826 11.4231 18.5247C11.3587 18.4661 11.292 18.4104 11.2248 18.3542C11.1558 18.3003 11.0873 18.2463 11.0166 18.1965C10.7928 18.0341 10.5551 17.8932 10.3115 17.7773C10.2843 17.7094 10.2559 17.6421 10.2263 17.5749C10.108 17.3105 9.97232 17.0519 9.81576 16.806C9.65863 16.5608 9.48004 16.3271 9.27536 16.1201C9.24289 16.0865 9.1936 16.0789 9.16229 16.1044C9.1275 16.1328 9.12576 16.1891 9.15823 16.2308L9.15881 16.232C9.48062 16.6419 9.71023 17.1157 9.87433 17.5969C9.63891 17.5146 9.40118 17.4554 9.16403 17.4207C8.52447 17.3232 7.89941 17.3951 7.34335 17.6108C6.78903 17.8289 6.29153 18.1918 5.94711 18.7177C5.7749 18.9792 5.64618 19.2831 5.57776 19.6113C5.54355 19.7748 5.52441 19.9464 5.51978 20.1151C5.51978 20.1151 7.39728 17.1794 9.52179 18.4388C11.2079 19.4379 12.6471 21.8181 14.4805 23.0758C14.8389 22.7029 15.1955 22.2565 15.5387 21.7236C15.7556 21.385 15.486 20.8567 15.0644 20.8028Z" fill="url(#paint38_linear)"/>
<path d="M30.742 42.1465C30.742 44.34 28.9631 46.1184 26.7696 46.1184C24.5755 46.1184 22.7971 44.34 22.7971 42.1465C22.7971 39.9524 24.5755 38.1741 26.7696 38.1741C28.9631 38.1741 30.742 39.9524 30.742 42.1465Z" fill="url(#paint39_radial)"/>
<path d="M30.9607 36.437C30.9607 38.6311 29.1823 40.4094 26.9882 40.4094C24.7947 40.4094 23.0164 38.6311 23.0164 36.437C23.0164 34.2435 24.7947 32.4645 26.9882 32.4645C29.1823 32.4645 30.9607 34.2435 30.9607 36.437Z" fill="url(#paint40_radial)"/>
<path d="M30.052 31.0498C30.052 33.2433 28.2736 35.0222 26.0795 35.0222C23.886 35.0222 22.1077 33.2433 22.1077 31.0498C22.1077 28.8557 23.886 27.0773 26.0795 27.0773C28.2736 27.0773 30.052 28.8557 30.052 31.0498Z" fill="url(#paint41_radial)"/>
<path d="M30.3174 24.4702C30.3174 26.6643 28.5385 28.4427 26.345 28.4427C24.1509 28.4427 22.3726 26.6643 22.3726 24.4702C22.3726 22.2767 24.1509 20.4984 26.345 20.4984C28.5385 20.4984 30.3174 22.2767 30.3174 24.4702Z" fill="url(#paint42_radial)"/>
<path d="M29.9721 39.7966C29.8677 39.6546 29.7546 39.5224 29.6364 39.3977C31.1457 38.0507 31.4124 35.7517 30.1907 34.087C29.9558 33.7663 29.681 33.4921 29.3789 33.2642C30.2852 31.9138 30.3003 30.0867 29.2827 28.6998C29.038 28.3658 28.7504 28.0817 28.4332 27.8486C28.5219 27.7935 28.6095 27.7361 28.6953 27.6735C30.4638 26.3752 30.8453 23.8895 29.5476 22.1204C28.25 20.3519 25.7636 19.9704 23.9951 21.268C22.2267 22.5663 21.8445 25.052 23.1428 26.8205C23.3875 27.1545 23.6751 27.4392 23.9922 27.6723C23.9035 27.7268 23.816 27.7848 23.7302 27.8474C21.9617 29.1451 21.5796 31.6314 22.8778 33.3999C23.1132 33.7205 23.3875 33.9948 23.6896 34.2227C22.7833 35.5731 22.7682 37.4002 23.7858 38.7871C23.8902 38.9292 24.0027 39.0614 24.1216 39.1855C22.9167 40.2611 22.5044 41.9426 23.0083 43.4241L29.975 44.4938C30.9723 43.133 31.0233 41.2294 29.9721 39.7966Z" fill="url(#paint43_linear)"/>
<path d="M25.2776 39.8738C25.2776 42.0679 23.4992 43.8463 21.3051 43.8463C19.1116 43.8463 17.3333 42.0679 17.3333 39.8738C17.3333 37.6803 19.1116 35.9014 21.3051 35.9014C23.4992 35.9014 25.2776 37.6803 25.2776 39.8738Z" fill="url(#paint44_radial)"/>
<path d="M24.5089 37.5236C23.2107 35.7551 20.7249 35.3736 18.9559 36.6713C17.6124 37.657 17.0702 39.3281 17.4558 40.8502L24.6864 41.9606C25.5103 40.624 25.4946 38.8671 24.5089 37.5236Z" fill="url(#paint45_linear)"/>
<path d="M24.6338 33.5059C24.6338 35.6994 22.8555 37.4783 20.6614 37.4783C18.4679 37.4783 16.689 35.6994 16.689 33.5059C16.689 31.3118 18.4679 29.5334 20.6614 29.5334C22.8555 29.5334 24.6338 31.3118 24.6338 33.5059Z" fill="url(#paint46_radial)"/>
<path d="M24.7408 26.8145C24.7408 29.0086 22.9624 30.787 20.7683 30.787C18.5748 30.787 16.7959 29.0086 16.7959 26.8145C16.7959 24.621 18.5748 22.8421 20.7683 22.8421C22.9624 22.8421 24.7408 24.621 24.7408 26.8145Z" fill="url(#paint47_radial)"/>
<path d="M25.104 21.5635C25.104 23.757 23.3256 25.5354 21.1315 25.5354C18.938 25.5354 17.1597 23.757 17.1597 21.5635C17.1597 19.3694 18.938 17.5911 21.1315 17.5911C23.3256 17.5911 25.104 19.3694 25.104 21.5635Z" fill="url(#paint48_radial)"/>
<path d="M24.9323 22.7141L17.1591 21.5202C17.1498 22.3517 17.3991 23.1925 17.9285 23.9138C17.9459 23.9376 17.9645 23.9602 17.9824 23.9834C16.5955 25.3442 16.3821 27.5522 17.5655 29.1648C17.8508 29.5538 18.1941 29.8756 18.5745 30.1273C18.4852 30.1824 18.397 30.2404 18.3112 30.3036C16.5427 31.6012 16.1612 34.087 17.4589 35.856C18.7571 37.6245 21.2429 38.0061 23.0114 36.7084C24.7804 35.4107 25.162 32.9244 23.8643 31.1559C23.5784 30.7668 23.2357 30.445 22.8554 30.1934C22.9441 30.1383 23.0322 30.0803 23.118 30.0171C24.8871 28.7195 25.2686 26.2337 23.971 24.4646C23.9536 24.4409 23.935 24.4182 23.9171 24.395C24.403 23.9178 24.7439 23.3369 24.9323 22.7141Z" fill="url(#paint49_linear)"/>
<path d="M19.185 37.5794C19.185 39.7735 17.4067 41.5518 15.2132 41.5518C13.0191 41.5518 11.2407 39.7735 11.2407 37.5794C11.2407 35.3859 13.0191 33.6075 15.2132 33.6075C17.4067 33.6075 19.185 35.3859 19.185 37.5794Z" fill="url(#paint50_radial)"/>
<path d="M12.8639 34.3769C11.3853 35.4618 10.8768 37.3769 11.5076 39.0092L18.3201 40.0552C19.4119 38.6874 19.5012 36.7078 18.4163 35.2292C17.1187 33.4607 14.6323 33.0792 12.8639 34.3769Z" fill="url(#paint51_linear)"/>
<path d="M19.0726 30.8984C19.0726 33.092 17.2936 34.8703 15.1001 34.8703C12.906 34.8703 11.1277 33.092 11.1277 30.8984C11.1277 28.7043 12.906 26.926 15.1001 26.926C17.2936 26.926 19.0726 28.7043 19.0726 30.8984Z" fill="url(#paint52_radial)"/>
<path d="M13.779 35.3905C13.779 37.5841 12.0007 39.363 9.80716 39.363C7.61307 39.363 5.83472 37.5841 5.83472 35.3905C5.83472 33.1964 7.61307 31.4181 9.80716 31.4181C12.0007 31.4181 13.779 33.1964 13.779 35.3905Z" fill="url(#paint53_radial)"/>
<path d="M18.7256 24.6962C18.7256 26.8903 16.9467 28.6686 14.7532 28.6686C12.5591 28.6686 10.7808 26.8903 10.7808 24.6962C10.7808 22.5021 12.5591 20.7237 14.7532 20.7237C16.9467 20.7237 18.7256 22.5021 18.7256 24.6962Z" fill="url(#paint54_radial)"/>
<path d="M13.3785 29.1474C13.3785 31.3409 11.5995 33.1198 9.40603 33.1198C7.21194 33.1198 5.43359 31.3409 5.43359 29.1474C5.43359 26.9533 7.21194 25.175 9.40603 25.175C11.5995 25.175 13.3785 26.9533 13.3785 29.1474Z" fill="url(#paint55_radial)"/>
<path d="M48.4251 73.8682H27.5732C13.6525 73.8682 2.36719 62.5829 2.36719 48.6622V32.3625H73.6311V48.6622C73.6311 62.5829 62.3464 73.8682 48.4251 73.8682Z" fill="url(#paint56_linear)"/>
<path d="M28.2843 32.3625V48.6622C28.2843 58.1373 23.0554 66.39 15.3262 70.6953C18.9525 72.7155 23.1284 73.8682 27.574 73.8682H48.426C62.3467 73.8682 73.632 62.5829 73.632 48.6622V32.3625H28.2843Z" fill="url(#paint57_linear)"/>
<path d="M39.1871 32.3625V48.6622C39.1871 60.2276 31.397 69.9734 20.7773 72.9398C22.9395 73.544 25.2189 73.8682 27.5742 73.8682H48.4261C62.3468 73.8682 73.6321 62.5829 73.6321 48.6622V32.3625H39.1871Z" fill="url(#paint58_linear)"/>
<path d="M50.2467 32.3625V48.6622C50.2467 62.1584 39.6398 73.1764 26.3071 73.8363C26.7263 73.8571 27.149 73.8682 27.5735 73.8682H48.4255C62.3467 73.8682 73.6314 62.5829 73.6314 48.6622V32.3625H50.2467Z" fill="url(#paint59_linear)"/>
<path d="M61.3581 32.3625V48.6622C61.3581 62.5829 50.0733 73.8682 36.1521 73.8682H48.426C62.3467 73.8682 73.632 62.5829 73.632 48.6622V32.3625H61.3581Z" fill="url(#paint60_linear)"/>
<path d="M47.7148 32.3625V48.6622C47.7148 58.1373 52.9438 66.39 60.673 70.6953C57.0467 72.7155 52.8707 73.8682 48.4251 73.8682H27.5731C13.6525 73.8682 2.36719 62.5829 2.36719 48.6622V32.3625H47.7148Z" fill="url(#paint61_linear)"/>
<path d="M36.8122 32.3625V48.6622C36.8122 60.2276 44.6023 69.9734 55.222 72.9398C53.0598 73.544 50.7804 73.8682 48.4251 73.8682H27.5732C13.6525 73.8682 2.36719 62.5829 2.36719 48.6622V32.3625H36.8122Z" fill="url(#paint62_linear)"/>
<path d="M25.7519 32.3625V48.6622C25.7519 62.1584 36.3588 73.1764 49.6915 73.8363C49.2723 73.8571 48.8496 73.8682 48.4251 73.8682H27.5731C13.6525 73.8682 2.36719 62.5829 2.36719 48.6622V32.3625H25.7519Z" fill="url(#paint63_linear)"/>
<path d="M14.6411 32.3625V48.6622C14.6411 62.5829 25.9258 73.8682 39.8471 73.8682H27.5732C13.6525 73.8682 2.36719 62.5829 2.36719 48.6622V32.3625H14.6411Z" fill="url(#paint64_linear)"/>
<path d="M2.36719 32.3625V38.5777L37.6576 73.8682H48.4251C62.3464 73.8682 73.6311 62.5829 73.6311 48.6622V32.3625H2.36719Z" fill="url(#paint65_linear)"/>
<path d="M70.7079 39.1458H5.29214C2.36978 39.1458 0 36.7766 0 33.8531C0 30.9301 2.36978 28.5609 5.29214 28.5609H70.7073C73.6302 28.5609 76 30.9307 76 33.8531C76 36.7766 73.6302 39.1458 70.7079 39.1458Z" fill="url(#paint66_linear)"/>
<defs>
<radialGradient id="paint0_radial" cx="0" cy="0" r="1" gradientUnits="userSpaceOnUse" gradientTransform="translate(21.0553 20.5633) rotate(-24.3814) scale(23.2382)">
<stop stop-color="#FFE548"/>
<stop offset="0.5071" stop-color="#FFE346"/>
<stop offset="0.6898" stop-color="#FFDD3F"/>
<stop offset="0.82" stop-color="#FFD234"/>
<stop offset="0.9245" stop-color="#FFC223"/>
<stop offset="1" stop-color="#FFB211"/>
</radialGradient>
<linearGradient id="paint1_linear" x1="28.3552" y1="11.2586" x2="25.161" y2="8.04595" gradientUnits="userSpaceOnUse">
<stop stop-color="#FFB211" stop-opacity="0"/>
<stop offset="0.1722" stop-color="#FFAD13" stop-opacity="0.172549"/>
<stop offset="0.383" stop-color="#FF9E1A" stop-opacity="0.384314"/>
<stop offset="0.614" stop-color="#FF8525" stop-opacity="0.615686"/>
<stop offset="0.8577" stop-color="#FF6334" stop-opacity="0.858824"/>
<stop offset="1" stop-color="#FF4B3E"/>
</linearGradient>
<linearGradient id="paint2_linear" x1="24.0426" y1="4.73013" x2="30.0062" y2="6.08868" gradientUnits="userSpaceOnUse">
<stop stop-color="#7AC943"/>
<stop offset="0.4564" stop-color="#5FC146"/>
<stop offset="1" stop-color="#39B54A"/>
</linearGradient>
<linearGradient id="paint3_linear" x1="27.3622" y1="5.13274" x2="22.542" y2="4.73678" gradientUnits="userSpaceOnUse">
<stop stop-color="#39B54A" stop-opacity="0"/>
<stop offset="0.1072" stop-color="#2FAB48" stop-opacity="0.105882"/>
<stop offset="0.4553" stop-color="#159043" stop-opacity="0.454902"/>
<stop offset="0.7642" stop-color="#06803F" stop-opacity="0.764706"/>
<stop offset="1" stop-color="#007A3E"/>
</linearGradient>
<linearGradient id="paint4_linear" x1="23.5029" y1="5.36128" x2="24.9848" y2="5.76468" gradientUnits="userSpaceOnUse">
<stop stop-color="#39B54A" stop-opacity="0"/>
<stop offset="0.1072" stop-color="#2FAB48" stop-opacity="0.105882"/>
<stop offset="0.4553" stop-color="#159043" stop-opacity="0.454902"/>
<stop offset="0.7642" stop-color="#06803F" stop-opacity="0.764706"/>
<stop offset="1" stop-color="#007A3E"/>
</linearGradient>
<linearGradient id="paint5_linear" x1="19.7533" y1="8.86566" x2="23.1226" y2="7.3386" gradientUnits="userSpaceOnUse">
<stop stop-color="#C08552"/>
<stop offset="1" stop-color="#895738"/>
</linearGradient>
<linearGradient id="paint6_linear" x1="29.0657" y1="13.6163" x2="21.7741" y2="7.32375" gradientUnits="userSpaceOnUse">
<stop stop-color="#FFB211" stop-opacity="0"/>
<stop offset="0.1722" stop-color="#FFAD13" stop-opacity="0.172549"/>
<stop offset="0.383" stop-color="#FF9E1A" stop-opacity="0.384314"/>
<stop offset="0.614" stop-color="#FF8525" stop-opacity="0.615686"/>
<stop offset="0.8577" stop-color="#FF6334" stop-opacity="0.858824"/>
<stop offset="1" stop-color="#FF4B3E"/>
</linearGradient>
<linearGradient id="paint7_linear" x1="31.2227" y1="24.2091" x2="44.4081" y2="11.6215" gradientUnits="userSpaceOnUse">
<stop stop-color="#FFB211" stop-opacity="0"/>
<stop offset="0.1722" stop-color="#FFAD13" stop-opacity="0.172549"/>
<stop offset="0.383" stop-color="#FF9E1A" stop-opacity="0.384314"/>
<stop offset="0.614" stop-color="#FF8525" stop-opacity="0.615686"/>
<stop offset="0.8577" stop-color="#FF6334" stop-opacity="0.858824"/>
<stop offset="1" stop-color="#FF4B3E"/>
</linearGradient>
<radialGradient id="paint8_radial" cx="0" cy="0" r="1" gradientUnits="userSpaceOnUse" gradientTransform="translate(22.729 6.7727) rotate(-24.3814) scale(5.01544)">
<stop stop-color="#FFE548"/>
<stop offset="0.5071" stop-color="#FFE346"/>
<stop offset="0.6898" stop-color="#FFDD3F"/>
<stop offset="0.82" stop-color="#FFD234"/>
<stop offset="0.9245" stop-color="#FFC223"/>
<stop offset="1" stop-color="#FFB211"/>
</radialGradient>
<linearGradient id="paint9_linear" x1="26.4988" y1="26.2984" x2="8.91944" y2="23.3251" gradientUnits="userSpaceOnUse">
<stop offset="0.0013" stop-color="#E7EEED" stop-opacity="0"/>
<stop offset="0.7731" stop-color="#F9FBFA" stop-opacity="0.772549"/>
<stop offset="1" stop-color="white"/>
</linearGradient>
<linearGradient id="paint10_linear" x1="48.4728" y1="5.13024" x2="56.7126" y2="13.37" gradientUnits="userSpaceOnUse">
<stop stop-color="#7AC943"/>
<stop offset="0.4564" stop-color="#5FC146"/>
<stop offset="1" stop-color="#39B54A"/>
</linearGradient>
<linearGradient id="paint11_linear" x1="55.3898" y1="12.1281" x2="51.6251" y2="8.36337" gradientUnits="userSpaceOnUse">
<stop stop-color="#39B54A" stop-opacity="0"/>
<stop offset="0.1072" stop-color="#2FAB48" stop-opacity="0.105882"/>
<stop offset="0.4553" stop-color="#159043" stop-opacity="0.454902"/>
<stop offset="0.7642" stop-color="#06803F" stop-opacity="0.764706"/>
<stop offset="1" stop-color="#007A3E"/>
</linearGradient>
<linearGradient id="paint12_linear" x1="49.6269" y1="3.52547" x2="52.053" y2="14.1648" gradientUnits="userSpaceOnUse">
<stop stop-color="#39B54A" stop-opacity="0"/>
<stop offset="0.1072" stop-color="#2FAB48" stop-opacity="0.105882"/>
<stop offset="0.4553" stop-color="#159043" stop-opacity="0.454902"/>
<stop offset="0.7642" stop-color="#06803F" stop-opacity="0.764706"/>
<stop offset="1" stop-color="#007A3E"/>
</linearGradient>
<linearGradient id="paint13_linear" x1="32.3973" y1="20.7498" x2="44.7031" y2="33.0555" gradientUnits="userSpaceOnUse">
<stop stop-color="#FFB211"/>
<stop offset="1" stop-color="#FF4B3E"/>
</linearGradient>
<linearGradient id="paint14_linear" x1="46.6748" y1="19.5844" x2="46.7163" y2="10.8347" gradientUnits="userSpaceOnUse">
<stop stop-color="#FF4B3E" stop-opacity="0"/>
<stop offset="0.1177" stop-color="#F5493B" stop-opacity="0.117647"/>
<stop offset="0.3191" stop-color="#DA4332" stop-opacity="0.317647"/>
<stop offset="0.5796" stop-color="#AD3923" stop-opacity="0.580392"/>
<stop offset="0.886" stop-color="#702C0F" stop-opacity="0.886275"/>
<stop offset="1" stop-color="#582707"/>
</linearGradient>
<linearGradient id="paint15_linear" x1="43.1528" y1="21.2319" x2="41.7244" y2="22.7253" gradientUnits="userSpaceOnUse">
<stop stop-color="#FF4B3E" stop-opacity="0"/>
<stop offset="0.1177" stop-color="#F5493B" stop-opacity="0.117647"/>
<stop offset="0.3191" stop-color="#DA4332" stop-opacity="0.317647"/>
<stop offset="0.5796" stop-color="#AD3923" stop-opacity="0.580392"/>
<stop offset="0.886" stop-color="#702C0F" stop-opacity="0.886275"/>
<stop offset="1" stop-color="#582707"/>
</linearGradient>
<linearGradient id="paint16_linear" x1="34.3612" y1="27.7256" x2="32.9349" y2="29.2212" gradientUnits="userSpaceOnUse">
<stop stop-color="#FF4B3E" stop-opacity="0"/>
<stop offset="0.1177" stop-color="#F5493B" stop-opacity="0.117647"/>
<stop offset="0.3191" stop-color="#DA4332" stop-opacity="0.317647"/>
<stop offset="0.5796" stop-color="#AD3923" stop-opacity="0.580392"/>
<stop offset="0.886" stop-color="#702C0F" stop-opacity="0.886275"/>
<stop offset="1" stop-color="#582707"/>
</linearGradient>
<linearGradient id="paint17_linear" x1="43.914" y1="16.9961" x2="42.2421" y2="19.2577" gradientUnits="userSpaceOnUse">
<stop stop-color="#FF4B3E" stop-opacity="0"/>
<stop offset="0.1177" stop-color="#F5493B" stop-opacity="0.117647"/>
<stop offset="0.3191" stop-color="#DA4332" stop-opacity="0.317647"/>
<stop offset="0.5796" stop-color="#AD3923" stop-opacity="0.580392"/>
<stop offset="0.886" stop-color="#702C0F" stop-opacity="0.886275"/>
<stop offset="1" stop-color="#582707"/>
</linearGradient>
<linearGradient id="paint18_linear" x1="40.5862" y1="21.8109" x2="39.2594" y2="23.5026" gradientUnits="userSpaceOnUse">
<stop stop-color="#FF4B3E" stop-opacity="0"/>
<stop offset="0.1177" stop-color="#F5493B" stop-opacity="0.117647"/>
<stop offset="0.3191" stop-color="#DA4332" stop-opacity="0.317647"/>
<stop offset="0.5796" stop-color="#AD3923" stop-opacity="0.580392"/>
<stop offset="0.886" stop-color="#702C0F" stop-opacity="0.886275"/>
<stop offset="1" stop-color="#582707"/>
</linearGradient>
<linearGradient id="paint19_linear" x1="35.4469" y1="26.3792" x2="34.0946" y2="28.047" gradientUnits="userSpaceOnUse">
<stop stop-color="#FF4B3E" stop-opacity="0"/>
<stop offset="0.1177" stop-color="#F5493B" stop-opacity="0.117647"/>
<stop offset="0.3191" stop-color="#DA4332" stop-opacity="0.317647"/>
<stop offset="0.5796" stop-color="#AD3923" stop-opacity="0.580392"/>
<stop offset="0.886" stop-color="#702C0F" stop-opacity="0.886275"/>
<stop offset="1" stop-color="#582707"/>
</linearGradient>
<linearGradient id="paint20_linear" x1="32.1961" y1="30.9301" x2="30.8438" y2="32.5979" gradientUnits="userSpaceOnUse">
<stop stop-color="#FF4B3E" stop-opacity="0"/>
<stop offset="0.1177" stop-color="#F5493B" stop-opacity="0.117647"/>
<stop offset="0.3191" stop-color="#DA4332" stop-opacity="0.317647"/>
<stop offset="0.5796" stop-color="#AD3923" stop-opacity="0.580392"/>
<stop offset="0.886" stop-color="#702C0F" stop-opacity="0.886275"/>
<stop offset="1" stop-color="#582707"/>
</linearGradient>
<linearGradient id="paint21_linear" x1="37.5583" y1="24.8201" x2="36.2535" y2="26.5309" gradientUnits="userSpaceOnUse">
<stop stop-color="#FF4B3E" stop-opacity="0"/>
<stop offset="0.1177" stop-color="#F5493B" stop-opacity="0.117647"/>
<stop offset="0.3191" stop-color="#DA4332" stop-opacity="0.317647"/>
<stop offset="0.5796" stop-color="#AD3923" stop-opacity="0.580392"/>
<stop offset="0.886" stop-color="#702C0F" stop-opacity="0.886275"/>
<stop offset="1" stop-color="#582707"/>
</linearGradient>
<radialGradient id="paint22_radial" cx="0" cy="0" r="1" gradientUnits="userSpaceOnUse" gradientTransform="translate(50.8522 12.2531) scale(31.6515)">
<stop stop-color="#FF4B3E"/>
<stop offset="0.4462" stop-color="#FD4A3D"/>
<stop offset="0.6069" stop-color="#F64939"/>
<stop offset="0.7215" stop-color="#EB4533"/>
<stop offset="0.8141" stop-color="#DA412A"/>
<stop offset="0.8935" stop-color="#C43A1F"/>
<stop offset="0.9625" stop-color="#A93311"/>
<stop offset="1" stop-color="#972E07"/>
</radialGradient>
<linearGradient id="paint23_linear" x1="53.4312" y1="13.8981" x2="56.1483" y2="13.9353" gradientUnits="userSpaceOnUse">
<stop stop-color="#7AC943"/>
<stop offset="0.4564" stop-color="#5FC146"/>
<stop offset="1" stop-color="#39B54A"/>
</linearGradient>
<linearGradient id="paint24_linear" x1="52.5908" y1="20.6918" x2="44.0829" y2="12.184" gradientUnits="userSpaceOnUse">
<stop stop-color="#972E07" stop-opacity="0"/>
<stop offset="1" stop-color="#582707"/>
</linearGradient>
<linearGradient id="paint25_linear" x1="46.9032" y1="26.5662" x2="27.5829" y2="13.5436" gradientUnits="userSpaceOnUse">
<stop offset="0.0013" stop-color="#E7EEED" stop-opacity="0"/>
<stop offset="0.7731" stop-color="#F9FBFA" stop-opacity="0.772549"/>
<stop offset="1" stop-color="white"/>
</linearGradient>
<linearGradient id="paint26_linear" x1="60.1198" y1="28.3849" x2="52.1534" y2="7.40903" gradientUnits="userSpaceOnUse">
<stop stop-color="#972E07" stop-opacity="0"/>
<stop offset="1" stop-color="#582707"/>
</linearGradient>
<linearGradient id="paint27_linear" x1="53.0088" y1="20.2781" x2="56.6265" y2="19.8402" gradientUnits="userSpaceOnUse">
<stop stop-color="#7AC943"/>
<stop offset="0.4564" stop-color="#5FC146"/>
<stop offset="1" stop-color="#39B54A"/>
</linearGradient>
<linearGradient id="paint28_linear" x1="48.6281" y1="15.5238" x2="49.8177" y2="18.9519" gradientUnits="userSpaceOnUse">
<stop stop-color="#7AC943"/>
<stop offset="0.4564" stop-color="#5FC146"/>
<stop offset="1" stop-color="#39B54A"/>
</linearGradient>
<linearGradient id="paint29_linear" x1="59.8333" y1="15.5237" x2="58.6437" y2="18.9518" gradientUnits="userSpaceOnUse">
<stop stop-color="#7AC943"/>
<stop offset="0.4564" stop-color="#5FC146"/>
<stop offset="1" stop-color="#39B54A"/>
</linearGradient>
<linearGradient id="paint30_linear" x1="48.6602" y1="18.0528" x2="51.5028" y2="20.5868" gradientUnits="userSpaceOnUse">
<stop stop-color="#7AC943"/>
<stop offset="0.4564" stop-color="#5FC146"/>
<stop offset="1" stop-color="#39B54A"/>
</linearGradient>
<linearGradient id="paint31_linear" x1="59.9456" y1="18.2415" x2="57.022" y2="20.6814" gradientUnits="userSpaceOnUse">
<stop stop-color="#7AC943"/>
<stop offset="0.4564" stop-color="#5FC146"/>
<stop offset="1" stop-color="#39B54A"/>
</linearGradient>
<linearGradient id="paint32_linear" x1="14.6394" y1="15.5605" x2="19.7081" y2="18.9336" gradientUnits="userSpaceOnUse">
<stop stop-color="#7AC943"/>
<stop offset="0.4564" stop-color="#5FC146"/>
<stop offset="1" stop-color="#39B54A"/>
</linearGradient>
<linearGradient id="paint33_linear" x1="17.585" y1="17.1101" x2="13.2397" y2="15.037" gradientUnits="userSpaceOnUse">
<stop stop-color="#39B54A" stop-opacity="0"/>
<stop offset="0.1072" stop-color="#2FAB48" stop-opacity="0.105882"/>
<stop offset="0.4553" stop-color="#159043" stop-opacity="0.454902"/>
<stop offset="0.7642" stop-color="#06803F" stop-opacity="0.764706"/>
<stop offset="1" stop-color="#007A3E"/>
</linearGradient>
<linearGradient id="paint34_linear" x1="13.9137" y1="15.9571" x2="15.15" y2="16.8565" gradientUnits="userSpaceOnUse">
<stop stop-color="#39B54A" stop-opacity="0"/>
<stop offset="0.1072" stop-color="#2FAB48" stop-opacity="0.105882"/>
<stop offset="0.4553" stop-color="#159043" stop-opacity="0.454902"/>
<stop offset="0.7642" stop-color="#06803F" stop-opacity="0.764706"/>
<stop offset="1" stop-color="#007A3E"/>
</linearGradient>
<linearGradient id="paint35_linear" x1="8.73341" y1="21.0657" x2="11.6496" y2="20.024" gradientUnits="userSpaceOnUse">
<stop stop-color="#C08552"/>
<stop offset="1" stop-color="#895738"/>
</linearGradient>
<linearGradient id="paint36_linear" x1="9.77094" y1="16.4526" x2="9.6283" y2="17.9724" gradientUnits="userSpaceOnUse">
<stop stop-color="#895738" stop-opacity="0"/>
<stop offset="1" stop-color="#5E3023"/>
</linearGradient>
<linearGradient id="paint37_linear" x1="10.0943" y1="21.2683" x2="10.5954" y2="19.8366" gradientUnits="userSpaceOnUse">
<stop stop-color="#895738" stop-opacity="0"/>
<stop offset="1" stop-color="#5E3023"/>
</linearGradient>
<linearGradient id="paint38_linear" x1="9.51715" y1="19.633" x2="13.7242" y2="23.6936" gradientUnits="userSpaceOnUse">
<stop stop-color="#895738" stop-opacity="0"/>
<stop offset="1" stop-color="#5E3023"/>
</linearGradient>
<radialGradient id="paint39_radial" cx="0" cy="0" r="1" gradientUnits="userSpaceOnUse" gradientTransform="translate(23.826 41.6111) rotate(-36.2717) scale(6.36637)">
<stop stop-color="#A4508B"/>
<stop offset="0.255" stop-color="#9E4A8D"/>
<stop offset="0.59" stop-color="#8E3A94"/>
<stop offset="0.9681" stop-color="#73209F"/>
<stop offset="1" stop-color="#701DA0"/>
</radialGradient>
<radialGradient id="paint40_radial" cx="0" cy="0" r="1" gradientUnits="userSpaceOnUse" gradientTransform="translate(24.2542 36.5522) rotate(-36.2717) scale(6.36639)">
<stop stop-color="#A4508B"/>
<stop offset="0.2732" stop-color="#9B478F"/>
<stop offset="0.7168" stop-color="#833098"/>
<stop offset="1" stop-color="#701DA0"/>
</radialGradient>
<radialGradient id="paint41_radial" cx="0" cy="0" r="1" gradientUnits="userSpaceOnUse" gradientTransform="translate(23.0259 30.7297) rotate(-36.2717) scale(6.36644)">
<stop stop-color="#A4508B"/>
<stop offset="0.2591" stop-color="#9F4B8D"/>
<stop offset="0.5684" stop-color="#903D93"/>
<stop offset="0.9021" stop-color="#78259D"/>
<stop offset="1" stop-color="#701DA0"/>
</radialGradient>
<radialGradient id="paint42_radial" cx="0" cy="0" r="1" gradientUnits="userSpaceOnUse" gradientTransform="translate(23.7469 23.9501) rotate(-36.2717) scale(6.36639)">
<stop stop-color="#A4508B"/>
<stop offset="0.328" stop-color="#A14D8C"/>
<stop offset="0.5737" stop-color="#974490"/>
<stop offset="0.7918" stop-color="#873497"/>
<stop offset="0.994" stop-color="#711EA0"/>
<stop offset="1" stop-color="#701DA0"/>
</radialGradient>
<linearGradient id="paint43_linear" x1="28.4163" y1="32.5043" x2="20.1442" y2="32.2319" gradientUnits="userSpaceOnUse">
<stop stop-color="#701DA0" stop-opacity="0"/>
<stop offset="1" stop-color="#2F004E"/>
</linearGradient>
<radialGradient id="paint44_radial" cx="0" cy="0" r="1" gradientUnits="userSpaceOnUse" gradientTransform="translate(18.7075 39.3533) rotate(-36.2717) scale(6.36639)">
<stop stop-color="#A4508B"/>
<stop offset="0.2561" stop-color="#9D498E"/>
<stop offset="0.6193" stop-color="#8B3795"/>
<stop offset="1" stop-color="#701DA0"/>
</radialGradient>
<linearGradient id="paint45_linear" x1="22.2462" y1="39.699" x2="16.0256" y2="36.1878" gradientUnits="userSpaceOnUse">
<stop stop-color="#701DA0" stop-opacity="0"/>
<stop offset="1" stop-color="#2F004E"/>
</linearGradient>
<radialGradient id="paint46_radial" cx="0" cy="0" r="1" gradientUnits="userSpaceOnUse" gradientTransform="translate(18.0636 32.9852) rotate(-36.2717) scale(6.36639)">
<stop stop-color="#A4508B"/>
<stop offset="0.2581" stop-color="#9F4B8D"/>
<stop offset="0.571" stop-color="#903C93"/>
<stop offset="0.9111" stop-color="#78249D"/>
<stop offset="1" stop-color="#701DA0"/>
</radialGradient>
<radialGradient id="paint47_radial" cx="0" cy="0" r="1" gradientUnits="userSpaceOnUse" gradientTransform="translate(18.1704 26.2942) rotate(-36.2717) scale(6.36639)">
<stop stop-color="#A4508B"/>
<stop offset="0.328" stop-color="#A14D8C"/>
<stop offset="0.5737" stop-color="#974490"/>
<stop offset="0.7918" stop-color="#873497"/>
<stop offset="0.994" stop-color="#711EA0"/>
<stop offset="1" stop-color="#701DA0"/>
</radialGradient>
<radialGradient id="paint48_radial" cx="0" cy="0" r="1" gradientUnits="userSpaceOnUse" gradientTransform="translate(18.5338 21.0432) rotate(-36.2717) scale(6.36639)">
<stop stop-color="#A4508B"/>
<stop offset="0.328" stop-color="#A14D8C"/>
<stop offset="0.5737" stop-color="#974490"/>
<stop offset="0.7918" stop-color="#873497"/>
<stop offset="0.994" stop-color="#711EA0"/>
<stop offset="1" stop-color="#701DA0"/>
</radialGradient>
<linearGradient id="paint49_linear" x1="22.0005" y1="29.9979" x2="11.5356" y2="28.3913" gradientUnits="userSpaceOnUse">
<stop stop-color="#701DA0" stop-opacity="0"/>
<stop offset="1" stop-color="#2F004E"/>
</linearGradient>
<radialGradient id="paint50_radial" cx="0" cy="0" r="1" gradientUnits="userSpaceOnUse" gradientTransform="translate(13.2366 37.5406) rotate(-36.2716) scale(6.36641)">
<stop stop-color="#A4508B"/>
<stop offset="0.328" stop-color="#A14D8C"/>
<stop offset="0.5737" stop-color="#974490"/>
<stop offset="0.7918" stop-color="#873497"/>
<stop offset="0.994" stop-color="#711EA0"/>
<stop offset="1" stop-color="#701DA0"/>
</radialGradient>
<linearGradient id="paint51_linear" x1="17.1882" y1="37.3357" x2="5.30302" y2="33.8942" gradientUnits="userSpaceOnUse">
<stop stop-color="#701DA0" stop-opacity="0"/>
<stop offset="1" stop-color="#2F004E"/>
</linearGradient>
<radialGradient id="paint52_radial" cx="0" cy="0" r="1" gradientUnits="userSpaceOnUse" gradientTransform="translate(13.1788 30.7521) rotate(-36.2717) scale(6.36642)">
<stop stop-color="#A4508B"/>
<stop offset="0.328" stop-color="#A14D8C"/>
<stop offset="0.5737" stop-color="#974490"/>
<stop offset="0.7918" stop-color="#873497"/>
<stop offset="0.994" stop-color="#711EA0"/>
<stop offset="1" stop-color="#701DA0"/>
</radialGradient>
<radialGradient id="paint53_radial" cx="0" cy="0" r="1" gradientUnits="userSpaceOnUse" gradientTransform="translate(8.60003 35.122) rotate(-36.2717) scale(6.36641)">
<stop stop-color="#A4508B"/>
<stop offset="0.328" stop-color="#A14D8C"/>
<stop offset="0.5737" stop-color="#974490"/>
<stop offset="0.7918" stop-color="#873497"/>
<stop offset="0.994" stop-color="#711EA0"/>
<stop offset="1" stop-color="#701DA0"/>
</radialGradient>
<radialGradient id="paint54_radial" cx="0" cy="0" r="1" gradientUnits="userSpaceOnUse" gradientTransform="translate(12.6925 24.4516) rotate(-36.2717) scale(6.36638)">
<stop stop-color="#A4508B"/>
<stop offset="0.328" stop-color="#A14D8C"/>
<stop offset="0.5737" stop-color="#974490"/>
<stop offset="0.7918" stop-color="#873497"/>
<stop offset="0.994" stop-color="#711EA0"/>
<stop offset="1" stop-color="#701DA0"/>
</radialGradient>
<radialGradient id="paint55_radial" cx="0" cy="0" r="1" gradientUnits="userSpaceOnUse" gradientTransform="translate(7.68223 28.7226) rotate(-36.2717) scale(6.36643)">
<stop stop-color="#A4508B"/>
<stop offset="0.328" stop-color="#A14D8C"/>
<stop offset="0.5737" stop-color="#974490"/>
<stop offset="0.7918" stop-color="#873497"/>
<stop offset="0.994" stop-color="#711EA0"/>
<stop offset="1" stop-color="#701DA0"/>
</radialGradient>
<linearGradient id="paint56_linear" x1="38.0946" y1="42.9345" x2="51.855" y2="82.3106" gradientUnits="userSpaceOnUse">
<stop stop-color="#C08552"/>
<stop offset="1" stop-color="#895738"/>
</linearGradient>
<linearGradient id="paint57_linear" x1="44.4791" y1="46.5743" x2="44.4791" y2="110.092" gradientUnits="userSpaceOnUse">
<stop stop-color="#895738" stop-opacity="0"/>
<stop offset="1" stop-color="#5E3023"/>
</linearGradient>
<linearGradient id="paint58_linear" x1="47.2049" y1="50.9984" x2="47.2049" y2="95.8722" gradientUnits="userSpaceOnUse">
<stop stop-color="#895738" stop-opacity="0"/>
<stop offset="1" stop-color="#5E3023"/>
</linearGradient>
<linearGradient id="paint59_linear" x1="49.9693" y1="40.8861" x2="49.9693" y2="91.6061" gradientUnits="userSpaceOnUse">
<stop stop-color="#895738" stop-opacity="0"/>
<stop offset="1" stop-color="#5E3023"/>
</linearGradient>
<linearGradient id="paint60_linear" x1="54.8922" y1="38.358" x2="54.8922" y2="100.612" gradientUnits="userSpaceOnUse">
<stop stop-color="#895738" stop-opacity="0"/>
<stop offset="1" stop-color="#5E3023"/>
</linearGradient>
<linearGradient id="paint61_linear" x1="31.5199" y1="46.5743" x2="31.5199" y2="110.092" gradientUnits="userSpaceOnUse">
<stop stop-color="#895738" stop-opacity="0"/>
<stop offset="1" stop-color="#5E3023"/>
</linearGradient>
<linearGradient id="paint62_linear" x1="28.7943" y1="50.9984" x2="28.7943" y2="95.8722" gradientUnits="userSpaceOnUse">
<stop stop-color="#895738" stop-opacity="0"/>
<stop offset="1" stop-color="#5E3023"/>
</linearGradient>
<linearGradient id="paint63_linear" x1="26.0292" y1="40.8861" x2="26.0292" y2="91.6061" gradientUnits="userSpaceOnUse">
<stop stop-color="#895738" stop-opacity="0"/>
<stop offset="1" stop-color="#5E3023"/>
</linearGradient>
<linearGradient id="paint64_linear" x1="21.1069" y1="38.358" x2="21.1069" y2="100.612" gradientUnits="userSpaceOnUse">
<stop stop-color="#895738" stop-opacity="0"/>
<stop offset="1" stop-color="#5E3023"/>
</linearGradient>
<linearGradient id="paint65_linear" x1="37.9992" y1="66.3342" x2="37.9992" y2="24.2784" gradientUnits="userSpaceOnUse">
<stop stop-color="#895738" stop-opacity="0"/>
<stop offset="1" stop-color="#5E3023"/>
</linearGradient>
<linearGradient id="paint66_linear" x1="38" y1="30.2859" x2="38" y2="40.3143" gradientUnits="userSpaceOnUse">
<stop stop-color="#FFE548"/>
<stop offset="0.2472" stop-color="#FFE042"/>
<stop offset="0.5621" stop-color="#FFD133"/>
<stop offset="0.9123" stop-color="#FFB919"/>
<stop offset="1" stop-color="#FFB211"/>
</linearGradient>
</defs>
</svg>
