<svg width="48" height="48" viewBox="0 0 48 48" fill="none" xmlns="http://www.w3.org/2000/svg">
<path d="M48 0H0V48H48V0Z" fill="#274B89"/>
<path fill-rule="evenodd" clip-rule="evenodd" d="M24 38.1562C31.8183 38.1562 38.1562 31.8183 38.1562 24C38.1562 16.1817 31.8183 9.84375 24 9.84375C16.1817 9.84375 9.84375 16.1817 9.84375 24C9.84375 31.8183 16.1817 38.1562 24 38.1562ZM24 33.3431C29.1601 33.3431 33.3431 29.1601 33.3431 24C33.3431 18.8399 29.1601 14.6569 24 14.6569C18.8399 14.6569 14.6569 18.8399 14.6569 24C14.6569 29.1601 18.8399 33.3431 24 33.3431Z" fill="white"/>
<path d="M24.0001 28.2469C26.3455 28.2469 28.2469 26.3455 28.2469 24C28.2469 21.6546 26.3455 19.7532 24.0001 19.7532C21.6546 19.7532 19.7532 21.6546 19.7532 24C19.7532 26.3455 21.6546 28.2469 24.0001 28.2469Z" fill="white"/>
</svg>
