<svg width="91" height="75" viewBox="0 0 91 75" fill="none" xmlns="http://www.w3.org/2000/svg">
<path d="M65.4848 73.5456V65.485C65.4848 61.2094 63.7864 57.1089 60.7631 54.0856C57.7397 51.0623 53.6392 49.3638 49.3636 49.3638H17.1212C12.8456 49.3638 8.74511 51.0623 5.72179 54.0856C2.69848 57.1089 1 61.2094 1 65.485V73.5456" stroke="#274B89" stroke-width="2" stroke-linecap="round" stroke-linejoin="round"/>
<path d="M33.2423 33.2424C42.1458 33.2424 49.3635 26.0247 49.3635 17.1212C49.3635 8.21771 42.1458 1 33.2423 1C24.3388 1 17.1211 8.21771 17.1211 17.1212C17.1211 26.0247 24.3388 33.2424 33.2423 33.2424Z" stroke="#274B89" stroke-width="2" stroke-linecap="round" stroke-linejoin="round"/>
<path d="M89.6668 73.5451V65.4845C89.6642 61.9125 88.4753 58.4426 86.2869 55.6196C84.0985 52.7965 81.0345 50.7802 77.5759 49.8872" stroke="#274B89" stroke-width="2" stroke-linecap="round" stroke-linejoin="round"/>
<path d="M61.4543 1.52368C64.9221 2.41156 67.9957 4.42832 70.1906 7.25602C72.3855 10.0837 73.5769 13.5615 73.5769 17.1411C73.5769 20.7207 72.3855 24.1985 70.1906 27.0262C67.9957 29.8539 64.9221 31.8706 61.4543 32.7585" stroke="#274B89" stroke-width="2" stroke-linecap="round" stroke-linejoin="round"/>
</svg>
