<svg width="92" height="87" viewBox="0 0 92 87" fill="none" xmlns="http://www.w3.org/2000/svg">
<path d="M45.949 43.5273C52.2834 43.5273 57.4188 37.2456 57.4188 29.4964C57.4188 21.7471 52.2834 15.4647 45.949 15.4647C39.6146 15.4647 34.4797 21.7471 34.4797 29.4964C34.4866 37.2418 39.6171 43.5189 45.949 43.5273ZM45.949 19.888C50.2866 19.888 53.8031 24.1899 53.8031 29.4964C53.8031 34.8028 50.2866 39.104 45.949 39.104C41.6114 39.104 38.0955 34.8028 38.0955 29.4964C38.0999 24.1922 41.6126 19.8933 45.949 19.888Z" fill="#274B89"/>
<path d="M75.9527 37.1135H71.0715C64.6756 37.1135 58.8923 41.8355 56.2998 48.8813C53.8899 47.2011 51.1637 46.318 48.3904 46.321H43.5092C40.749 46.318 38.0354 47.1926 35.6349 48.8568C33.0449 41.748 27.2912 37.1535 20.9291 37.1143H16.0485C7.18876 37.1258 0.0100437 45.9079 0 56.7457V75.5808C0 76.8034 0.809771 77.7925 1.80786 77.7925H27.4619V84.7883C27.4619 86.0109 28.2704 87 29.2698 87H62.6292C63.6273 87 64.437 86.0109 64.437 84.7883V77.7925H90.1921C91.1902 77.7925 92 76.8018 92 75.5808V56.7457C91.99 45.9079 84.8119 37.1258 75.9527 37.1135ZM75.9527 41.5368C76.0431 41.5368 76.1316 41.5437 76.2214 41.5453L74.04 52.9936C73.9553 53.5058 73.6138 53.8967 73.1895 53.965C73.165 53.9666 73.1336 53.9666 73.1167 53.9674C72.6609 53.9366 72.2818 53.5327 72.1939 52.9859L70.0245 41.5921C70.371 41.556 70.72 41.5376 71.0721 41.5368H75.9527ZM48.3904 50.7443C48.7212 50.7443 49.0483 50.7651 49.3722 50.7958L46.4017 62.6373L43.4188 50.7474C43.4489 50.7474 43.4778 50.7443 43.5079 50.7443H48.3904ZM20.9285 41.5368C21.0515 41.5368 21.1733 41.5422 21.2957 41.546L18.2795 54.9572L15.2689 41.5691C15.5263 41.5499 15.7861 41.5368 16.0473 41.5368H20.9285ZM3.61572 56.7457C3.622 50.388 6.8548 44.7045 11.7247 42.4868L16.4716 63.5934V73.3692H3.61572V56.7457ZM20.0873 73.3692V63.5934L24.8681 42.3332C28.4525 43.8214 31.3017 47.2019 32.6269 51.5399C29.3332 55.249 27.4594 60.4756 27.4606 65.9525V73.3692H20.0873ZM31.0776 65.9533C31.0839 59.2999 34.6186 53.4214 39.8093 51.4324L44.5939 70.5071V82.5767H31.0776V65.9533ZM60.8213 82.5767H48.2096V70.5071L52.9057 51.788C57.6745 54.0687 60.815 59.6885 60.8213 65.9525V82.5767ZM59.2978 51.5706C60.5665 47.4799 63.1816 44.2284 66.5054 42.6096L68.6736 53.9896C68.9962 55.7367 69.973 57.195 71.31 57.9253V73.3707H64.437V65.9525C64.4389 60.4909 62.5752 55.2782 59.2978 51.5706ZM88.3843 73.3684H74.9258V57.9184C76.2553 57.1842 77.2295 55.7351 77.561 53.9973L79.7932 42.2825C84.9117 44.3244 88.3774 50.1599 88.3843 56.7457V73.3684Z" fill="#274B89"/>
<path d="M73.4104 34.4449C78.6011 34.4464 83.1458 30.1829 84.4898 24.0479C85.8332 17.9144 83.6399 11.4415 79.1441 8.26758V6.14347C79.1441 2.74997 76.8961 0 74.1222 0C71.3483 0 69.1004 2.74997 69.1004 6.14347V7.41287C64.0157 9.93553 61.1037 16.5114 62.1545 23.0995C63.2053 29.6883 67.9234 34.4441 73.4104 34.4441V34.4449ZM73.4104 30.0216C70.1336 30.017 67.2034 27.5274 66.0527 23.7745C67.5028 23.4742 68.9189 22.9651 70.273 22.2593C71.9515 21.3831 73.5001 20.1698 74.8529 18.6685C76.1335 20.424 78.1334 22.5166 80.8552 23.5257C79.7919 27.4414 76.7825 30.0669 73.4104 30.0216ZM81.1754 18.9687C79.3813 18.058 78.0568 16.4791 77.2452 15.2804C77.657 14.5355 78.0267 13.7575 78.3525 12.952C79.8735 14.4571 80.8804 16.6035 81.1754 18.9687ZM72.7161 6.14347C72.7161 5.19354 73.3451 4.4233 74.1222 4.4233C74.8993 4.4233 75.5283 5.19354 75.5283 6.14347V6.6242C74.8303 6.46293 74.121 6.38153 73.4104 6.38076C73.1775 6.38076 72.9458 6.39228 72.7161 6.40841V6.14347ZM73.4104 10.8041C73.9772 10.8048 74.5428 10.8801 75.0958 11.0298C72.637 17.0451 68.1211 18.8528 65.6001 19.3949C66.0301 14.5132 69.396 10.811 73.4104 10.8041Z" fill="#274B89"/>
<path d="M18.4877 34.445C24.7983 34.445 29.8371 28.2992 29.9576 20.4547C29.9576 20.4409 29.9576 20.4263 29.9576 20.4125C29.9576 12.6633 24.8227 6.38159 18.4877 6.38159C12.1533 6.38159 7.01782 12.6633 7.01782 20.4125C7.01782 28.1625 12.1533 34.445 18.4877 34.445ZM18.4877 10.8049C22.8172 10.8118 26.3274 15.0969 26.3419 20.3925C26.2502 25.7942 22.8027 30.0224 18.4877 30.0224C14.1501 30.0224 10.6335 25.7205 10.6335 20.414C10.6335 15.1076 14.1501 10.8049 18.4877 10.8049Z" fill="#274B89"/>
<path d="M83.1612 53.571H79.7463C78.7483 53.571 77.9385 54.5617 77.9385 55.7827C77.9385 57.0037 78.7483 57.9943 79.7463 57.9943H83.1612C84.1593 57.9943 84.9691 57.0037 84.9691 55.7827C84.9691 54.5617 84.1593 53.571 83.1612 53.571Z" fill="#274B89"/>
<path d="M53.0303 63.4006C52.0322 63.4006 51.2224 64.3912 51.2224 65.6123C51.2224 66.8333 52.0322 67.824 53.0303 67.824H56.4451C57.4432 67.824 58.253 66.8333 58.253 65.6123C58.253 64.3912 57.4432 63.4006 56.4451 63.4006H53.0303Z" fill="#274B89"/>
<path d="M28.9258 55.0455C28.9258 53.8245 28.116 52.8339 27.1179 52.8339H24.5066C23.5085 52.8339 22.6987 53.8245 22.6987 55.0455C22.6987 56.2665 23.5085 57.2571 24.5066 57.2571H27.1179C28.116 57.2571 28.9258 56.2665 28.9258 55.0455Z" fill="#274B89"/>
</svg>
