<svg width="82" height="82" viewBox="0 0 82 82" fill="none" xmlns="http://www.w3.org/2000/svg">
<path d="M79.2257 78.5881H81.8666V81.229H79.2257V78.5881Z" fill="black"/>
<path d="M0 78.5881H2.64086V81.229H0V78.5881Z" fill="black"/>
<path d="M67.2438 60.5418C65.8286 56.4986 62.4618 53.5302 58.4251 52.5399L52.342 31.6851C50.9977 27.0752 46.9532 23.7464 42.2537 23.2132V17.4589L63.0317 10.038L39.6128 0V23.2132C38.8153 23.3041 38.0352 23.4705 37.2847 23.7161C35.0216 21.9998 32.0101 21.3841 29.2815 22.1288C27.3621 17.9393 23.1778 15.2075 18.486 15.2075C11.9329 15.2075 6.60214 20.5382 6.60214 27.0913C6.60214 27.5691 6.63502 28.0443 6.69176 28.5175C2.90778 29.1113 0 32.3847 0 36.3343C0 40.7037 3.55316 44.2569 7.92257 44.2569H25.858L25.0881 46.8978C19.8406 46.8978 15.1495 50.4168 13.6807 55.4528L6.93225 78.588H3.96128V81.2289H76.5848V78.588H73.561L67.2438 60.5418ZM42.2537 4.00642L55.8068 9.81359L42.2537 14.6543V4.00642ZM44.3678 66.5456C45.1228 67.3657 46.137 68.0246 47.5277 68.0246C50.3226 68.0246 51.625 65.4231 52.6695 63.3328C53.6727 61.3232 54.3632 60.1021 55.449 60.1021C56.5353 60.1021 57.2259 61.3232 58.231 63.3328C59.2781 65.4231 60.5785 68.0246 63.3767 68.0246C64.7725 68.0246 65.788 67.3631 66.5456 66.5404L70.7615 78.588H40.1544L44.3678 66.5456ZM64.7513 61.4128L65.4708 63.4702C64.6958 64.8486 64.1027 65.3838 63.3767 65.3838C62.2896 65.3838 61.5991 64.162 60.5946 62.1523C59.5489 60.0621 58.2465 57.4612 55.449 57.4612C52.6521 57.4612 51.3503 60.0621 50.3059 62.1523C49.302 64.162 48.6128 65.3838 47.5277 65.3838C46.8036 65.3838 46.2137 64.8512 45.4413 63.4773L46.1634 61.4128C47.5444 57.4702 51.2801 54.8203 55.458 54.8203C59.6359 54.8203 63.3715 57.4702 64.7513 61.4128ZM55.458 52.1795C50.1589 52.1795 45.4226 55.5399 43.6708 60.5418L40.5677 69.4095L36.4968 55.4528C35.2821 51.2878 31.8618 48.1679 27.7477 47.2092L29.8179 40.1119C30.5865 40.9584 31.6058 41.6161 33.003 41.6161C35.7979 41.6161 37.1003 39.0145 38.1448 36.9243C39.148 34.9146 39.8385 33.6935 40.9242 33.6935C42.0106 33.6935 42.7011 34.9146 43.7063 36.9243C44.7534 39.0145 46.0538 41.6161 48.852 41.6161C50.253 41.6161 51.2749 40.9533 52.046 40.1054L55.5689 52.1846C55.5321 52.1833 55.4947 52.1795 55.458 52.1795ZM49.8068 32.4259L51.0847 36.8069C50.2291 38.3891 49.6192 38.9752 48.852 38.9752C47.7649 38.9752 47.0744 37.7534 46.0699 35.7438C45.0242 33.6535 43.7218 31.0526 40.9242 31.0526C38.1274 31.0526 36.8256 33.6535 35.7812 35.7438C34.7773 37.7534 34.0881 38.9752 33.003 38.9752C32.2383 38.9752 31.631 38.3917 30.7793 36.816L32.0597 32.4259C33.2035 28.5065 36.8521 25.7709 40.9333 25.7709C45.0145 25.7709 48.6631 28.5065 49.8068 32.4259ZM7.92257 41.6161C5.00963 41.6161 2.64086 39.2473 2.64086 36.3343C2.64086 33.4214 5.00963 31.0526 7.92257 31.0526C10.8355 31.0526 13.2043 33.4214 13.2043 36.3343H15.8451C15.8451 32.4614 13.0495 29.2345 9.3713 28.5504C9.29458 28.0694 9.243 27.5826 9.243 27.0913C9.243 21.996 13.3906 17.8483 18.486 17.8483C22.4853 17.8483 26.014 20.4047 27.2628 24.2074L27.7174 25.5872L29.0481 25.005C30.7793 24.2467 32.7689 24.3093 34.4556 25.0752C32.13 26.5936 30.3357 28.9069 29.5259 31.6851L26.6278 41.6161H7.92257ZM25.0881 49.5386C29.1693 49.5386 32.8179 52.2743 33.9617 56.1936L34.7257 58.8145C33.992 59.9293 33.4665 60.1021 33.0068 60.1021C31.9198 60.1021 31.2293 58.8803 30.2248 56.8706C29.179 54.7804 27.8766 52.1795 25.0791 52.1795C22.2822 52.1795 20.9805 54.7804 19.936 56.8706C18.9322 58.8803 18.2429 60.1021 17.1578 60.1021C16.7007 60.1021 16.1778 59.9273 15.448 58.8222L16.2146 56.1936C17.3583 52.2743 21.0069 49.5386 25.0881 49.5386ZM14.5789 61.8029C15.2604 62.3586 16.0947 62.7429 17.1578 62.7429C19.9528 62.7429 21.2552 60.1414 22.2996 58.0511C23.3028 56.0415 23.9934 54.8203 25.0791 54.8203C26.1655 54.8203 26.856 56.0415 27.8612 58.0511C28.9082 60.1414 30.2087 62.7429 33.0068 62.7429C34.0881 62.7429 34.9307 62.3245 35.5935 61.788L39.0674 73.697L37.355 78.588H9.68271L14.5789 61.8029Z" fill="#274B89"/>
</svg>
