<svg width="46" height="64" viewBox="0 0 46 64" fill="none" xmlns="http://www.w3.org/2000/svg">
<g filter="url(#filter0_d)">
<path d="M23 33C23.7956 33 24.5587 33.3161 25.1213 33.8787C25.6839 34.4413 26 35.2044 26 36C26 36.7956 25.6839 37.5587 25.1213 38.1213C24.5587 38.6839 23.7956 39 23 39C22.2044 39 21.4413 38.6839 20.8787 38.1213C20.3161 37.5587 20 36.7956 20 36C20 35.2044 20.3161 34.4413 20.8787 33.8787C21.4413 33.3161 22.2044 33 23 33ZM23 24C23.7956 24 24.5587 24.3161 25.1213 24.8787C25.6839 25.4413 26 26.2044 26 27C26 27.7956 25.6839 28.5587 25.1213 29.1213C24.5587 29.6839 23.7956 30 23 30C22.2044 30 21.4413 29.6839 20.8787 29.1213C20.3161 28.5587 20 27.7956 20 27C20 26.2044 20.3161 25.4413 20.8787 24.8787C21.4413 24.3161 22.2044 24 23 24ZM23 15C23.7956 15 24.5587 15.3161 25.1213 15.8787C25.6839 16.4413 26 17.2044 26 18C26 18.7956 25.6839 19.5587 25.1213 20.1213C24.5587 20.6839 23.7956 21 23 21C22.2044 21 21.4413 20.6839 20.8787 20.1213C20.3161 19.5587 20 18.7956 20 18C20 17.2044 20.3161 16.4413 20.8787 15.8787C21.4413 15.3161 22.2044 15 23 15Z" fill="#5331BE"/>
</g>
<defs>
<filter id="filter0_d" x="0" y="0" width="46" height="64" filterUnits="userSpaceOnUse" color-interpolation-filters="sRGB">
<feFlood flood-opacity="0" result="BackgroundImageFix"/>
<feColorMatrix in="SourceAlpha" type="matrix" values="0 0 0 0 0 0 0 0 0 0 0 0 0 0 0 0 0 0 127 0"/>
<feOffset dy="5"/>
<feGaussianBlur stdDeviation="10"/>
<feColorMatrix type="matrix" values="0 0 0 0 0 0 0 0 0 0 0 0 0 0 0 0 0 0 0.1 0"/>
<feBlend mode="normal" in2="BackgroundImageFix" result="effect1_dropShadow"/>
<feBlend mode="normal" in="SourceGraphic" in2="effect1_dropShadow" result="shape"/>
</filter>
</defs>
</svg>
